G04 Layer_Color=8388736*
%FSLAX44Y44*%
%MOMM*%
G71*
G01*
G75*
%ADD44C,0.2000*%
G04:AMPARAMS|DCode=65|XSize=1.3032mm|YSize=1.7032mm|CornerRadius=0.3766mm|HoleSize=0mm|Usage=FLASHONLY|Rotation=90.000|XOffset=0mm|YOffset=0mm|HoleType=Round|Shape=RoundedRectangle|*
%AMROUNDEDRECTD65*
21,1,1.3032,0.9500,0,0,90.0*
21,1,0.5500,1.7032,0,0,90.0*
1,1,0.7532,0.4750,0.2750*
1,1,0.7532,0.4750,-0.2750*
1,1,0.7532,-0.4750,-0.2750*
1,1,0.7532,-0.4750,0.2750*
%
%ADD65ROUNDEDRECTD65*%
G04:AMPARAMS|DCode=66|XSize=1.7032mm|YSize=1.3032mm|CornerRadius=0.3766mm|HoleSize=0mm|Usage=FLASHONLY|Rotation=90.000|XOffset=0mm|YOffset=0mm|HoleType=Round|Shape=RoundedRectangle|*
%AMROUNDEDRECTD66*
21,1,1.7032,0.5500,0,0,90.0*
21,1,0.9500,1.3032,0,0,90.0*
1,1,0.7532,0.2750,0.4750*
1,1,0.7532,0.2750,-0.4750*
1,1,0.7532,-0.2750,-0.4750*
1,1,0.7532,-0.2750,0.4750*
%
%ADD66ROUNDEDRECTD66*%
G04:AMPARAMS|DCode=67|XSize=1.3032mm|YSize=1.7032mm|CornerRadius=0.3766mm|HoleSize=0mm|Usage=FLASHONLY|Rotation=0.000|XOffset=0mm|YOffset=0mm|HoleType=Round|Shape=RoundedRectangle|*
%AMROUNDEDRECTD67*
21,1,1.3032,0.9500,0,0,0.0*
21,1,0.5500,1.7032,0,0,0.0*
1,1,0.7532,0.2750,-0.4750*
1,1,0.7532,-0.2750,-0.4750*
1,1,0.7532,-0.2750,0.4750*
1,1,0.7532,0.2750,0.4750*
%
%ADD67ROUNDEDRECTD67*%
G04:AMPARAMS|DCode=68|XSize=1.7032mm|YSize=1.3032mm|CornerRadius=0.3766mm|HoleSize=0mm|Usage=FLASHONLY|Rotation=0.000|XOffset=0mm|YOffset=0mm|HoleType=Round|Shape=RoundedRectangle|*
%AMROUNDEDRECTD68*
21,1,1.7032,0.5500,0,0,0.0*
21,1,0.9500,1.3032,0,0,0.0*
1,1,0.7532,0.4750,-0.2750*
1,1,0.7532,-0.4750,-0.2750*
1,1,0.7532,-0.4750,0.2750*
1,1,0.7532,0.4750,0.2750*
%
%ADD68ROUNDEDRECTD68*%
G04:AMPARAMS|DCode=69|XSize=1.3032mm|YSize=1.7032mm|CornerRadius=0.5141mm|HoleSize=0mm|Usage=FLASHONLY|Rotation=270.000|XOffset=0mm|YOffset=0mm|HoleType=Round|Shape=RoundedRectangle|*
%AMROUNDEDRECTD69*
21,1,1.3032,0.6750,0,0,270.0*
21,1,0.2750,1.7032,0,0,270.0*
1,1,1.0282,-0.3375,-0.1375*
1,1,1.0282,-0.3375,0.1375*
1,1,1.0282,0.3375,0.1375*
1,1,1.0282,0.3375,-0.1375*
%
%ADD69ROUNDEDRECTD69*%
%ADD70R,1.7032X1.3032*%
%ADD71O,1.4032X0.4532*%
%ADD72O,0.4532X1.4032*%
%ADD73R,1.1032X1.1532*%
%ADD74R,1.1032X1.1532*%
%ADD75R,1.1532X1.1032*%
%ADD76R,1.1532X1.1032*%
%ADD77R,2.2832X4.2032*%
%ADD78R,11.7032X9.2032*%
%ADD79R,1.9032X0.8032*%
%ADD80R,2.0032X1.5032*%
%ADD81R,1.5032X4.0532*%
G04:AMPARAMS|DCode=82|XSize=1.3032mm|YSize=1.7032mm|CornerRadius=0.3766mm|HoleSize=0mm|Usage=FLASHONLY|Rotation=315.000|XOffset=0mm|YOffset=0mm|HoleType=Round|Shape=RoundedRectangle|*
%AMROUNDEDRECTD82*
21,1,1.3032,0.9500,0,0,315.0*
21,1,0.5500,1.7032,0,0,315.0*
1,1,0.7532,-0.1414,-0.5303*
1,1,0.7532,-0.5303,-0.1414*
1,1,0.7532,0.1414,0.5303*
1,1,0.7532,0.5303,0.1414*
%
%ADD82ROUNDEDRECTD82*%
G04:AMPARAMS|DCode=83|XSize=1.7032mm|YSize=1.3032mm|CornerRadius=0.3766mm|HoleSize=0mm|Usage=FLASHONLY|Rotation=225.000|XOffset=0mm|YOffset=0mm|HoleType=Round|Shape=RoundedRectangle|*
%AMROUNDEDRECTD83*
21,1,1.7032,0.5500,0,0,225.0*
21,1,0.9500,1.3032,0,0,225.0*
1,1,0.7532,-0.5303,-0.1414*
1,1,0.7532,0.1414,0.5303*
1,1,0.7532,0.5303,0.1414*
1,1,0.7532,-0.1414,-0.5303*
%
%ADD83ROUNDEDRECTD83*%
G04:AMPARAMS|DCode=84|XSize=2.2032mm|YSize=2.2032mm|CornerRadius=0.6016mm|HoleSize=0mm|Usage=FLASHONLY|Rotation=0.000|XOffset=0mm|YOffset=0mm|HoleType=Round|Shape=RoundedRectangle|*
%AMROUNDEDRECTD84*
21,1,2.2032,1.0000,0,0,0.0*
21,1,1.0000,2.2032,0,0,0.0*
1,1,1.2032,0.5000,-0.5000*
1,1,1.2032,-0.5000,-0.5000*
1,1,1.2032,-0.5000,0.5000*
1,1,1.2032,0.5000,0.5000*
%
%ADD84ROUNDEDRECTD84*%
%ADD85R,1.3032X2.4032*%
%ADD86R,11.0032X11.0032*%
G04:AMPARAMS|DCode=87|XSize=3.2mm|YSize=5.7mm|CornerRadius=0.85mm|HoleSize=0mm|Usage=FLASHONLY|Rotation=0.000|XOffset=0mm|YOffset=0mm|HoleType=Round|Shape=RoundedRectangle|*
%AMROUNDEDRECTD87*
21,1,3.2000,4.0000,0,0,0.0*
21,1,1.5000,5.7000,0,0,0.0*
1,1,1.7000,0.7500,-2.0000*
1,1,1.7000,-0.7500,-2.0000*
1,1,1.7000,-0.7500,2.0000*
1,1,1.7000,0.7500,2.0000*
%
%ADD87ROUNDEDRECTD87*%
%ADD88R,0.7532X1.2032*%
%ADD89R,0.7532X1.2032*%
%ADD90O,1.7532X0.4532*%
%ADD91O,0.4532X1.7532*%
%ADD92R,1.9032X1.5032*%
%ADD93R,5.9032X5.7032*%
%ADD94R,1.5032X1.9032*%
%ADD95R,5.7032X5.9032*%
%ADD96R,0.9032X0.9032*%
%ADD97R,0.7032X0.9032*%
%ADD98R,1.7032X2.4532*%
%ADD99P,1.6347X8X112.5*%
%ADD100C,3.5030*%
%ADD101C,1.6032*%
%ADD102C,1.7032*%
%ADD103R,1.7032X1.7032*%
%ADD104C,1.8032*%
%ADD105R,1.5532X1.5532*%
%ADD106C,1.5532*%
%ADD107C,6.5532*%
%ADD108R,6.5532X6.5532*%
%ADD109R,1.7032X1.7032*%
%ADD110C,2.7432*%
%ADD111C,3.2032*%
D44*
X937250Y1603807D02*
Y1593810D01*
X942248D01*
X943914Y1595476D01*
Y1597142D01*
X942248Y1598808D01*
X937250D01*
X942248D01*
X943914Y1600475D01*
Y1602141D01*
X942248Y1603807D01*
X937250D01*
X947247D02*
X953911D01*
X950579D01*
Y1593810D01*
X957244D02*
Y1603807D01*
X963908Y1593810D01*
Y1603807D01*
X765915Y1171807D02*
X762582D01*
X764248D01*
Y1163476D01*
X762582Y1161810D01*
X760916D01*
X759250Y1163476D01*
X775911Y1171807D02*
X769247D01*
Y1161810D01*
X775911D01*
X769247Y1166808D02*
X772579D01*
X779244Y1171807D02*
X785908D01*
X782576D01*
Y1161810D01*
X789240Y1160144D02*
X795905D01*
X799237Y1171807D02*
Y1165142D01*
X802569Y1161810D01*
X805902Y1165142D01*
Y1171807D01*
X806253Y1124810D02*
X816250D01*
Y1129808D01*
X814584Y1131475D01*
X807919D01*
X806253Y1129808D01*
Y1124810D01*
Y1134807D02*
X807919D01*
X811252Y1138139D01*
X807919Y1141471D01*
X806253D01*
X811252Y1138139D02*
X816250D01*
Y1144804D02*
X806253D01*
X816250Y1151468D01*
X806253D01*
X1190248Y1231807D02*
X1186916D01*
X1185250Y1230141D01*
Y1223476D01*
X1186916Y1221810D01*
X1190248D01*
X1191915Y1223476D01*
Y1230141D01*
X1190248Y1231807D01*
X1195247D02*
Y1221810D01*
X1201911D01*
X1211908Y1231807D02*
X1205244D01*
Y1221810D01*
X1211908D01*
X1205244Y1226808D02*
X1208576D01*
X1215240Y1231807D02*
Y1221810D01*
X1220239D01*
X1221905Y1223476D01*
Y1230141D01*
X1220239Y1231807D01*
X1215240D01*
X1405919Y1219474D02*
X1404253Y1217808D01*
Y1214476D01*
X1405919Y1212810D01*
X1412584D01*
X1414250Y1214476D01*
Y1217808D01*
X1412584Y1219474D01*
X1409252D01*
Y1216142D01*
X1414250Y1222807D02*
X1404253D01*
Y1227805D01*
X1405919Y1229471D01*
X1409252D01*
X1410918Y1227805D01*
Y1222807D01*
X1405919Y1239468D02*
X1404253Y1237802D01*
Y1234470D01*
X1405919Y1232804D01*
X1407585D01*
X1409252Y1234470D01*
Y1237802D01*
X1410918Y1239468D01*
X1412584D01*
X1414250Y1237802D01*
Y1234470D01*
X1412584Y1232804D01*
X1354915Y1659141D02*
X1353248Y1660807D01*
X1349916D01*
X1348250Y1659141D01*
Y1652476D01*
X1349916Y1650810D01*
X1353248D01*
X1354915Y1652476D01*
Y1655808D01*
X1351582D01*
X1358247Y1660807D02*
Y1650810D01*
X1363245Y1660807D02*
Y1654142D01*
X1366577Y1650810D01*
X1369910Y1654142D01*
Y1660807D01*
X1373242D02*
Y1650810D01*
X1384905Y1659141D02*
X1383239Y1660807D01*
X1379906D01*
X1378240Y1659141D01*
Y1657475D01*
X1379906Y1655808D01*
X1383239D01*
X1384905Y1654142D01*
Y1652476D01*
X1383239Y1650810D01*
X1379906D01*
X1378240Y1652476D01*
X983250Y1469807D02*
Y1461476D01*
X984916Y1459810D01*
X988248D01*
X989914Y1461476D01*
Y1469807D01*
X993247D02*
X999911D01*
Y1468141D01*
X993247Y1461476D01*
Y1459810D01*
X999911D01*
X1349250Y1714810D02*
Y1724807D01*
X1354248D01*
X1355914Y1723141D01*
Y1719808D01*
X1354248Y1718142D01*
X1349250D01*
X1359247Y1714810D02*
Y1724807D01*
X1364245D01*
X1365911Y1723141D01*
Y1719808D01*
X1364245Y1718142D01*
X1359247D01*
X1369244Y1714810D02*
Y1724807D01*
X1372576Y1721474D01*
X1375908Y1724807D01*
Y1714810D01*
X1384239D02*
Y1724807D01*
X1379240Y1719808D01*
X1385905D01*
X1349250Y1698810D02*
Y1708807D01*
X1354248D01*
X1355914Y1707141D01*
Y1703808D01*
X1354248Y1702142D01*
X1349250D01*
X1359247Y1698810D02*
Y1708807D01*
X1364245D01*
X1365911Y1707141D01*
Y1703808D01*
X1364245Y1702142D01*
X1359247D01*
X1369244Y1698810D02*
Y1708807D01*
X1372576Y1705475D01*
X1375908Y1708807D01*
Y1698810D01*
X1379240Y1707141D02*
X1380907Y1708807D01*
X1384239D01*
X1385905Y1707141D01*
Y1705475D01*
X1384239Y1703808D01*
X1382573D01*
X1384239D01*
X1385905Y1702142D01*
Y1700476D01*
X1384239Y1698810D01*
X1380907D01*
X1379240Y1700476D01*
X1349250Y1682810D02*
Y1692807D01*
X1354248D01*
X1355914Y1691141D01*
Y1687808D01*
X1354248Y1686142D01*
X1349250D01*
X1359247Y1682810D02*
Y1692807D01*
X1364245D01*
X1365911Y1691141D01*
Y1687808D01*
X1364245Y1686142D01*
X1359247D01*
X1369244Y1682810D02*
Y1692807D01*
X1372576Y1689474D01*
X1375908Y1692807D01*
Y1682810D01*
X1385905D02*
X1379240D01*
X1385905Y1689474D01*
Y1691141D01*
X1384239Y1692807D01*
X1380907D01*
X1379240Y1691141D01*
X1349250Y1666810D02*
Y1676807D01*
X1354248D01*
X1355914Y1675141D01*
Y1671808D01*
X1354248Y1670142D01*
X1349250D01*
X1359247Y1666810D02*
Y1676807D01*
X1364245D01*
X1365911Y1675141D01*
Y1671808D01*
X1364245Y1670142D01*
X1359247D01*
X1369244Y1666810D02*
Y1676807D01*
X1372576Y1673474D01*
X1375908Y1676807D01*
Y1666810D01*
X1379240D02*
X1382573D01*
X1380907D01*
Y1676807D01*
X1379240Y1675141D01*
D65*
X1391250Y1355810D02*
D03*
X1391252Y1335809D02*
D03*
X1123252Y1493808D02*
D03*
X1123250Y1513810D02*
D03*
X1062251Y1493809D02*
D03*
X1062249Y1513811D02*
D03*
X1084248Y1513811D02*
D03*
X1084250Y1493810D02*
D03*
X811252Y1509809D02*
D03*
X811250Y1529810D02*
D03*
X1090252Y1247809D02*
D03*
X1090250Y1267810D02*
D03*
X1193252Y1247809D02*
D03*
X1193250Y1267810D02*
D03*
X1227252Y1745809D02*
D03*
X1227250Y1765810D02*
D03*
X1456248Y1350811D02*
D03*
X1456250Y1330810D02*
D03*
X813252Y1707809D02*
D03*
X813250Y1727810D02*
D03*
X1335252Y1429809D02*
D03*
X1335250Y1449810D02*
D03*
X1290252Y1429809D02*
D03*
X1290250Y1449810D02*
D03*
X1366252Y1393808D02*
D03*
X1366250Y1413810D02*
D03*
X1277248Y1260807D02*
D03*
X1277250Y1240805D02*
D03*
X1270252Y1429809D02*
D03*
X1270250Y1449810D02*
D03*
X1218252Y1363808D02*
D03*
X1218250Y1383810D02*
D03*
X1308248Y1260807D02*
D03*
X1308250Y1240805D02*
D03*
X1389249Y1599813D02*
D03*
X1389251Y1579811D02*
D03*
D66*
X909250Y1421810D02*
D03*
X889250D02*
D03*
X915249Y1503809D02*
D03*
X895249D02*
D03*
X934249D02*
D03*
X954249D02*
D03*
X962250Y1421810D02*
D03*
X942250D02*
D03*
X1156250Y1426810D02*
D03*
X1176250D02*
D03*
X1275250Y1612810D02*
D03*
X1255250D02*
D03*
X813250Y1457810D02*
D03*
X833250D02*
D03*
X735250Y1676810D02*
D03*
X755250D02*
D03*
X1057250Y1649810D02*
D03*
X1077250D02*
D03*
X987250Y1621810D02*
D03*
X1007250D02*
D03*
X1352250Y1206810D02*
D03*
X1332250D02*
D03*
X987250Y1641810D02*
D03*
X1007250D02*
D03*
D67*
X1092249Y1581808D02*
D03*
X1112250Y1581810D02*
D03*
X1076252Y1581812D02*
D03*
X1056250Y1581810D02*
D03*
X1148249Y1458808D02*
D03*
X1168250Y1458810D02*
D03*
X1021252Y1390812D02*
D03*
X1001250Y1390810D02*
D03*
X1145248Y1382808D02*
D03*
X1165250Y1382810D02*
D03*
X788249Y1480808D02*
D03*
X808250Y1480810D02*
D03*
X1167249Y1649808D02*
D03*
X1187250Y1649810D02*
D03*
X1226252Y1649812D02*
D03*
X1206250Y1649810D02*
D03*
X790248Y1679808D02*
D03*
X810250Y1679810D02*
D03*
X1391250Y1294560D02*
D03*
X1411252Y1294562D02*
D03*
X1220251Y1310812D02*
D03*
X1200250Y1310810D02*
D03*
X1391250Y1314556D02*
D03*
X1411252Y1314557D02*
D03*
X1286251Y1529811D02*
D03*
X1266249Y1529809D02*
D03*
X1286251Y1550811D02*
D03*
X1266249Y1550809D02*
D03*
D68*
X1151249Y1570811D02*
D03*
Y1550811D02*
D03*
X859250Y1386810D02*
D03*
Y1366810D02*
D03*
X765250Y1429810D02*
D03*
Y1449810D02*
D03*
X839249Y1386811D02*
D03*
Y1366811D02*
D03*
X968250Y1621810D02*
D03*
Y1641810D02*
D03*
X1250250Y1429810D02*
D03*
Y1449810D02*
D03*
X1367250Y1806326D02*
D03*
Y1786326D02*
D03*
X1316250Y1429810D02*
D03*
Y1449810D02*
D03*
X1100250Y1632810D02*
D03*
Y1612810D02*
D03*
X876250Y1675810D02*
D03*
Y1655810D02*
D03*
D69*
X1151250Y1513810D02*
D03*
D70*
X1151248Y1533811D02*
D03*
D71*
X1130751Y1452309D02*
D03*
Y1447309D02*
D03*
Y1442309D02*
D03*
Y1437309D02*
D03*
Y1432309D02*
D03*
Y1427309D02*
D03*
Y1422309D02*
D03*
Y1417309D02*
D03*
Y1412309D02*
D03*
Y1407309D02*
D03*
Y1402309D02*
D03*
Y1397309D02*
D03*
X1041751D02*
D03*
Y1402309D02*
D03*
Y1407309D02*
D03*
Y1412309D02*
D03*
Y1417309D02*
D03*
Y1422309D02*
D03*
Y1427309D02*
D03*
Y1432309D02*
D03*
Y1437309D02*
D03*
Y1442309D02*
D03*
Y1447309D02*
D03*
Y1452309D02*
D03*
D72*
X1113751Y1380309D02*
D03*
X1108751D02*
D03*
X1103751D02*
D03*
X1098751D02*
D03*
X1093751D02*
D03*
X1088751D02*
D03*
X1083751D02*
D03*
X1078751D02*
D03*
X1073751D02*
D03*
X1068751D02*
D03*
X1063751D02*
D03*
X1058751D02*
D03*
Y1469309D02*
D03*
X1063751D02*
D03*
X1068751D02*
D03*
X1073751D02*
D03*
X1078751D02*
D03*
X1083751D02*
D03*
X1088751D02*
D03*
X1093751D02*
D03*
X1098751D02*
D03*
X1103751D02*
D03*
X1108751D02*
D03*
X1113751D02*
D03*
D73*
X832750Y1440310D02*
D03*
X823250Y1415310D02*
D03*
X1042750Y1633310D02*
D03*
X1033250Y1608310D02*
D03*
X1076750Y1634310D02*
D03*
X1067250Y1609310D02*
D03*
D74*
X813750Y1440310D02*
D03*
X1023750Y1633310D02*
D03*
X1057750Y1634310D02*
D03*
D75*
X859750Y1657315D02*
D03*
X834750Y1666815D02*
D03*
D76*
X859750Y1676315D02*
D03*
D77*
X790650Y1439810D02*
D03*
X739850D02*
D03*
D78*
X765250Y1339810D02*
D03*
D79*
X787254Y1499710D02*
D03*
Y1537810D02*
D03*
Y1525110D02*
D03*
Y1512410D02*
D03*
X728754Y1499710D02*
D03*
Y1512410D02*
D03*
Y1525110D02*
D03*
Y1537810D02*
D03*
X1455250Y1368710D02*
D03*
Y1406810D02*
D03*
Y1394110D02*
D03*
Y1381410D02*
D03*
X1396750Y1368710D02*
D03*
Y1381410D02*
D03*
Y1394110D02*
D03*
Y1406810D02*
D03*
X789250Y1698710D02*
D03*
Y1736810D02*
D03*
Y1724110D02*
D03*
Y1711410D02*
D03*
X730750Y1698710D02*
D03*
Y1711410D02*
D03*
Y1724110D02*
D03*
Y1736810D02*
D03*
D80*
X1112750Y1234810D02*
D03*
Y1257810D02*
D03*
Y1280810D02*
D03*
X1366751Y1612811D02*
D03*
Y1589811D02*
D03*
Y1566811D02*
D03*
X1165750Y1673810D02*
D03*
Y1696810D02*
D03*
Y1719810D02*
D03*
D81*
X1173750Y1257810D02*
D03*
X1305751Y1589811D02*
D03*
X1226750Y1696810D02*
D03*
D82*
X1400177Y1508876D02*
D03*
X1414321Y1494734D02*
D03*
X1426178Y1482875D02*
D03*
X1440322Y1468733D02*
D03*
D83*
X1376321Y1431734D02*
D03*
X1362179Y1445876D02*
D03*
D84*
X1035250Y1668810D02*
D03*
X991250D02*
D03*
D85*
X1042250Y1697810D02*
D03*
X1025250D02*
D03*
X974250D02*
D03*
X991250D02*
D03*
X1008250D02*
D03*
D86*
Y1800810D02*
D03*
D87*
X1097250Y1797810D02*
D03*
X1197250D02*
D03*
D88*
X1376250Y1250310D02*
D03*
X1395250D02*
D03*
Y1222810D02*
D03*
X1385750D02*
D03*
X1342250Y1250310D02*
D03*
X1361250D02*
D03*
Y1222810D02*
D03*
X1351750D02*
D03*
D89*
X1376250Y1222810D02*
D03*
X1342250D02*
D03*
D90*
X1356500Y1380310D02*
D03*
Y1375310D02*
D03*
Y1370310D02*
D03*
Y1365310D02*
D03*
Y1360310D02*
D03*
Y1355310D02*
D03*
Y1350310D02*
D03*
Y1345310D02*
D03*
Y1340310D02*
D03*
Y1335310D02*
D03*
Y1330310D02*
D03*
Y1325310D02*
D03*
Y1320310D02*
D03*
Y1315310D02*
D03*
Y1310310D02*
D03*
Y1305310D02*
D03*
X1246000D02*
D03*
Y1310310D02*
D03*
Y1315310D02*
D03*
Y1320310D02*
D03*
Y1325310D02*
D03*
Y1330310D02*
D03*
Y1335310D02*
D03*
Y1340310D02*
D03*
Y1345310D02*
D03*
Y1350310D02*
D03*
Y1355310D02*
D03*
Y1360310D02*
D03*
Y1365310D02*
D03*
Y1370310D02*
D03*
Y1375310D02*
D03*
Y1380310D02*
D03*
D91*
X1338750Y1287560D02*
D03*
X1333750D02*
D03*
X1328750D02*
D03*
X1323750D02*
D03*
X1318750D02*
D03*
X1313750D02*
D03*
X1308750D02*
D03*
X1303750D02*
D03*
X1298750D02*
D03*
X1293750D02*
D03*
X1288750D02*
D03*
X1283750D02*
D03*
X1278750D02*
D03*
X1273750D02*
D03*
X1268750D02*
D03*
X1263750D02*
D03*
Y1398060D02*
D03*
X1268750D02*
D03*
X1273750D02*
D03*
X1278750D02*
D03*
X1283750D02*
D03*
X1288750D02*
D03*
X1293750D02*
D03*
X1298750D02*
D03*
X1303750D02*
D03*
X1308750D02*
D03*
X1313750D02*
D03*
X1318750D02*
D03*
X1323750D02*
D03*
X1328750D02*
D03*
X1333750D02*
D03*
X1338750D02*
D03*
D92*
X1345731Y1773476D02*
D03*
Y1819176D02*
D03*
D93*
X1281331Y1796326D02*
D03*
D94*
X791100Y1652210D02*
D03*
X745400D02*
D03*
D95*
X768250Y1587810D02*
D03*
D96*
X1410250Y1337810D02*
D03*
X1436250D02*
D03*
Y1355810D02*
D03*
X1410250D02*
D03*
D97*
X1419250Y1337810D02*
D03*
X1427250D02*
D03*
Y1355810D02*
D03*
X1419250D02*
D03*
D98*
X1392600Y1173828D02*
D03*
X1367200D02*
D03*
X1341800D02*
D03*
X1316400D02*
D03*
X1291000D02*
D03*
X1265600D02*
D03*
X1240200D02*
D03*
X1214800D02*
D03*
X1189400D02*
D03*
X1164000D02*
D03*
X1138600D02*
D03*
X1113200D02*
D03*
X1087800D02*
D03*
X1062400D02*
D03*
X1037000D02*
D03*
X1011600D02*
D03*
X986200D02*
D03*
X960800D02*
D03*
X935400D02*
D03*
X910000D02*
D03*
D99*
X1452549Y1609309D02*
D03*
Y1584311D02*
D03*
X1432549D02*
D03*
Y1609309D02*
D03*
D100*
X1405450Y1536810D02*
D03*
Y1656810D02*
D03*
D101*
X1108749Y1546811D02*
D03*
X1059749D02*
D03*
X1375926Y1482129D02*
D03*
X1410574Y1447481D02*
D03*
D102*
X1195050Y1352810D02*
D03*
X1169650D02*
D03*
X1144250D02*
D03*
X1118850D02*
D03*
X1190150Y1205810D02*
D03*
X1215550D02*
D03*
X1164750D02*
D03*
X1063150D02*
D03*
X1088550D02*
D03*
X1113950D02*
D03*
X1139350D02*
D03*
X1259850Y1746910D02*
D03*
Y1721510D02*
D03*
Y1696110D02*
D03*
X1285250Y1746910D02*
D03*
Y1721510D02*
D03*
Y1696110D02*
D03*
X1310650Y1746910D02*
D03*
Y1721510D02*
D03*
Y1696110D02*
D03*
D103*
X1093450Y1352810D02*
D03*
X1037750Y1205810D02*
D03*
D104*
X1005250Y1586810D02*
D03*
X979850D02*
D03*
X963450Y1457810D02*
D03*
X938050D02*
D03*
X887250D02*
D03*
X912650D02*
D03*
X853250Y1165610D02*
D03*
Y1114810D02*
D03*
Y1140210D02*
D03*
X916250Y1235210D02*
D03*
Y1311410D02*
D03*
Y1336810D02*
D03*
Y1286010D02*
D03*
Y1260610D02*
D03*
X979250Y1235210D02*
D03*
Y1311410D02*
D03*
Y1336810D02*
D03*
Y1286010D02*
D03*
Y1260610D02*
D03*
X1042250Y1235210D02*
D03*
Y1311410D02*
D03*
Y1336810D02*
D03*
Y1286010D02*
D03*
Y1260610D02*
D03*
X853250Y1235210D02*
D03*
Y1311410D02*
D03*
Y1336810D02*
D03*
Y1286010D02*
D03*
Y1260610D02*
D03*
X885250Y1376810D02*
D03*
X910650D02*
D03*
X939250D02*
D03*
X964650D02*
D03*
X1441250Y1171210D02*
D03*
Y1247410D02*
D03*
Y1272810D02*
D03*
Y1222010D02*
D03*
Y1196610D02*
D03*
D105*
X1109250Y1709310D02*
D03*
X906250Y1742310D02*
D03*
D106*
X1109250Y1674310D02*
D03*
X906250Y1777310D02*
D03*
D107*
X820251Y1799810D02*
D03*
D108*
X750249D02*
D03*
D109*
X1259850Y1670710D02*
D03*
X1285250Y1670710D02*
D03*
X1310650Y1670710D02*
D03*
D110*
X882000Y1573810D02*
D03*
Y1615810D02*
D03*
X827000D02*
D03*
Y1573810D02*
D03*
X744250Y1202060D02*
D03*
X786250D02*
D03*
Y1257060D02*
D03*
X744250D02*
D03*
D111*
X786250Y1140810D02*
D03*
X744250D02*
D03*
M02*
