M48
;Layer_Color=9474304
;FILE_FORMAT=4:4
METRIC,LZ
;TYPE=PLATED
T1F00S00C0.5000
T2F00S00C0.7112
T3F00S00C0.8000
T4F00S00C0.8999
T5F00S00C0.9000
T6F00S00C1.8000
T7F00S00C2.0000
T8F00S00C2.1999
T9F00S00C4.6500
%
T01
X0119325Y0128081
X0123125Y0131081
Y0136481
X0127725Y0141681
X0129125Y0141781
X0132825Y01417809
X0135225Y0139481
X0137525Y0135581
X01378253Y0133281
X01377249Y0131181
X0137725Y0129681
X0141125Y0127881
X0142425Y0128781
X0144125Y0132481
X0145725Y0125981
X0139225Y0119481
X0136625Y0121181
X0131925Y0121281
X0130825Y0122881
X0127725Y0122981
X0128925Y0121281
X0127825Y0127181
X0130825
X0128025Y0146481
X0127125Y0147881
X0121725Y01557809
X0121725Y0156981
X0115125Y0158281
X0111225Y0156581
X0111325Y0145481
X0109325Y01441809
X0106825Y0145481
X0103625Y01488809
X0096725Y01508809
X0096427Y01535809
X0095225Y0153581
X0098925Y01535809
X0095725Y0158181
X0094825Y01573809
X0089525Y0154581
X0087725Y0144481
X0084625
X0100125Y0137481
X0100525Y0135081
X0105825Y01396809
X0111325Y0139781
X0118325Y0143981
X0118525Y0131081
X0106125Y0122181
X0100525Y0121381
X0098925Y0121381
X0099825Y0119381
X0096925
X0091025Y0120581
X0087625Y0121481
X0102125Y0124781
X0103525Y0164581
X0101525Y0165881
X0105925Y0169781
X0112525Y01600809
Y01587809
X0116525Y0158881
X0090425Y0165781
T02
X0144525Y0111381
X0146025Y0129881
X0133525Y0130981
X0130225Y0134381
X0133225Y0137481
X0126725Y0137781
X0126825Y0130881
X0124525Y0120681
X0133725Y0146981
X0142725Y0140781
X0126425Y0158581
X0113725Y0150481
X0107325Y0152681
X0104225Y0158081
X0099525Y0155781
X01078751Y01430311
X0106225Y0133681
X0113425Y0125781
X0115725Y0125881
X0088325Y0135281
X0083825Y0148981
X0076125Y0152281
X0071525Y0148381
X0076525Y0140381
X0071425Y0126881
X0076625Y0163381
X0083825Y0169281
X0090625Y0182981
X0114725Y0179781
X0116425Y0160881
X0119825Y0169681
X0133525Y0159381
T03
X01375926Y01482129
X01410574Y01447481
X01108749Y01546811
X01059749
X0075025Y0170481
X0090625Y0174231
Y0177731
X0096425Y0175781
X0100825Y0171581
X0105125Y0175781
X0100925Y0180481
X0105325Y0184581
X0096425
X0110925Y0170931
Y0167431
T04
X01432549Y01584311
X01452549
Y01609309
X01432549
T05
X0085325Y0111481
Y0114021
Y0116561
X0144125Y0117121
Y0119661
Y0122201
Y0124741
Y0127281
X0121555Y0120581
X0119505Y0135281
X0116965
X0114425
X0111885
X0109345
X0104225Y0133681
Y0131141
Y0128601
Y0126061
Y0123521
X0103775Y0120581
X0106315
X0108855
X0111395
X0113935
X0116475
X0119015
X0097925Y0123521
Y0126061
Y0128601
Y0131141
Y0133681
X0096465Y0137681
X0093925
X0091065
X0088525
X0091625Y0133681
Y0131141
Y0128601
Y0126061
Y0123521
X0085325
Y0126061
Y0128601
Y0131141
Y0133681
X0088725Y0145781
X0091265
X0093805
X0096345
X0097985Y0158681
X0100525
X0125985Y0167071
Y0169611
Y0172151
Y0174691
X0128525Y0174691
Y0172151
Y0169611
Y0167071
X0131065Y0167071
Y0169611
Y0172151
Y0174691
T06
X00827Y0157381
X00882
X0078625Y0125706
X0074425
Y0120206
X0078625
X00827Y0161581
X00882
T07
X0074425Y0114081
X0078625
T08
X0140545Y0153681
Y0165681
T09
X00750249Y0179981
X00820251
M30
