G04 Layer_Physical_Order=1*
G04 Layer_Color=255*
%FSLAX44Y44*%
%MOMM*%
G71*
G01*
G75*
G04:AMPARAMS|DCode=10|XSize=1.1mm|YSize=1.5mm|CornerRadius=0.275mm|HoleSize=0mm|Usage=FLASHONLY|Rotation=90.000|XOffset=0mm|YOffset=0mm|HoleType=Round|Shape=RoundedRectangle|*
%AMROUNDEDRECTD10*
21,1,1.1000,0.9500,0,0,90.0*
21,1,0.5500,1.5000,0,0,90.0*
1,1,0.5500,0.4750,0.2750*
1,1,0.5500,0.4750,-0.2750*
1,1,0.5500,-0.4750,-0.2750*
1,1,0.5500,-0.4750,0.2750*
%
%ADD10ROUNDEDRECTD10*%
G04:AMPARAMS|DCode=11|XSize=1.5mm|YSize=1.1mm|CornerRadius=0.275mm|HoleSize=0mm|Usage=FLASHONLY|Rotation=90.000|XOffset=0mm|YOffset=0mm|HoleType=Round|Shape=RoundedRectangle|*
%AMROUNDEDRECTD11*
21,1,1.5000,0.5500,0,0,90.0*
21,1,0.9500,1.1000,0,0,90.0*
1,1,0.5500,0.2750,0.4750*
1,1,0.5500,0.2750,-0.4750*
1,1,0.5500,-0.2750,-0.4750*
1,1,0.5500,-0.2750,0.4750*
%
%ADD11ROUNDEDRECTD11*%
G04:AMPARAMS|DCode=12|XSize=1.1mm|YSize=1.5mm|CornerRadius=0.275mm|HoleSize=0mm|Usage=FLASHONLY|Rotation=0.000|XOffset=0mm|YOffset=0mm|HoleType=Round|Shape=RoundedRectangle|*
%AMROUNDEDRECTD12*
21,1,1.1000,0.9500,0,0,0.0*
21,1,0.5500,1.5000,0,0,0.0*
1,1,0.5500,0.2750,-0.4750*
1,1,0.5500,-0.2750,-0.4750*
1,1,0.5500,-0.2750,0.4750*
1,1,0.5500,0.2750,0.4750*
%
%ADD12ROUNDEDRECTD12*%
G04:AMPARAMS|DCode=13|XSize=1.5mm|YSize=1.1mm|CornerRadius=0.275mm|HoleSize=0mm|Usage=FLASHONLY|Rotation=0.000|XOffset=0mm|YOffset=0mm|HoleType=Round|Shape=RoundedRectangle|*
%AMROUNDEDRECTD13*
21,1,1.5000,0.5500,0,0,0.0*
21,1,0.9500,1.1000,0,0,0.0*
1,1,0.5500,0.4750,-0.2750*
1,1,0.5500,-0.4750,-0.2750*
1,1,0.5500,-0.4750,0.2750*
1,1,0.5500,0.4750,0.2750*
%
%ADD13ROUNDEDRECTD13*%
G04:AMPARAMS|DCode=14|XSize=1.1mm|YSize=1.5mm|CornerRadius=0.4125mm|HoleSize=0mm|Usage=FLASHONLY|Rotation=270.000|XOffset=0mm|YOffset=0mm|HoleType=Round|Shape=RoundedRectangle|*
%AMROUNDEDRECTD14*
21,1,1.1000,0.6750,0,0,270.0*
21,1,0.2750,1.5000,0,0,270.0*
1,1,0.8250,-0.3375,-0.1375*
1,1,0.8250,-0.3375,0.1375*
1,1,0.8250,0.3375,0.1375*
1,1,0.8250,0.3375,-0.1375*
%
%ADD14ROUNDEDRECTD14*%
%ADD15R,1.5000X1.1000*%
%ADD16O,1.2000X0.2500*%
%ADD17O,0.2500X1.2000*%
%ADD18R,0.9000X0.9500*%
%ADD19R,0.9000X0.9500*%
%ADD20R,0.9500X0.9000*%
%ADD21R,0.9500X0.9000*%
%ADD22R,2.0800X4.0000*%
%ADD23R,11.5000X9.0000*%
%ADD24R,1.7000X0.6000*%
%ADD25R,1.8000X1.3000*%
%ADD26R,1.3000X3.8500*%
G04:AMPARAMS|DCode=27|XSize=1.1mm|YSize=1.5mm|CornerRadius=0.275mm|HoleSize=0mm|Usage=FLASHONLY|Rotation=315.000|XOffset=0mm|YOffset=0mm|HoleType=Round|Shape=RoundedRectangle|*
%AMROUNDEDRECTD27*
21,1,1.1000,0.9500,0,0,315.0*
21,1,0.5500,1.5000,0,0,315.0*
1,1,0.5500,-0.1414,-0.5303*
1,1,0.5500,-0.5303,-0.1414*
1,1,0.5500,0.1414,0.5303*
1,1,0.5500,0.5303,0.1414*
%
%ADD27ROUNDEDRECTD27*%
G04:AMPARAMS|DCode=28|XSize=1.5mm|YSize=1.1mm|CornerRadius=0.275mm|HoleSize=0mm|Usage=FLASHONLY|Rotation=225.000|XOffset=0mm|YOffset=0mm|HoleType=Round|Shape=RoundedRectangle|*
%AMROUNDEDRECTD28*
21,1,1.5000,0.5500,0,0,225.0*
21,1,0.9500,1.1000,0,0,225.0*
1,1,0.5500,-0.5303,-0.1414*
1,1,0.5500,0.1414,0.5303*
1,1,0.5500,0.5303,0.1414*
1,1,0.5500,-0.1414,-0.5303*
%
%ADD28ROUNDEDRECTD28*%
G04:AMPARAMS|DCode=29|XSize=2mm|YSize=2mm|CornerRadius=0.5mm|HoleSize=0mm|Usage=FLASHONLY|Rotation=0.000|XOffset=0mm|YOffset=0mm|HoleType=Round|Shape=RoundedRectangle|*
%AMROUNDEDRECTD29*
21,1,2.0000,1.0000,0,0,0.0*
21,1,1.0000,2.0000,0,0,0.0*
1,1,1.0000,0.5000,-0.5000*
1,1,1.0000,-0.5000,-0.5000*
1,1,1.0000,-0.5000,0.5000*
1,1,1.0000,0.5000,0.5000*
%
%ADD29ROUNDEDRECTD29*%
%ADD30R,1.1000X2.2000*%
%ADD31R,10.8000X10.8000*%
G04:AMPARAMS|DCode=32|XSize=3mm|YSize=5.5mm|CornerRadius=0.75mm|HoleSize=0mm|Usage=FLASHONLY|Rotation=0.000|XOffset=0mm|YOffset=0mm|HoleType=Round|Shape=RoundedRectangle|*
%AMROUNDEDRECTD32*
21,1,3.0000,4.0000,0,0,0.0*
21,1,1.5000,5.5000,0,0,0.0*
1,1,1.5000,0.7500,-2.0000*
1,1,1.5000,-0.7500,-2.0000*
1,1,1.5000,-0.7500,2.0000*
1,1,1.5000,0.7500,2.0000*
%
%ADD32ROUNDEDRECTD32*%
%ADD33R,0.5500X1.0000*%
%ADD34R,0.5500X1.0000*%
%ADD35O,1.5500X0.2500*%
%ADD36O,0.2500X1.5500*%
%ADD37R,1.7000X1.3000*%
%ADD38R,5.7000X5.5000*%
%ADD39R,1.3000X1.7000*%
%ADD40R,5.5000X5.7000*%
%ADD41R,0.7000X0.7000*%
%ADD42R,0.5000X0.7000*%
%ADD43R,1.5000X2.2500*%
%ADD44C,0.2000*%
%ADD45C,0.4000*%
%ADD46C,0.3000*%
%ADD47C,0.6000*%
%ADD48C,1.2500*%
%ADD49C,2.0000*%
%ADD50P,1.4147X8X112.5*%
%ADD51C,3.2998*%
%ADD52C,1.4000*%
%ADD53C,1.5000*%
%ADD54R,1.5000X1.5000*%
%ADD55C,1.6000*%
%ADD56R,1.3500X1.3500*%
%ADD57C,1.3500*%
%ADD58C,6.3500*%
%ADD59R,6.3500X6.3500*%
%ADD60R,1.5000X1.5000*%
%ADD61C,2.5400*%
%ADD62C,3.0000*%
%ADD63C,1.0000*%
%ADD64C,1.2700*%
G36*
X1467737Y1855813D02*
X1469845Y1854405D01*
X1471253Y1852297D01*
X1471715Y1849977D01*
X1471681Y1849810D01*
Y1101810D01*
X1471715Y1101643D01*
X1471253Y1099323D01*
X1469845Y1097215D01*
X1467737Y1095807D01*
X1465417Y1095345D01*
X1465250Y1095379D01*
X1425250D01*
X1425083Y1095345D01*
X1422763Y1095807D01*
X1420655Y1097215D01*
X1419247Y1099323D01*
X1418785Y1101643D01*
X1418819Y1101810D01*
Y1146810D01*
X1418866D01*
X1418403Y1150334D01*
X1417042Y1153618D01*
X1414878Y1156438D01*
X1412058Y1158602D01*
X1408774Y1159962D01*
X1406960Y1160201D01*
X1406721Y1160361D01*
X1405250Y1160654D01*
X1402640D01*
Y1171828D01*
X1392600D01*
X1382560D01*
Y1160654D01*
X1377200D01*
Y1187578D01*
X1377200Y1187578D01*
X1377200D01*
X1376992Y1188848D01*
X1388273Y1200130D01*
X1389047Y1201288D01*
X1389319Y1202653D01*
Y1214266D01*
X1389960Y1215270D01*
X1393250D01*
Y1222810D01*
Y1230350D01*
X1389960D01*
Y1230310D01*
X1381500D01*
Y1230310D01*
X1371000D01*
Y1215310D01*
X1372681D01*
Y1200288D01*
X1370772Y1198379D01*
X1360201D01*
X1359603Y1199499D01*
X1359945Y1200012D01*
X1360353Y1202060D01*
Y1211560D01*
X1359945Y1213608D01*
X1359584Y1214150D01*
X1360182Y1215270D01*
X1366540D01*
Y1220810D01*
X1361250D01*
Y1224810D01*
X1366540D01*
Y1230350D01*
X1366496D01*
X1366010Y1231523D01*
X1368728Y1234241D01*
X1389250D01*
X1390616Y1234513D01*
X1391773Y1235287D01*
X1396773Y1240287D01*
X1397547Y1241444D01*
X1397819Y1242810D01*
X1400500D01*
Y1257810D01*
X1390000D01*
Y1256381D01*
X1388730Y1256255D01*
X1388547Y1257176D01*
X1387773Y1258333D01*
X1380773Y1265333D01*
X1379616Y1266107D01*
X1378250Y1266379D01*
X1345385D01*
X1341709Y1270054D01*
X1342180Y1271087D01*
X1342318Y1271241D01*
X1390772D01*
X1393886Y1268127D01*
X1393954Y1267787D01*
X1394727Y1266629D01*
X1416470Y1244887D01*
X1417628Y1244113D01*
X1418993Y1243841D01*
X1431363D01*
X1432078Y1242115D01*
X1433761Y1239921D01*
X1435955Y1238238D01*
X1438509Y1237180D01*
X1441250Y1236819D01*
X1443991Y1237180D01*
X1446545Y1238238D01*
X1447542Y1239003D01*
X1448681Y1238442D01*
Y1234488D01*
X1445718Y1231525D01*
X1443991Y1232240D01*
X1441250Y1232601D01*
X1438509Y1232240D01*
X1435955Y1231182D01*
X1433761Y1229499D01*
X1432078Y1227305D01*
X1431020Y1224751D01*
X1430659Y1222010D01*
X1431020Y1219269D01*
X1432078Y1216715D01*
X1433761Y1214521D01*
X1435955Y1212838D01*
X1438509Y1211780D01*
X1441250Y1211419D01*
X1443991Y1211780D01*
X1446545Y1212838D01*
X1448739Y1214521D01*
X1450422Y1216715D01*
X1451480Y1219269D01*
X1451841Y1222010D01*
X1451480Y1224751D01*
X1450764Y1226478D01*
X1452508Y1228221D01*
X1453681Y1227735D01*
Y1188688D01*
X1445718Y1180724D01*
X1443991Y1181440D01*
X1441250Y1181801D01*
X1438509Y1181440D01*
X1435955Y1180382D01*
X1433761Y1178699D01*
X1432078Y1176505D01*
X1431020Y1173951D01*
X1430659Y1171210D01*
X1431020Y1168469D01*
X1432078Y1165915D01*
X1433761Y1163721D01*
X1435955Y1162038D01*
X1438509Y1160980D01*
X1441250Y1160619D01*
X1443991Y1160980D01*
X1446545Y1162038D01*
X1448739Y1163721D01*
X1450422Y1165915D01*
X1451480Y1168469D01*
X1451841Y1171210D01*
X1451480Y1173951D01*
X1450764Y1175678D01*
X1459773Y1184687D01*
X1460547Y1185844D01*
X1460819Y1187210D01*
Y1253170D01*
X1461032Y1253259D01*
X1462599Y1254461D01*
X1463801Y1256028D01*
X1464557Y1257852D01*
X1464815Y1259810D01*
X1464557Y1261768D01*
X1463801Y1263592D01*
X1462599Y1265159D01*
X1461032Y1266361D01*
X1459208Y1267117D01*
X1457250Y1267375D01*
X1455292Y1267117D01*
X1453468Y1266361D01*
X1451901Y1265159D01*
X1450699Y1263592D01*
X1449943Y1261768D01*
X1449867Y1261192D01*
X1448526Y1260737D01*
X1446930Y1262333D01*
X1446847Y1262389D01*
X1446756Y1262767D01*
X1446879Y1263895D01*
X1448739Y1265321D01*
X1450422Y1267515D01*
X1451480Y1270069D01*
X1451841Y1272810D01*
X1451480Y1275551D01*
X1450422Y1278105D01*
X1448739Y1280299D01*
X1446545Y1281982D01*
X1444819Y1282697D01*
Y1318170D01*
X1445032Y1318259D01*
X1446599Y1319461D01*
X1447801Y1321028D01*
X1448325Y1322292D01*
X1449220Y1322924D01*
X1449857Y1322993D01*
X1451500Y1322666D01*
X1454250D01*
Y1330810D01*
Y1338954D01*
X1451500D01*
X1451167Y1338887D01*
X1450541Y1340058D01*
X1453192Y1342709D01*
X1460998D01*
X1463047Y1343116D01*
X1464783Y1344276D01*
X1465944Y1346013D01*
X1466351Y1348062D01*
Y1353562D01*
X1465944Y1355610D01*
X1464783Y1357346D01*
X1463047Y1358507D01*
X1460998Y1358914D01*
X1453192D01*
X1450110Y1361997D01*
X1450596Y1363170D01*
X1453250D01*
Y1368710D01*
Y1374250D01*
X1446819D01*
Y1375910D01*
X1466250D01*
Y1386910D01*
X1446819D01*
Y1388570D01*
X1453250D01*
Y1394110D01*
Y1399650D01*
X1446819D01*
Y1401310D01*
X1466250D01*
Y1412310D01*
X1444250D01*
Y1410180D01*
X1443884Y1410107D01*
X1442727Y1409333D01*
X1440727Y1407333D01*
X1439953Y1406176D01*
X1439681Y1404810D01*
Y1381207D01*
X1438411Y1380695D01*
X1409773Y1409333D01*
X1408616Y1410107D01*
X1407750Y1410279D01*
Y1412310D01*
X1385750D01*
Y1410379D01*
X1385250D01*
X1383884Y1410107D01*
X1382727Y1409333D01*
X1374727Y1401333D01*
X1373631Y1401116D01*
X1373050Y1401504D01*
X1371002Y1401911D01*
X1361502D01*
X1359453Y1401504D01*
X1357717Y1400343D01*
X1357422Y1400295D01*
X1356032Y1401361D01*
X1354208Y1402117D01*
X1352250Y1402375D01*
X1350292Y1402117D01*
X1348468Y1401361D01*
X1346901Y1400159D01*
X1345699Y1398592D01*
X1344943Y1396768D01*
X1344685Y1394810D01*
X1344943Y1392852D01*
X1345699Y1391028D01*
X1346901Y1389461D01*
X1348468Y1388259D01*
X1350292Y1387503D01*
X1352250Y1387245D01*
X1354208Y1387503D01*
X1356032Y1388259D01*
X1357186Y1388068D01*
X1357717Y1387274D01*
X1359453Y1386113D01*
X1361502Y1385706D01*
X1366681D01*
Y1383879D01*
X1364281D01*
X1363000Y1384133D01*
X1350000D01*
X1348537Y1383842D01*
X1347296Y1383014D01*
X1346468Y1381773D01*
X1346177Y1380310D01*
X1346468Y1378847D01*
X1347160Y1377810D01*
X1346468Y1376773D01*
X1346177Y1375310D01*
X1346468Y1373847D01*
X1347160Y1372810D01*
X1346468Y1371773D01*
X1346177Y1370310D01*
X1346468Y1368847D01*
X1347160Y1367810D01*
X1346468Y1366773D01*
X1346177Y1365310D01*
X1346468Y1363847D01*
X1347160Y1362810D01*
X1346468Y1361773D01*
X1346177Y1360310D01*
X1346468Y1358847D01*
X1347160Y1357810D01*
X1346468Y1356773D01*
X1346177Y1355310D01*
X1346468Y1353847D01*
X1347160Y1352810D01*
X1346468Y1351773D01*
X1346177Y1350310D01*
X1346468Y1348847D01*
X1347160Y1347810D01*
X1346468Y1346773D01*
X1346177Y1345310D01*
X1346468Y1343847D01*
X1347160Y1342810D01*
X1346468Y1341773D01*
X1346177Y1340310D01*
X1346468Y1338847D01*
X1347160Y1337810D01*
X1346468Y1336773D01*
X1346177Y1335310D01*
X1346468Y1333847D01*
X1347160Y1332810D01*
X1346468Y1331773D01*
X1346177Y1330310D01*
X1346468Y1328847D01*
X1347160Y1327810D01*
X1346468Y1326773D01*
X1346177Y1325310D01*
X1346468Y1323847D01*
X1347160Y1322810D01*
X1346468Y1321773D01*
X1346177Y1320310D01*
X1346468Y1318847D01*
X1347136Y1317846D01*
X1346778Y1317310D01*
X1347739D01*
X1348537Y1316777D01*
X1350000Y1316486D01*
X1356500D01*
Y1314134D01*
X1350000D01*
X1348537Y1313843D01*
X1347739Y1313310D01*
X1346778D01*
X1347136Y1312774D01*
X1346468Y1311773D01*
X1346177Y1310310D01*
X1346468Y1308847D01*
X1347160Y1307810D01*
X1346468Y1306773D01*
X1346177Y1305310D01*
X1346468Y1303847D01*
X1347296Y1302607D01*
X1348537Y1301778D01*
X1350000Y1301487D01*
X1363000D01*
X1364281Y1301741D01*
X1367272D01*
X1370032Y1298982D01*
X1369943Y1298768D01*
X1369685Y1296810D01*
X1369943Y1294852D01*
X1370699Y1293028D01*
X1371901Y1291461D01*
X1373468Y1290259D01*
X1375292Y1289503D01*
X1377250Y1289245D01*
X1379208Y1289503D01*
X1381032Y1290259D01*
X1381877Y1290907D01*
X1383147Y1290654D01*
Y1289810D01*
X1383555Y1287762D01*
X1384715Y1286025D01*
X1386452Y1284865D01*
X1388500Y1284458D01*
X1394000D01*
X1396048Y1284865D01*
X1396562Y1285208D01*
X1397682Y1284610D01*
Y1276084D01*
X1396509Y1275598D01*
X1394773Y1277333D01*
X1393616Y1278107D01*
X1392250Y1278379D01*
X1343728D01*
X1342320Y1279787D01*
X1342573Y1281060D01*
Y1294060D01*
X1342282Y1295523D01*
X1341454Y1296764D01*
X1340213Y1297592D01*
X1338750Y1297883D01*
X1337287Y1297592D01*
X1336286Y1296924D01*
X1335750Y1297282D01*
Y1296321D01*
X1335217Y1295523D01*
X1334926Y1294060D01*
Y1287560D01*
X1332574D01*
Y1294060D01*
X1332283Y1295523D01*
X1331750Y1296321D01*
Y1297282D01*
X1331214Y1296924D01*
X1330213Y1297592D01*
X1328750Y1297883D01*
X1327287Y1297592D01*
X1326250Y1296900D01*
X1325213Y1297592D01*
X1323750Y1297883D01*
X1322287Y1297592D01*
X1321250Y1296900D01*
X1320213Y1297592D01*
X1318750Y1297883D01*
X1317287Y1297592D01*
X1316250Y1296900D01*
X1315213Y1297592D01*
X1313750Y1297883D01*
X1312287Y1297592D01*
X1311250Y1296900D01*
X1310213Y1297592D01*
X1308750Y1297883D01*
X1307287Y1297592D01*
X1306250Y1296900D01*
X1305213Y1297592D01*
X1303750Y1297883D01*
X1302287Y1297592D01*
X1301250Y1296900D01*
X1300213Y1297592D01*
X1298750Y1297883D01*
X1297287Y1297592D01*
X1296250Y1296900D01*
X1295213Y1297592D01*
X1293750Y1297883D01*
X1292287Y1297592D01*
X1291250Y1296900D01*
X1290213Y1297592D01*
X1288750Y1297883D01*
X1287287Y1297592D01*
X1286250Y1296900D01*
X1285213Y1297592D01*
X1283750Y1297883D01*
X1282287Y1297592D01*
X1281250Y1296900D01*
X1280213Y1297592D01*
X1278750Y1297883D01*
X1277287Y1297592D01*
X1276286Y1296924D01*
X1275750Y1297282D01*
Y1296321D01*
X1275217Y1295523D01*
X1274926Y1294060D01*
Y1287560D01*
X1272574D01*
Y1294060D01*
X1272283Y1295523D01*
X1271750Y1296321D01*
Y1297282D01*
X1271214Y1296924D01*
X1270213Y1297592D01*
X1268750Y1297883D01*
X1267287Y1297592D01*
X1266250Y1296900D01*
X1265213Y1297592D01*
X1263750Y1297883D01*
X1262287Y1297592D01*
X1261046Y1296764D01*
X1260218Y1295523D01*
X1259927Y1294060D01*
Y1281060D01*
X1260218Y1279597D01*
X1261046Y1278356D01*
X1262106Y1277649D01*
X1262072Y1276900D01*
X1261895Y1276379D01*
X1233728D01*
X1208773Y1301333D01*
X1208053Y1301815D01*
X1207531Y1303320D01*
X1207983Y1303996D01*
X1208394Y1306060D01*
Y1308810D01*
X1200250D01*
X1192106D01*
Y1306060D01*
X1192517Y1303996D01*
X1192849Y1303499D01*
X1192251Y1302379D01*
X1181228D01*
X1158039Y1325568D01*
X1158525Y1326741D01*
X1234960D01*
X1235766Y1325760D01*
X1235676Y1325310D01*
X1235968Y1323847D01*
X1236660Y1322810D01*
X1235968Y1321773D01*
X1235676Y1320310D01*
X1235968Y1318847D01*
X1235377Y1317445D01*
X1235032Y1317361D01*
X1233208Y1318117D01*
X1231250Y1318375D01*
X1229292Y1318117D01*
X1228000Y1317582D01*
X1227947Y1317610D01*
X1226786Y1319347D01*
X1225050Y1320507D01*
X1223001Y1320914D01*
X1217502D01*
X1215453Y1320507D01*
X1213717Y1319347D01*
X1212556Y1317610D01*
X1212149Y1315562D01*
Y1306062D01*
X1212556Y1304013D01*
X1213717Y1302277D01*
X1215453Y1301116D01*
X1217502Y1300709D01*
X1223001D01*
X1225050Y1301116D01*
X1226786Y1302277D01*
X1227947Y1304013D01*
X1227996Y1304040D01*
X1229292Y1303503D01*
X1231250Y1303245D01*
X1233208Y1303503D01*
X1234624Y1304090D01*
X1235570Y1303919D01*
X1236176Y1303535D01*
X1236796Y1302607D01*
X1238037Y1301778D01*
X1239500Y1301487D01*
X1252500D01*
X1253963Y1301778D01*
X1255204Y1302607D01*
X1256032Y1303847D01*
X1256323Y1305310D01*
X1256032Y1306773D01*
X1255340Y1307810D01*
X1256032Y1308847D01*
X1256323Y1310310D01*
X1256032Y1311773D01*
X1255340Y1312810D01*
X1256032Y1313847D01*
X1256323Y1315310D01*
X1256032Y1316773D01*
X1255340Y1317810D01*
X1256032Y1318847D01*
X1256323Y1320310D01*
X1256032Y1321773D01*
X1255340Y1322810D01*
X1256032Y1323847D01*
X1256323Y1325310D01*
X1256032Y1326773D01*
X1255340Y1327810D01*
X1256032Y1328847D01*
X1256323Y1330310D01*
X1256032Y1331773D01*
X1255340Y1332810D01*
X1256032Y1333847D01*
X1256323Y1335310D01*
X1256032Y1336773D01*
X1255364Y1337774D01*
X1255722Y1338310D01*
X1254761D01*
X1253963Y1338843D01*
X1252500Y1339134D01*
X1246000D01*
Y1341486D01*
X1252500D01*
X1253963Y1341777D01*
X1254761Y1342310D01*
X1255722D01*
X1255364Y1342846D01*
X1256032Y1343847D01*
X1256323Y1345310D01*
X1256032Y1346773D01*
X1255340Y1347810D01*
X1256032Y1348847D01*
X1256323Y1350310D01*
X1256032Y1351773D01*
X1255340Y1352810D01*
X1256032Y1353847D01*
X1256323Y1355310D01*
X1256032Y1356773D01*
X1255340Y1357810D01*
X1256032Y1358847D01*
X1256323Y1360310D01*
X1256032Y1361773D01*
X1255340Y1362810D01*
X1256032Y1363847D01*
X1256323Y1365310D01*
X1256032Y1366773D01*
X1255340Y1367810D01*
X1256032Y1368847D01*
X1256323Y1370310D01*
X1256032Y1371773D01*
X1255340Y1372810D01*
X1256032Y1373847D01*
X1256323Y1375310D01*
X1256032Y1376773D01*
X1255340Y1377810D01*
X1256032Y1378847D01*
X1256323Y1380310D01*
X1256032Y1381773D01*
X1255204Y1383014D01*
X1253963Y1383842D01*
X1252500Y1384133D01*
X1239500D01*
X1239061Y1384046D01*
X1237819Y1385288D01*
Y1406241D01*
X1259041D01*
X1260030Y1405078D01*
X1259927Y1404560D01*
Y1391560D01*
X1260218Y1390097D01*
X1261046Y1388857D01*
X1262287Y1388028D01*
X1263750Y1387737D01*
X1265213Y1388028D01*
X1266214Y1388696D01*
X1266750Y1388338D01*
Y1389299D01*
X1267283Y1390097D01*
X1267574Y1391560D01*
Y1398060D01*
X1269926D01*
Y1391560D01*
X1270217Y1390097D01*
X1270750Y1389299D01*
Y1388338D01*
X1271286Y1388696D01*
X1272287Y1388028D01*
X1273750Y1387737D01*
X1275213Y1388028D01*
X1276214Y1388696D01*
X1276750Y1388338D01*
Y1389299D01*
X1277283Y1390097D01*
X1277574Y1391560D01*
Y1398060D01*
X1279926D01*
Y1391560D01*
X1280217Y1390097D01*
X1280750Y1389299D01*
Y1388338D01*
X1281286Y1388696D01*
X1282287Y1388028D01*
X1283750Y1387737D01*
X1285213Y1388028D01*
X1286214Y1388696D01*
X1286750Y1388338D01*
Y1389299D01*
X1287283Y1390097D01*
X1287574Y1391560D01*
Y1398060D01*
X1290750D01*
Y1388338D01*
X1291250Y1388672D01*
X1291750Y1388338D01*
Y1398060D01*
X1294926D01*
Y1391560D01*
X1295217Y1390097D01*
X1295750Y1389299D01*
Y1388338D01*
X1296286Y1388696D01*
X1297287Y1388028D01*
X1298750Y1387737D01*
X1300213Y1388028D01*
X1301250Y1388720D01*
X1302287Y1388028D01*
X1303750Y1387737D01*
X1305213Y1388028D01*
X1306250Y1388720D01*
X1307287Y1388028D01*
X1308750Y1387737D01*
X1310213Y1388028D01*
X1311250Y1388720D01*
X1312287Y1388028D01*
X1313750Y1387737D01*
X1315213Y1388028D01*
X1316214Y1388696D01*
X1316750Y1388338D01*
Y1389299D01*
X1317283Y1390097D01*
X1317574Y1391560D01*
Y1398060D01*
X1319926D01*
Y1391560D01*
X1320217Y1390097D01*
X1320750Y1389299D01*
Y1388338D01*
X1321286Y1388696D01*
X1322287Y1388028D01*
X1323750Y1387737D01*
X1325213Y1388028D01*
X1326250Y1388720D01*
X1327287Y1388028D01*
X1328750Y1387737D01*
X1330213Y1388028D01*
X1331250Y1388720D01*
X1332287Y1388028D01*
X1333750Y1387737D01*
X1335213Y1388028D01*
X1336214Y1388696D01*
X1336750Y1388338D01*
Y1389299D01*
X1337283Y1390097D01*
X1337574Y1391560D01*
Y1398060D01*
X1338750D01*
Y1400060D01*
X1342614D01*
Y1404560D01*
X1342320Y1406039D01*
X1341482Y1407292D01*
X1341276Y1407430D01*
X1341152Y1408694D01*
X1360623Y1428166D01*
X1366143D01*
X1367233Y1426535D01*
X1370544Y1423224D01*
X1370018Y1421954D01*
X1368250D01*
Y1415810D01*
X1376394D01*
Y1416560D01*
X1375983Y1418624D01*
X1375173Y1419836D01*
X1375648Y1421220D01*
X1375655Y1421227D01*
X1376955Y1421486D01*
X1378692Y1422646D01*
X1384212Y1428166D01*
X1394827D01*
X1396193Y1428437D01*
X1397351Y1429211D01*
X1406872Y1438732D01*
X1408094Y1438226D01*
X1410574Y1437899D01*
X1413054Y1438226D01*
X1415365Y1439183D01*
X1417350Y1440706D01*
X1418872Y1442690D01*
X1419830Y1445001D01*
X1420156Y1447481D01*
X1419830Y1449961D01*
X1418872Y1452272D01*
X1417350Y1454257D01*
X1415365Y1455779D01*
X1414143Y1456286D01*
Y1465793D01*
X1421672Y1473323D01*
X1422715Y1472626D01*
X1424763Y1472219D01*
X1426812Y1472626D01*
X1428549Y1473787D01*
X1435266Y1480504D01*
X1436426Y1482241D01*
X1436834Y1484289D01*
X1436426Y1486338D01*
X1435266Y1488074D01*
X1431377Y1491963D01*
X1429640Y1493124D01*
X1427592Y1493531D01*
X1425544Y1493124D01*
X1425365Y1493005D01*
X1424450Y1493920D01*
X1424570Y1494100D01*
X1424977Y1496148D01*
X1424570Y1498197D01*
X1423409Y1499933D01*
X1419520Y1503822D01*
X1417784Y1504983D01*
X1415735Y1505390D01*
X1413687Y1504983D01*
X1411950Y1503822D01*
X1405233Y1497105D01*
X1404073Y1495368D01*
X1403665Y1493320D01*
X1404073Y1491272D01*
X1404769Y1490229D01*
X1400238Y1485698D01*
X1384731D01*
X1384224Y1486920D01*
X1382701Y1488905D01*
X1380717Y1490428D01*
X1378406Y1491385D01*
X1375926Y1491711D01*
X1373446Y1491385D01*
X1371135Y1490428D01*
X1369151Y1488905D01*
X1367628Y1486920D01*
X1366671Y1484609D01*
X1366344Y1482129D01*
X1366671Y1479649D01*
X1367177Y1478427D01*
X1359656Y1470906D01*
X1358882Y1469748D01*
X1358610Y1468383D01*
Y1453767D01*
X1353091Y1448247D01*
X1351930Y1446511D01*
X1351523Y1444462D01*
X1351930Y1442414D01*
X1353091Y1440677D01*
X1355238Y1438530D01*
X1346528Y1429821D01*
X1345354Y1430307D01*
Y1432558D01*
X1344947Y1434607D01*
X1343787Y1436344D01*
X1342050Y1437504D01*
X1340002Y1437911D01*
X1330502D01*
X1328453Y1437504D01*
X1326717Y1436344D01*
X1326386Y1435849D01*
X1325116D01*
X1324785Y1436345D01*
X1323048Y1437505D01*
X1321000Y1437913D01*
X1311500D01*
X1309590Y1437533D01*
X1309205Y1437624D01*
X1308320Y1438096D01*
Y1441481D01*
X1309118Y1441907D01*
X1309590Y1442046D01*
X1311500Y1441666D01*
X1314250D01*
Y1449810D01*
Y1457954D01*
X1311500D01*
X1309590Y1457574D01*
X1309118Y1457713D01*
X1308320Y1458139D01*
Y1462210D01*
X1385274Y1539164D01*
X1386022Y1538810D01*
X1405450D01*
X1424384D01*
X1424213Y1540542D01*
X1423125Y1544131D01*
X1421357Y1547439D01*
X1418978Y1550338D01*
X1417597Y1551471D01*
X1418052Y1552741D01*
X1424547D01*
X1425913Y1553012D01*
X1427071Y1553786D01*
X1448560Y1575276D01*
X1457066D01*
X1461584Y1579793D01*
Y1588828D01*
X1457066Y1593346D01*
X1448031D01*
X1443514Y1588828D01*
Y1580500D01*
X1442730Y1579890D01*
X1441584Y1580475D01*
Y1588828D01*
X1437066Y1593346D01*
X1428031D01*
X1423514Y1588828D01*
Y1579793D01*
X1428031Y1575276D01*
X1428252D01*
Y1570717D01*
X1421413Y1563878D01*
X1395716D01*
X1394350Y1563606D01*
X1393193Y1562833D01*
X1298228Y1467868D01*
X1297455Y1466711D01*
X1297183Y1465345D01*
Y1458814D01*
X1295913Y1457772D01*
X1295000Y1457954D01*
X1292250D01*
Y1449810D01*
X1288250D01*
Y1457954D01*
X1285500D01*
X1283436Y1457543D01*
X1281686Y1456374D01*
X1281014Y1455367D01*
X1279486D01*
X1278814Y1456374D01*
X1277064Y1457543D01*
X1275000Y1457954D01*
X1272250D01*
Y1449810D01*
X1268250D01*
Y1457954D01*
X1265500D01*
X1263436Y1457543D01*
X1261686Y1456374D01*
X1260990Y1455332D01*
X1259462D01*
X1258785Y1456345D01*
X1257048Y1457505D01*
X1255000Y1457913D01*
X1245500D01*
X1243452Y1457505D01*
X1241715Y1456345D01*
X1240555Y1454608D01*
X1240147Y1452560D01*
Y1447060D01*
X1240555Y1445012D01*
X1241715Y1443275D01*
X1243452Y1442115D01*
X1245500Y1441707D01*
X1253306D01*
X1256006Y1439008D01*
X1255380Y1437837D01*
X1255000Y1437913D01*
X1245500D01*
X1243452Y1437505D01*
X1241715Y1436345D01*
X1240555Y1434608D01*
X1240147Y1432560D01*
Y1427060D01*
X1240555Y1425012D01*
X1241715Y1423275D01*
X1243452Y1422115D01*
X1245500Y1421707D01*
X1255000D01*
X1255828Y1421872D01*
X1263970Y1413729D01*
X1263161Y1412743D01*
X1262616Y1413107D01*
X1261250Y1413379D01*
X1238728D01*
X1228818Y1423288D01*
Y1561810D01*
X1228547Y1563176D01*
X1227773Y1564333D01*
X1224468Y1567638D01*
X1224557Y1567852D01*
X1224815Y1569810D01*
X1224557Y1571768D01*
X1223801Y1573592D01*
X1222599Y1575159D01*
X1221032Y1576361D01*
X1219208Y1577117D01*
X1217250Y1577375D01*
X1215292Y1577117D01*
X1213468Y1576361D01*
X1211901Y1575159D01*
X1210699Y1573592D01*
X1209943Y1571768D01*
X1209685Y1569810D01*
X1209943Y1567852D01*
X1210699Y1566028D01*
X1211901Y1564461D01*
X1211922Y1564445D01*
Y1563174D01*
X1211901Y1563158D01*
X1210699Y1561591D01*
X1209943Y1559767D01*
X1209685Y1557809D01*
X1209943Y1555851D01*
X1210699Y1554027D01*
X1211901Y1552460D01*
X1213467Y1551258D01*
X1215292Y1550502D01*
X1217250Y1550244D01*
X1217681Y1549866D01*
Y1420153D01*
X1217953Y1418788D01*
X1218727Y1417630D01*
X1230681Y1405675D01*
Y1383810D01*
X1230953Y1382444D01*
X1231727Y1381287D01*
X1235227Y1377787D01*
X1235849Y1377371D01*
X1235968Y1376773D01*
X1235676Y1375310D01*
X1235968Y1373847D01*
X1236331Y1373302D01*
X1235898Y1371909D01*
X1235570Y1371701D01*
X1234624Y1371530D01*
X1233208Y1372117D01*
X1231250Y1372375D01*
X1229292Y1372117D01*
X1227468Y1371361D01*
X1226442Y1370574D01*
X1225050Y1371504D01*
X1223002Y1371911D01*
X1213502D01*
X1211453Y1371504D01*
X1209717Y1370343D01*
X1208556Y1368607D01*
X1208149Y1366559D01*
Y1361059D01*
X1208556Y1359010D01*
X1209717Y1357274D01*
X1211453Y1356113D01*
X1213502Y1355706D01*
X1223002D01*
X1225050Y1356113D01*
X1226787Y1357274D01*
X1227442Y1358255D01*
X1227468Y1358259D01*
X1229292Y1357503D01*
X1231250Y1357245D01*
X1233208Y1357503D01*
X1235032Y1358259D01*
X1235377Y1358175D01*
X1235968Y1356773D01*
X1235676Y1355310D01*
X1235968Y1353847D01*
X1236660Y1352810D01*
X1235968Y1351773D01*
X1235676Y1350310D01*
X1235968Y1348847D01*
X1236660Y1347810D01*
X1235968Y1346773D01*
X1235676Y1345310D01*
X1235968Y1343847D01*
X1236636Y1342846D01*
X1235930Y1341789D01*
X1235636Y1340310D01*
X1235725Y1339860D01*
X1234920Y1338879D01*
X1091228D01*
X1088470Y1341637D01*
X1088956Y1342810D01*
X1103450D01*
Y1361367D01*
X1104720Y1361893D01*
X1109718Y1356895D01*
X1109107Y1355421D01*
X1108764Y1352810D01*
X1109107Y1350199D01*
X1110115Y1347767D01*
X1111718Y1345678D01*
X1113807Y1344075D01*
X1116239Y1343067D01*
X1118850Y1342724D01*
X1121460Y1343067D01*
X1123893Y1344075D01*
X1125982Y1345678D01*
X1127585Y1347767D01*
X1128593Y1350199D01*
X1128936Y1352810D01*
X1128593Y1355421D01*
X1127585Y1357853D01*
X1125982Y1359942D01*
X1123893Y1361545D01*
X1121460Y1362553D01*
X1118850Y1362896D01*
X1116239Y1362553D01*
X1114765Y1361942D01*
X1107319Y1369387D01*
Y1370979D01*
X1108301Y1371784D01*
X1108751Y1371695D01*
X1110230Y1371989D01*
X1111287Y1372695D01*
X1112288Y1372027D01*
X1113751Y1371736D01*
X1115214Y1372027D01*
X1116454Y1372856D01*
X1117283Y1374096D01*
X1117574Y1375559D01*
Y1385059D01*
X1117319Y1386340D01*
Y1387034D01*
X1118493Y1387521D01*
X1125728Y1380285D01*
X1126886Y1379511D01*
X1128252Y1379240D01*
X1137146D01*
Y1378058D01*
X1137553Y1376010D01*
X1138714Y1374273D01*
X1140450Y1373113D01*
X1142498Y1372706D01*
X1147999D01*
X1150047Y1373113D01*
X1150560Y1373456D01*
X1151680Y1372857D01*
Y1365287D01*
X1148335Y1361942D01*
X1146861Y1362553D01*
X1144250Y1362896D01*
X1141639Y1362553D01*
X1139207Y1361545D01*
X1137118Y1359942D01*
X1135515Y1357853D01*
X1134507Y1355421D01*
X1134164Y1352810D01*
X1134507Y1350199D01*
X1135515Y1347767D01*
X1137118Y1345678D01*
X1139207Y1344075D01*
X1141639Y1343067D01*
X1144250Y1342724D01*
X1146861Y1343067D01*
X1149293Y1344075D01*
X1151382Y1345678D01*
X1152985Y1347767D01*
X1153993Y1350199D01*
X1154336Y1352810D01*
X1153993Y1355421D01*
X1153382Y1356895D01*
X1157772Y1361285D01*
X1158545Y1362443D01*
X1158817Y1363808D01*
Y1372812D01*
X1159937Y1373410D01*
X1160436Y1373077D01*
X1162500Y1372666D01*
X1163250D01*
Y1382810D01*
Y1392954D01*
X1162500D01*
X1160436Y1392543D01*
X1159554Y1391954D01*
X1157844Y1392226D01*
X1157772Y1392335D01*
X1152540Y1397567D01*
X1153026Y1398741D01*
X1184351D01*
X1185717Y1399012D01*
X1186875Y1399786D01*
X1205773Y1418684D01*
X1206547Y1419842D01*
X1206819Y1421208D01*
Y1574048D01*
X1242012Y1609241D01*
X1247147D01*
Y1608060D01*
X1247555Y1606012D01*
X1248715Y1604275D01*
X1250452Y1603115D01*
X1252500Y1602707D01*
X1258000D01*
X1260048Y1603115D01*
X1261785Y1604275D01*
X1262945Y1606012D01*
X1263353Y1608060D01*
Y1617560D01*
X1262945Y1619608D01*
X1261785Y1621345D01*
X1260048Y1622505D01*
X1258000Y1622913D01*
X1252500D01*
X1251655Y1622745D01*
X1251029Y1623915D01*
X1266356Y1639241D01*
X1325220D01*
X1326586Y1639513D01*
X1327744Y1640287D01*
X1344773Y1657316D01*
X1345547Y1658474D01*
X1345819Y1659839D01*
Y1764476D01*
X1356731D01*
Y1779060D01*
X1357463Y1779742D01*
X1358715Y1779791D01*
X1360452Y1778631D01*
X1362500Y1778223D01*
X1372000D01*
X1374048Y1778631D01*
X1375785Y1779791D01*
X1376945Y1781528D01*
X1377353Y1783576D01*
Y1789076D01*
X1376945Y1791125D01*
X1375785Y1792861D01*
X1374048Y1794021D01*
X1372000Y1794429D01*
X1362500D01*
X1360452Y1794021D01*
X1358715Y1792861D01*
X1357555Y1791125D01*
X1357258Y1789631D01*
X1357215Y1789623D01*
X1356058Y1788849D01*
X1349684Y1782476D01*
X1334731D01*
Y1764476D01*
X1338681D01*
Y1725585D01*
X1337508Y1725099D01*
X1319782Y1742825D01*
X1320393Y1744299D01*
X1320736Y1746910D01*
X1320393Y1749521D01*
X1319385Y1751953D01*
X1317782Y1754042D01*
X1315693Y1755645D01*
X1313260Y1756653D01*
X1310650Y1756996D01*
X1308040Y1756653D01*
X1305607Y1755645D01*
X1303518Y1754042D01*
X1301915Y1751953D01*
X1300907Y1749521D01*
X1300564Y1746910D01*
X1300907Y1744299D01*
X1301915Y1741867D01*
X1303518Y1739778D01*
X1305607Y1738175D01*
X1308040Y1737167D01*
X1310650Y1736824D01*
X1313260Y1737167D01*
X1314735Y1737778D01*
X1334681Y1717832D01*
Y1704185D01*
X1333508Y1703699D01*
X1319782Y1717425D01*
X1320393Y1718900D01*
X1320736Y1721510D01*
X1320393Y1724120D01*
X1319385Y1726553D01*
X1317782Y1728642D01*
X1315693Y1730245D01*
X1313260Y1731253D01*
X1310650Y1731596D01*
X1308040Y1731253D01*
X1305607Y1730245D01*
X1303518Y1728642D01*
X1301915Y1726553D01*
X1300907Y1724120D01*
X1300564Y1721510D01*
X1300907Y1718900D01*
X1301915Y1716467D01*
X1303518Y1714378D01*
X1305607Y1712775D01*
X1308040Y1711767D01*
X1310650Y1711424D01*
X1313260Y1711767D01*
X1314735Y1712378D01*
X1330681Y1696432D01*
Y1682785D01*
X1329508Y1682299D01*
X1319782Y1692025D01*
X1320393Y1693499D01*
X1320736Y1696110D01*
X1320393Y1698721D01*
X1319385Y1701153D01*
X1317782Y1703242D01*
X1315693Y1704845D01*
X1313260Y1705853D01*
X1310650Y1706196D01*
X1308040Y1705853D01*
X1305607Y1704845D01*
X1303518Y1703242D01*
X1301915Y1701153D01*
X1300907Y1698721D01*
X1300564Y1696110D01*
X1300907Y1693499D01*
X1301915Y1691067D01*
X1303518Y1688978D01*
X1305607Y1687375D01*
X1308040Y1686367D01*
X1310650Y1686024D01*
X1313260Y1686367D01*
X1314735Y1686978D01*
X1319733Y1681980D01*
X1319207Y1680710D01*
X1300650D01*
Y1665757D01*
X1298172Y1663279D01*
X1295250D01*
Y1680710D01*
X1275250D01*
Y1663279D01*
X1269890D01*
Y1668710D01*
X1259850D01*
X1249810D01*
Y1660670D01*
X1253404D01*
X1253890Y1659497D01*
X1180727Y1586333D01*
X1179953Y1585176D01*
X1179681Y1583810D01*
Y1459656D01*
X1177567Y1457542D01*
X1176394Y1458028D01*
Y1463560D01*
X1175983Y1465624D01*
X1174814Y1467374D01*
X1173064Y1468543D01*
X1171000Y1468954D01*
X1170250D01*
Y1458810D01*
X1168250D01*
Y1456810D01*
X1160106D01*
Y1454060D01*
X1160517Y1451996D01*
X1161686Y1450246D01*
X1163436Y1449077D01*
X1165500Y1448666D01*
X1167032D01*
X1167518Y1447493D01*
X1165903Y1445878D01*
X1140081D01*
X1139276Y1446859D01*
X1139365Y1447309D01*
X1139276Y1447759D01*
X1140081Y1448741D01*
X1141749D01*
X1143115Y1449012D01*
X1143358Y1449174D01*
X1143450Y1449113D01*
X1145499Y1448705D01*
X1150999D01*
X1153047Y1449113D01*
X1154783Y1450273D01*
X1155944Y1452010D01*
X1156351Y1454058D01*
Y1463558D01*
X1155944Y1465607D01*
X1154783Y1467343D01*
X1153047Y1468504D01*
X1150999Y1468911D01*
X1145499D01*
X1143450Y1468504D01*
X1141713Y1467343D01*
X1140553Y1465607D01*
X1140146Y1463558D01*
Y1455878D01*
X1136782D01*
X1135501Y1456133D01*
X1126001D01*
X1124719Y1455878D01*
X1122466D01*
X1121980Y1457051D01*
X1168494Y1503566D01*
X1169489Y1505054D01*
X1169838Y1506810D01*
Y1582877D01*
X1170599Y1583461D01*
X1171801Y1585028D01*
X1172557Y1586852D01*
X1172815Y1588810D01*
X1172690Y1589761D01*
X1222781Y1639852D01*
X1223502Y1639709D01*
X1229001D01*
X1231050Y1640116D01*
X1232787Y1641277D01*
X1233947Y1643013D01*
X1234354Y1645062D01*
Y1654562D01*
X1233947Y1656610D01*
X1232787Y1658347D01*
X1231338Y1659315D01*
Y1675060D01*
X1235750D01*
Y1718560D01*
X1231338D01*
Y1737706D01*
X1232002D01*
X1234050Y1738113D01*
X1235787Y1739274D01*
X1236947Y1741010D01*
X1237355Y1743059D01*
Y1748559D01*
X1236947Y1750607D01*
X1235787Y1752344D01*
X1234050Y1753504D01*
X1232002Y1753911D01*
X1222502D01*
X1220453Y1753504D01*
X1218717Y1752344D01*
X1217556Y1750607D01*
X1217149Y1748559D01*
Y1743059D01*
X1217556Y1741010D01*
X1218717Y1739274D01*
X1220453Y1738113D01*
X1222162Y1737773D01*
Y1718560D01*
X1217750D01*
Y1675060D01*
X1222162D01*
Y1659648D01*
X1221453Y1659507D01*
X1219716Y1658347D01*
X1218556Y1656610D01*
X1218149Y1654562D01*
Y1648197D01*
X1215664Y1645712D01*
X1214394Y1646239D01*
Y1647810D01*
X1208250D01*
Y1638632D01*
X1208348Y1638396D01*
X1166201Y1596250D01*
X1165250Y1596375D01*
X1163292Y1596117D01*
X1163078Y1596029D01*
X1123773Y1635333D01*
X1122616Y1636107D01*
X1121250Y1636379D01*
X1110190D01*
X1109945Y1637608D01*
X1108785Y1639345D01*
X1107048Y1640505D01*
X1105000Y1640913D01*
X1095500D01*
X1093452Y1640505D01*
X1091715Y1639345D01*
X1090555Y1637608D01*
X1090147Y1635560D01*
Y1630060D01*
X1090428Y1628649D01*
X1089566Y1627379D01*
X1087728D01*
X1083750Y1631357D01*
Y1641252D01*
X1083785Y1641275D01*
X1084945Y1643012D01*
X1085353Y1645060D01*
Y1654560D01*
X1084945Y1656608D01*
X1083785Y1658345D01*
X1082048Y1659505D01*
X1080000Y1659913D01*
X1074500D01*
X1072452Y1659505D01*
X1070715Y1658345D01*
X1069555Y1656608D01*
X1069147Y1654560D01*
Y1645060D01*
X1069555Y1643012D01*
X1070094Y1642204D01*
X1069750Y1641560D01*
X1069750D01*
Y1627060D01*
X1077953D01*
X1080461Y1624552D01*
X1079975Y1623379D01*
X1054725D01*
X1052257Y1625847D01*
X1052743Y1627020D01*
X1055750D01*
Y1634310D01*
X1057750D01*
Y1636310D01*
X1064790D01*
Y1641600D01*
X1064790D01*
X1064461Y1642215D01*
X1064983Y1642996D01*
X1065394Y1645060D01*
Y1647810D01*
X1057250D01*
X1049106D01*
Y1645060D01*
X1049517Y1642996D01*
X1050505Y1641517D01*
X1049617Y1640560D01*
X1042111D01*
X1041549Y1641699D01*
X1041801Y1642028D01*
X1042557Y1643852D01*
X1042815Y1645810D01*
X1042557Y1647768D01*
X1041801Y1649592D01*
X1040599Y1651159D01*
X1039032Y1652361D01*
X1037208Y1653117D01*
X1035250Y1653375D01*
X1033292Y1653117D01*
X1031468Y1652361D01*
X1029901Y1651159D01*
X1028699Y1649592D01*
X1027943Y1647768D01*
X1027685Y1645810D01*
X1027943Y1643852D01*
X1028325Y1642931D01*
X1025953Y1640560D01*
X1021547D01*
X1017773Y1644333D01*
X1016616Y1645107D01*
X1015353Y1645358D01*
Y1646560D01*
X1014945Y1648608D01*
X1013923Y1650139D01*
X1014211Y1650913D01*
X1014531Y1651340D01*
X1015250Y1651245D01*
X1017208Y1651503D01*
X1019032Y1652259D01*
X1020599Y1653461D01*
X1021801Y1655028D01*
X1022557Y1656852D01*
X1022815Y1658810D01*
X1022780Y1659073D01*
X1023995Y1659576D01*
X1024872Y1658432D01*
X1026448Y1657224D01*
X1028282Y1656464D01*
X1030250Y1656205D01*
X1033250D01*
Y1666810D01*
X1022645D01*
Y1663810D01*
X1022682Y1663531D01*
X1021467Y1663028D01*
X1020599Y1664159D01*
X1019328Y1665134D01*
Y1679121D01*
X1024518Y1684310D01*
X1032980D01*
X1033250Y1684310D01*
Y1684310D01*
X1034250D01*
Y1684310D01*
X1050250D01*
Y1694241D01*
X1052610D01*
X1052699Y1694028D01*
X1053901Y1692461D01*
X1055468Y1691259D01*
X1057292Y1690503D01*
X1059250Y1690245D01*
X1061208Y1690503D01*
X1063032Y1691259D01*
X1064599Y1692461D01*
X1065801Y1694028D01*
X1066557Y1695852D01*
X1066815Y1697810D01*
X1066557Y1699768D01*
X1065801Y1701592D01*
X1064599Y1703159D01*
X1063032Y1704361D01*
X1061208Y1705117D01*
X1059250Y1705375D01*
X1057292Y1705117D01*
X1055468Y1704361D01*
X1053901Y1703159D01*
X1052699Y1701592D01*
X1052610Y1701379D01*
X1050250D01*
Y1709984D01*
X1100000D01*
Y1700060D01*
X1112011D01*
X1141506Y1670566D01*
X1142994Y1669571D01*
X1144750Y1669222D01*
X1154250D01*
Y1664810D01*
X1162660D01*
Y1659546D01*
X1162450Y1659504D01*
X1160714Y1658343D01*
X1159553Y1656607D01*
X1159146Y1654558D01*
Y1645058D01*
X1159553Y1643010D01*
X1160714Y1641273D01*
X1162450Y1640113D01*
X1164499Y1639706D01*
X1169998D01*
X1172047Y1640113D01*
X1173784Y1641273D01*
X1174944Y1643010D01*
X1175351Y1645058D01*
Y1654558D01*
X1174944Y1656607D01*
X1173784Y1658343D01*
X1172047Y1659504D01*
X1171837Y1659546D01*
Y1664810D01*
X1177250D01*
Y1682810D01*
X1154250D01*
Y1678398D01*
X1146650D01*
X1118500Y1706549D01*
Y1713579D01*
X1145906Y1740984D01*
X1164250D01*
X1166534Y1741285D01*
X1168663Y1742167D01*
X1170490Y1743569D01*
X1194645Y1767724D01*
X1204750D01*
X1207361Y1768067D01*
X1209793Y1769075D01*
X1211882Y1770678D01*
X1213485Y1772767D01*
X1214493Y1775199D01*
X1214836Y1777810D01*
Y1802915D01*
X1244906Y1832984D01*
X1319442D01*
X1334731Y1817695D01*
Y1810176D01*
X1349684D01*
X1356058Y1803803D01*
X1357215Y1803029D01*
X1357258Y1803021D01*
X1357555Y1801528D01*
X1358715Y1799791D01*
X1360452Y1798631D01*
X1362500Y1798223D01*
X1372000D01*
X1374048Y1798631D01*
X1375785Y1799791D01*
X1376945Y1801528D01*
X1377353Y1803576D01*
Y1809076D01*
X1376945Y1811125D01*
X1375785Y1812861D01*
X1374048Y1814021D01*
X1372000Y1814429D01*
X1362500D01*
X1360452Y1814021D01*
X1358715Y1812861D01*
X1357463Y1812911D01*
X1356731Y1813592D01*
Y1828176D01*
X1349212D01*
X1329338Y1848051D01*
X1327510Y1849453D01*
X1325381Y1850335D01*
X1323097Y1850636D01*
X1241250D01*
X1238966Y1850335D01*
X1236837Y1849453D01*
X1235009Y1848051D01*
X1211900Y1824941D01*
X1211882Y1824942D01*
X1209793Y1826545D01*
X1207361Y1827553D01*
X1204750Y1827896D01*
X1189750D01*
X1187140Y1827553D01*
X1184707Y1826545D01*
X1182618Y1824942D01*
X1181015Y1822853D01*
X1180007Y1820421D01*
X1179664Y1817810D01*
Y1777810D01*
X1179676Y1777717D01*
X1160594Y1758636D01*
X1142250D01*
X1139966Y1758335D01*
X1139084Y1757970D01*
X1137837Y1757453D01*
X1136009Y1756051D01*
X1107594Y1727635D01*
X1083056D01*
X1082625Y1728905D01*
X1083491Y1729569D01*
X1103491Y1749569D01*
X1104893Y1751397D01*
X1105775Y1753526D01*
X1106076Y1755810D01*
Y1767898D01*
X1107361Y1768067D01*
X1109793Y1769075D01*
X1111882Y1770678D01*
X1113485Y1772767D01*
X1114493Y1775199D01*
X1114836Y1777810D01*
Y1817810D01*
X1114493Y1820421D01*
X1113485Y1822853D01*
X1111882Y1824942D01*
X1109793Y1826545D01*
X1107361Y1827553D01*
X1104750Y1827896D01*
X1089750D01*
X1087140Y1827553D01*
X1084707Y1826545D01*
X1082618Y1824942D01*
X1081015Y1822853D01*
X1080007Y1820421D01*
X1079664Y1817810D01*
Y1777810D01*
X1080007Y1775199D01*
X1081015Y1772767D01*
X1082618Y1770678D01*
X1084707Y1769075D01*
X1087140Y1768067D01*
X1088425Y1767898D01*
Y1759466D01*
X1073594Y1744635D01*
X1005250D01*
X1002966Y1744335D01*
X1000837Y1743453D01*
X999009Y1742051D01*
X985010Y1728051D01*
X983607Y1726223D01*
X982725Y1724094D01*
X982424Y1721810D01*
Y1712508D01*
X982250Y1711310D01*
X981154Y1711310D01*
X978484D01*
X978165Y1711725D01*
X978165Y1711725D01*
X938665Y1751225D01*
X936054Y1753229D01*
X933013Y1754488D01*
X929750Y1754918D01*
X906250D01*
X902987Y1754488D01*
X899946Y1753229D01*
X897771Y1751560D01*
X897000D01*
Y1750789D01*
X895331Y1748614D01*
X894072Y1745573D01*
X893642Y1742310D01*
X894072Y1739047D01*
X895331Y1736006D01*
X897000Y1733831D01*
Y1733060D01*
X897771D01*
X899946Y1731391D01*
X902987Y1730132D01*
X906250Y1729702D01*
X924528D01*
X956642Y1697588D01*
Y1694810D01*
X957072Y1691547D01*
X958331Y1688506D01*
X960335Y1685895D01*
X962946Y1683891D01*
X965987Y1682632D01*
X969250Y1682202D01*
X969727Y1682265D01*
X970681Y1681427D01*
Y1656288D01*
X965727Y1651333D01*
X964953Y1650176D01*
X964901Y1649913D01*
X963500D01*
X961452Y1649505D01*
X959715Y1648345D01*
X958555Y1646608D01*
X958147Y1644560D01*
Y1639060D01*
X958555Y1637012D01*
X959715Y1635275D01*
X961452Y1634115D01*
X963500Y1633707D01*
X973000D01*
X975048Y1634115D01*
X976785Y1635275D01*
X977916Y1636967D01*
X978119Y1636983D01*
X979199Y1636802D01*
X979555Y1635012D01*
X980715Y1633275D01*
X981775Y1632567D01*
Y1631053D01*
X980715Y1630345D01*
X979555Y1628608D01*
X979199Y1626818D01*
X978119Y1626638D01*
X977916Y1626653D01*
X976785Y1628345D01*
X975048Y1629505D01*
X973000Y1629913D01*
X963500D01*
X961452Y1629505D01*
X959715Y1628345D01*
X958555Y1626608D01*
X958310Y1625379D01*
X937250D01*
X935884Y1625107D01*
X934727Y1624333D01*
X932992Y1622599D01*
X931819Y1623085D01*
Y1666810D01*
X931547Y1668176D01*
X930773Y1669333D01*
X869773Y1730333D01*
X868616Y1731107D01*
X867250Y1731379D01*
X823190D01*
X822945Y1732608D01*
X821785Y1734345D01*
X820048Y1735505D01*
X818000Y1735913D01*
X808500D01*
X806452Y1735505D01*
X804715Y1734345D01*
X804251Y1733651D01*
X802617Y1733490D01*
X800250Y1735857D01*
Y1742310D01*
X778250D01*
Y1731310D01*
X794097D01*
X794420Y1730880D01*
X793784Y1729610D01*
X778250D01*
Y1718610D01*
X794797D01*
X795120Y1718180D01*
X794484Y1716910D01*
X778250D01*
Y1710857D01*
X774727Y1707333D01*
X773953Y1706176D01*
X773681Y1704810D01*
Y1692807D01*
X773953Y1691441D01*
X774727Y1690284D01*
X782146Y1682864D01*
Y1675058D01*
X782553Y1673010D01*
X783714Y1671273D01*
X785450Y1670113D01*
X787499Y1669706D01*
X792999D01*
X795047Y1670113D01*
X796784Y1671273D01*
X797944Y1673010D01*
X798351Y1675058D01*
Y1684558D01*
X797944Y1686607D01*
X796784Y1688343D01*
X795047Y1689504D01*
X792999Y1689911D01*
X787499D01*
X785575Y1689529D01*
X783107Y1691997D01*
X783593Y1693170D01*
X787250D01*
Y1698710D01*
Y1704250D01*
X784433D01*
X783793Y1705520D01*
X784083Y1705910D01*
X800250D01*
Y1713439D01*
X801232Y1714245D01*
X801250Y1714241D01*
X803253D01*
X803852Y1713121D01*
X803519Y1712623D01*
X803108Y1710558D01*
Y1709808D01*
X813252D01*
X823395D01*
Y1710558D01*
X822985Y1712623D01*
X822651Y1713121D01*
X823250Y1714241D01*
X870115D01*
X907804Y1676552D01*
X907318Y1675379D01*
X892250D01*
X890884Y1675107D01*
X889727Y1674333D01*
X887499Y1672105D01*
X886328Y1672731D01*
X886394Y1673060D01*
Y1673810D01*
X878250D01*
Y1667666D01*
X881000D01*
X881329Y1667732D01*
X881955Y1666561D01*
X879306Y1663913D01*
X871500D01*
X869452Y1663505D01*
X868270Y1662716D01*
X867000Y1663387D01*
Y1664315D01*
X852500D01*
Y1650315D01*
X867000D01*
X867000Y1650315D01*
Y1650315D01*
X867713Y1649278D01*
X867715Y1649275D01*
X869452Y1648115D01*
X871500Y1647707D01*
X881000D01*
X883048Y1648115D01*
X884785Y1649275D01*
X885945Y1651012D01*
X886353Y1653060D01*
Y1658560D01*
X885970Y1660483D01*
X893728Y1668241D01*
X910458D01*
X916681Y1662018D01*
Y1562810D01*
X916953Y1561444D01*
X917727Y1560287D01*
X936727Y1541287D01*
X937884Y1540513D01*
X939250Y1540241D01*
X944688D01*
X945442Y1538971D01*
X944943Y1537768D01*
X944685Y1535810D01*
X944748Y1535333D01*
X943911Y1534379D01*
X820991D01*
X820945Y1534608D01*
X819785Y1536345D01*
X818048Y1537505D01*
X816000Y1537913D01*
X806500D01*
X804452Y1537505D01*
X802715Y1536345D01*
X802252Y1535651D01*
X800616Y1535490D01*
X798254Y1537853D01*
Y1543310D01*
X776254D01*
Y1532310D01*
X793097D01*
X793420Y1531880D01*
X792785Y1530610D01*
X776254D01*
Y1519610D01*
X795797D01*
X796120Y1519180D01*
X795484Y1517910D01*
X776254D01*
Y1511860D01*
X770727Y1506333D01*
X769953Y1505176D01*
X769681Y1503810D01*
Y1495807D01*
X769953Y1494441D01*
X770727Y1493284D01*
X780146Y1483864D01*
Y1476058D01*
X780553Y1474010D01*
X781713Y1472273D01*
X783450Y1471113D01*
X785499Y1470706D01*
X790999D01*
X793047Y1471113D01*
X794783Y1472273D01*
X795944Y1474010D01*
X796351Y1476058D01*
Y1485558D01*
X795944Y1487607D01*
X794783Y1489343D01*
X793047Y1490504D01*
X790999Y1490911D01*
X785499D01*
X783575Y1490529D01*
X781107Y1492997D01*
X781593Y1494170D01*
X785254D01*
Y1499710D01*
Y1505250D01*
X782433D01*
X781793Y1506520D01*
X782083Y1506910D01*
X798254D01*
Y1516075D01*
X799524Y1516754D01*
X799884Y1516513D01*
X801094Y1516272D01*
X801651Y1515498D01*
X801852Y1515121D01*
X801519Y1514622D01*
X801108Y1512558D01*
Y1511808D01*
X811252D01*
X821395D01*
Y1512558D01*
X820985Y1514622D01*
X820651Y1515121D01*
X821250Y1516241D01*
X870975D01*
X871461Y1515068D01*
X861727Y1505333D01*
X860953Y1504176D01*
X860681Y1502810D01*
Y1394913D01*
X854500D01*
X852452Y1394505D01*
X850715Y1393345D01*
X850006Y1392285D01*
X848493Y1392285D01*
X847784Y1393346D01*
X846047Y1394507D01*
X843999Y1394914D01*
X834499D01*
X832451Y1394507D01*
X830714Y1393346D01*
X829554Y1391610D01*
X829146Y1389561D01*
Y1384061D01*
X829554Y1382013D01*
X830714Y1380276D01*
X832451Y1379116D01*
X834499Y1378708D01*
X843999D01*
X846047Y1379116D01*
X847784Y1380276D01*
X848493Y1381337D01*
X850006Y1381336D01*
X850715Y1380275D01*
X852452Y1379115D01*
X854500Y1378707D01*
X864000D01*
X866048Y1379115D01*
X867785Y1380275D01*
X868945Y1382012D01*
X869353Y1384060D01*
Y1389560D01*
X868945Y1391608D01*
X867819Y1393295D01*
Y1501332D01*
X878728Y1512241D01*
X887298D01*
X887897Y1511121D01*
X887554Y1510607D01*
X887146Y1508559D01*
Y1499059D01*
X887554Y1497011D01*
X888714Y1495274D01*
X890451Y1494114D01*
X891171Y1493970D01*
Y1468694D01*
X890259Y1468085D01*
X889901Y1468052D01*
X887250Y1468401D01*
X884509Y1468040D01*
X881955Y1466982D01*
X879761Y1465299D01*
X878078Y1463105D01*
X877020Y1460551D01*
X876659Y1457810D01*
X877020Y1455069D01*
X877626Y1453606D01*
X877523Y1453269D01*
X876787Y1452314D01*
X875292Y1452117D01*
X873468Y1451361D01*
X871901Y1450159D01*
X870699Y1448592D01*
X869943Y1446768D01*
X869685Y1444810D01*
X869943Y1442852D01*
X870699Y1441028D01*
X871901Y1439461D01*
X873468Y1438259D01*
X875292Y1437503D01*
X877250Y1437245D01*
X879208Y1437503D01*
X881032Y1438259D01*
X882599Y1439461D01*
X883801Y1441028D01*
X883890Y1441241D01*
X891250D01*
X892616Y1441513D01*
X893773Y1442287D01*
X902773Y1451287D01*
X902934Y1451528D01*
X904204Y1451569D01*
X905161Y1450321D01*
X907355Y1448638D01*
X909909Y1447580D01*
X912650Y1447219D01*
X915391Y1447580D01*
X917118Y1448295D01*
X925861Y1439552D01*
X925375Y1438379D01*
X922250D01*
X920884Y1438107D01*
X919727Y1437333D01*
X913923Y1431530D01*
X912000Y1431913D01*
X906500D01*
X904452Y1431505D01*
X902715Y1430345D01*
X901555Y1428608D01*
X901147Y1426560D01*
Y1417060D01*
X901555Y1415012D01*
X902715Y1413275D01*
X904452Y1412115D01*
X906500Y1411707D01*
X912000D01*
X914048Y1412115D01*
X915785Y1413275D01*
X916945Y1415012D01*
X917353Y1417060D01*
Y1424866D01*
X923728Y1431241D01*
X934945D01*
X935465Y1429971D01*
X934555Y1428608D01*
X934147Y1426560D01*
Y1417060D01*
X934555Y1415012D01*
X935681Y1413325D01*
Y1386697D01*
X933955Y1385982D01*
X931761Y1384299D01*
X930078Y1382105D01*
X929020Y1379551D01*
X928659Y1376810D01*
X929020Y1374069D01*
X930078Y1371515D01*
X931761Y1369321D01*
X933955Y1367638D01*
X936509Y1366580D01*
X939250Y1366219D01*
X941991Y1366580D01*
X944545Y1367638D01*
X946739Y1369321D01*
X948422Y1371515D01*
X949480Y1374069D01*
X949841Y1376810D01*
X949480Y1379551D01*
X948422Y1382105D01*
X946739Y1384299D01*
X944545Y1385982D01*
X942819Y1386697D01*
Y1411707D01*
X945000D01*
X947048Y1412115D01*
X948785Y1413275D01*
X949945Y1415012D01*
X950353Y1417060D01*
Y1426560D01*
X949945Y1428608D01*
X949035Y1429971D01*
X949555Y1431241D01*
X954945D01*
X955465Y1429971D01*
X954555Y1428608D01*
X954147Y1426560D01*
Y1417060D01*
X954555Y1415012D01*
X955715Y1413275D01*
X957452Y1412115D01*
X959500Y1411707D01*
X965000D01*
X967048Y1412115D01*
X968785Y1413275D01*
X969945Y1415012D01*
X970353Y1417060D01*
Y1418271D01*
X1023801D01*
X1025021Y1417051D01*
X1024535Y1415878D01*
X999092D01*
X997727Y1415606D01*
X996569Y1414832D01*
X983727Y1401990D01*
X982953Y1400833D01*
X982681Y1399467D01*
Y1365810D01*
X982953Y1364444D01*
X983727Y1363287D01*
X989681Y1357332D01*
Y1342383D01*
X988422Y1342105D01*
X986739Y1344299D01*
X984545Y1345982D01*
X981991Y1347040D01*
X979250Y1347401D01*
X976509Y1347040D01*
X973955Y1345982D01*
X971761Y1344299D01*
X970078Y1342105D01*
X969020Y1339551D01*
X968660Y1336810D01*
X969020Y1334069D01*
X970078Y1331515D01*
X971761Y1329321D01*
X973955Y1327638D01*
X976509Y1326580D01*
X979250Y1326219D01*
X981991Y1326580D01*
X984545Y1327638D01*
X986739Y1329321D01*
X988422Y1331515D01*
X989681Y1331237D01*
Y1326888D01*
X983718Y1320924D01*
X981991Y1321640D01*
X979250Y1322000D01*
X976509Y1321640D01*
X973955Y1320582D01*
X971761Y1318899D01*
X970078Y1316705D01*
X969020Y1314151D01*
X968660Y1311410D01*
X969020Y1308669D01*
X970078Y1306115D01*
X971761Y1303921D01*
X973955Y1302238D01*
X976509Y1301180D01*
X979250Y1300819D01*
X981991Y1301180D01*
X984545Y1302238D01*
X986739Y1303921D01*
X988422Y1306115D01*
X989480Y1308669D01*
X989841Y1311410D01*
X989480Y1314151D01*
X988764Y1315878D01*
X992508Y1319621D01*
X993681Y1319135D01*
Y1305488D01*
X983718Y1295524D01*
X981991Y1296240D01*
X979250Y1296600D01*
X976509Y1296240D01*
X973955Y1295182D01*
X971761Y1293499D01*
X970078Y1291305D01*
X969020Y1288751D01*
X968660Y1286010D01*
X969020Y1283269D01*
X970078Y1280715D01*
X971664Y1278649D01*
X971428Y1277540D01*
X971374Y1277379D01*
X924127D01*
X924072Y1277540D01*
X923836Y1278649D01*
X925422Y1280715D01*
X926480Y1283269D01*
X926841Y1286010D01*
X926480Y1288751D01*
X925422Y1291305D01*
X923739Y1293499D01*
X921545Y1295182D01*
X918991Y1296240D01*
X916250Y1296600D01*
X913509Y1296240D01*
X910955Y1295182D01*
X908761Y1293499D01*
X907078Y1291305D01*
X906020Y1288751D01*
X905659Y1286010D01*
X906020Y1283269D01*
X907078Y1280715D01*
X908664Y1278649D01*
X908428Y1277540D01*
X908373Y1277379D01*
X891850D01*
X890484Y1277107D01*
X889327Y1276333D01*
X857718Y1244724D01*
X855991Y1245440D01*
X853250Y1245800D01*
X850509Y1245440D01*
X847955Y1244382D01*
X846958Y1243617D01*
X845819Y1244178D01*
Y1251591D01*
X846958Y1252153D01*
X847935Y1251403D01*
X850499Y1250341D01*
X851250Y1250242D01*
Y1260610D01*
X853250D01*
Y1262610D01*
X863618D01*
X863519Y1263361D01*
X862457Y1265925D01*
X860767Y1268127D01*
X858566Y1269817D01*
X858318Y1271145D01*
X858381Y1271268D01*
X859616Y1271513D01*
X860773Y1272287D01*
X866773Y1278287D01*
X867547Y1279444D01*
X867819Y1280810D01*
Y1300410D01*
X867547Y1301776D01*
X866773Y1302933D01*
X862765Y1306942D01*
X863480Y1308669D01*
X863841Y1311410D01*
X863480Y1314151D01*
X862422Y1316705D01*
X860739Y1318899D01*
X858545Y1320582D01*
X855991Y1321640D01*
X853250Y1322000D01*
X850509Y1321640D01*
X847955Y1320582D01*
X845761Y1318899D01*
X844078Y1316705D01*
X843020Y1314151D01*
X842660Y1311410D01*
X843020Y1308669D01*
X844078Y1306115D01*
X845761Y1303921D01*
X847955Y1302238D01*
X850509Y1301180D01*
X853250Y1300819D01*
X855991Y1301180D01*
X857718Y1301895D01*
X860682Y1298932D01*
Y1294978D01*
X859542Y1294417D01*
X858545Y1295182D01*
X855991Y1296240D01*
X853250Y1296600D01*
X850509Y1296240D01*
X847955Y1295182D01*
X845761Y1293499D01*
X844078Y1291305D01*
X843020Y1288751D01*
X842660Y1286010D01*
X843020Y1283269D01*
X843736Y1281542D01*
X836898Y1274705D01*
X836125Y1273547D01*
X835853Y1272181D01*
Y1272117D01*
X835727Y1271990D01*
X834953Y1270833D01*
X834681Y1269467D01*
Y1216153D01*
X834953Y1214788D01*
X835727Y1213630D01*
X863070Y1186287D01*
X864228Y1185513D01*
X865593Y1185241D01*
X900000D01*
Y1160654D01*
X897250D01*
X895779Y1160361D01*
X895527Y1160193D01*
X893776Y1159962D01*
X890492Y1158602D01*
X887672Y1156438D01*
X885508Y1153618D01*
X884148Y1150334D01*
X883684Y1146810D01*
X883732D01*
Y1102063D01*
X883681Y1101810D01*
X883681D01*
X883509Y1100611D01*
X883253Y1099323D01*
X881845Y1097215D01*
X879737Y1095807D01*
X877417Y1095345D01*
X877250Y1095379D01*
X853445D01*
X852919Y1096649D01*
X862165Y1105895D01*
X864169Y1108506D01*
X865428Y1111547D01*
X865858Y1114810D01*
X865428Y1118073D01*
X864169Y1121114D01*
X862165Y1123725D01*
X859554Y1125729D01*
X856513Y1126988D01*
X853250Y1127418D01*
X849987Y1126988D01*
X846946Y1125729D01*
X844335Y1123725D01*
X838028Y1117418D01*
X736472D01*
X722858Y1131032D01*
Y1217838D01*
X747086Y1242066D01*
X747230Y1242080D01*
X750095Y1242949D01*
X752736Y1244361D01*
X755050Y1246260D01*
X756949Y1248575D01*
X758361Y1251215D01*
X759230Y1254080D01*
X759523Y1257060D01*
X759230Y1260040D01*
X758361Y1262905D01*
X756949Y1265546D01*
X756858Y1265657D01*
Y1292310D01*
X825250D01*
Y1387310D01*
X705250D01*
Y1292310D01*
X731642D01*
Y1265657D01*
X731550Y1265546D01*
X730139Y1262905D01*
X729270Y1260040D01*
X729256Y1259896D01*
X702089Y1232729D01*
X700819Y1233255D01*
Y1849810D01*
X700785Y1849977D01*
X701247Y1852297D01*
X702655Y1854405D01*
X704763Y1855813D01*
X707083Y1856275D01*
X707250Y1856241D01*
X1465250D01*
X1465417Y1856275D01*
X1467737Y1855813D01*
D02*
G37*
G36*
X1029707Y1725715D02*
X1028842Y1725051D01*
X1019009Y1715218D01*
X1017607Y1713390D01*
X1016725Y1711261D01*
X1016424Y1708977D01*
Y1697810D01*
X1016725Y1695526D01*
X1017250Y1694259D01*
Y1688578D01*
X1012366Y1683694D01*
X1011482Y1682371D01*
X1011172Y1680810D01*
X1011172Y1680810D01*
Y1665134D01*
X1009901Y1664159D01*
X1008699Y1662592D01*
X1007943Y1660768D01*
X1007685Y1658810D01*
X1007943Y1656852D01*
X1008699Y1655028D01*
X1009901Y1653461D01*
X1010312Y1653146D01*
X1010091Y1652275D01*
X1009832Y1651913D01*
X1004500D01*
X1002452Y1651505D01*
X1000715Y1650345D01*
X999555Y1648608D01*
X999147Y1646560D01*
Y1637060D01*
X999555Y1635012D01*
X1000715Y1633275D01*
X1001729Y1632598D01*
Y1631070D01*
X1000686Y1630374D01*
X999517Y1628624D01*
X999106Y1626560D01*
Y1623810D01*
X1007250D01*
X1015394D01*
Y1626560D01*
X1014983Y1628624D01*
X1013814Y1630374D01*
X1012772Y1631070D01*
Y1632598D01*
X1013785Y1633275D01*
X1014750Y1634719D01*
X1015880Y1635056D01*
X1016253Y1635073D01*
X1016750Y1634676D01*
Y1626060D01*
X1025953D01*
X1035280Y1616733D01*
X1034794Y1615560D01*
X1026250D01*
Y1611779D01*
X1025384Y1611607D01*
X1024227Y1610833D01*
X1009718Y1596324D01*
X1007991Y1597040D01*
X1005250Y1597401D01*
X1002509Y1597040D01*
X999955Y1595982D01*
X997761Y1594299D01*
X996078Y1592105D01*
X995020Y1589551D01*
X994659Y1586810D01*
X995020Y1584069D01*
X996078Y1581515D01*
X997761Y1579321D01*
X999955Y1577638D01*
X999677Y1576379D01*
X985696D01*
X985215Y1577519D01*
X985224Y1577649D01*
X987367Y1579293D01*
X989057Y1581494D01*
X990119Y1584059D01*
X990218Y1584810D01*
X979850D01*
X969482D01*
X969581Y1584059D01*
X970643Y1581494D01*
X972333Y1579293D01*
X974476Y1577649D01*
X974485Y1577519D01*
X974004Y1576379D01*
X967728D01*
X964468Y1579638D01*
X964557Y1579852D01*
X964815Y1581810D01*
X964557Y1583768D01*
X963801Y1585592D01*
X962599Y1587159D01*
X961032Y1588361D01*
X959208Y1589117D01*
X957250Y1589375D01*
X955292Y1589117D01*
X953468Y1588361D01*
X951901Y1587159D01*
X950699Y1585592D01*
X949943Y1583768D01*
X949770Y1582455D01*
X948600Y1581328D01*
X948250Y1581374D01*
X946292Y1581116D01*
X944468Y1580360D01*
X942901Y1579158D01*
X941699Y1577591D01*
X940944Y1575767D01*
X940686Y1573809D01*
X940944Y1571851D01*
X941699Y1570027D01*
X942901Y1568460D01*
X944468Y1567258D01*
X946292Y1566502D01*
X948250Y1566244D01*
X950208Y1566502D01*
X950422Y1566591D01*
X950726Y1566287D01*
X951884Y1565513D01*
X953249Y1565241D01*
X1014907D01*
X1016273Y1565513D01*
X1017430Y1566287D01*
X1044385Y1593241D01*
X1113421D01*
X1113433Y1593224D01*
X1112754Y1591954D01*
X1109500D01*
X1107436Y1591543D01*
X1105686Y1590374D01*
X1104517Y1588624D01*
X1104106Y1586560D01*
Y1583810D01*
X1112250D01*
Y1581810D01*
X1114250D01*
Y1571666D01*
X1115000D01*
X1117064Y1572077D01*
X1118814Y1573246D01*
X1119983Y1574996D01*
X1120394Y1577060D01*
Y1580672D01*
X1121664Y1581177D01*
X1123292Y1580502D01*
X1125250Y1580244D01*
X1127208Y1580502D01*
X1129032Y1581258D01*
X1129411Y1581549D01*
X1130681Y1580922D01*
Y1559648D01*
X1119290Y1548256D01*
X1118087Y1548664D01*
X1118005Y1549291D01*
X1117047Y1551602D01*
X1115525Y1553586D01*
X1113540Y1555109D01*
X1111229Y1556066D01*
X1108749Y1556393D01*
X1106269Y1556066D01*
X1105047Y1555560D01*
X1095817Y1564789D01*
Y1571868D01*
X1097047Y1572113D01*
X1098783Y1573273D01*
X1099944Y1575010D01*
X1100351Y1577058D01*
Y1586558D01*
X1099944Y1588607D01*
X1098783Y1590343D01*
X1097047Y1591504D01*
X1094998Y1591911D01*
X1089499D01*
X1087450Y1591504D01*
X1085714Y1590343D01*
X1085008Y1589288D01*
X1083493Y1589290D01*
X1082786Y1590347D01*
X1081050Y1591507D01*
X1079001Y1591915D01*
X1073502D01*
X1071453Y1591507D01*
X1069716Y1590347D01*
X1068556Y1588610D01*
X1068149Y1586562D01*
Y1577062D01*
X1068556Y1575013D01*
X1069716Y1573277D01*
X1071453Y1572116D01*
X1072683Y1571872D01*
Y1564791D01*
X1063452Y1555560D01*
X1062229Y1556066D01*
X1059749Y1556393D01*
X1057269Y1556066D01*
X1054958Y1555109D01*
X1052974Y1553586D01*
X1051451Y1551602D01*
X1050494Y1549291D01*
X1050167Y1546811D01*
X1050494Y1544331D01*
X1051451Y1542020D01*
X1052974Y1540035D01*
X1054958Y1538512D01*
X1057269Y1537555D01*
X1059749Y1537229D01*
X1062229Y1537555D01*
X1064540Y1538512D01*
X1066525Y1540035D01*
X1068047Y1542020D01*
X1068554Y1543242D01*
X1083771D01*
X1091180Y1535833D01*
Y1522816D01*
X1089910Y1521774D01*
X1088998Y1521955D01*
X1086248D01*
Y1513812D01*
Y1505668D01*
X1088998D01*
X1089910Y1505849D01*
X1091180Y1504807D01*
Y1502774D01*
X1089910Y1501732D01*
X1089000Y1501913D01*
X1079500D01*
X1077452Y1501505D01*
X1075715Y1500345D01*
X1074555Y1498608D01*
X1074147Y1496560D01*
Y1491060D01*
X1074555Y1489012D01*
X1075715Y1487275D01*
X1077452Y1486115D01*
X1079500Y1485707D01*
X1080182D01*
Y1478640D01*
X1079201Y1477834D01*
X1078751Y1477923D01*
X1078301Y1477834D01*
X1077319Y1478640D01*
Y1482309D01*
X1077048Y1483675D01*
X1076274Y1484832D01*
X1071971Y1489136D01*
X1072354Y1491059D01*
Y1496559D01*
X1071946Y1498607D01*
X1070786Y1500344D01*
X1069049Y1501505D01*
X1067001Y1501912D01*
X1057501D01*
X1055452Y1501505D01*
X1053716Y1500344D01*
X1052555Y1498607D01*
X1052148Y1496559D01*
Y1491068D01*
X1052129Y1491049D01*
X1050975Y1490444D01*
X983086Y1558333D01*
X981929Y1559107D01*
X980563Y1559379D01*
X945699D01*
X935819Y1569259D01*
Y1615332D01*
X938728Y1618241D01*
X958310D01*
X958555Y1617012D01*
X959715Y1615275D01*
X961452Y1614115D01*
X963500Y1613707D01*
X973000D01*
X975048Y1614115D01*
X976785Y1615275D01*
X977916Y1616967D01*
X978119Y1616982D01*
X979199Y1616802D01*
X979555Y1615012D01*
X980715Y1613275D01*
X982452Y1612115D01*
X984500Y1611707D01*
X990000D01*
X992048Y1612115D01*
X993785Y1613275D01*
X994945Y1615012D01*
X995353Y1617060D01*
Y1626560D01*
X994945Y1628608D01*
X993785Y1630345D01*
X992725Y1631053D01*
Y1632567D01*
X993785Y1633275D01*
X994945Y1635012D01*
X995353Y1637060D01*
Y1646560D01*
X994945Y1648608D01*
X993785Y1650345D01*
X992048Y1651505D01*
X990000Y1651913D01*
X984500D01*
X982577Y1651530D01*
X977819Y1656288D01*
Y1661248D01*
X979089Y1661501D01*
X979699Y1660028D01*
X980901Y1658461D01*
X982468Y1657259D01*
X984292Y1656503D01*
X986250Y1656245D01*
X996250D01*
X998208Y1656503D01*
X1000032Y1657259D01*
X1001599Y1658461D01*
X1002801Y1660028D01*
X1003557Y1661852D01*
X1003815Y1663810D01*
Y1673810D01*
X1003557Y1675768D01*
X1002801Y1677592D01*
X1001599Y1679159D01*
X1000076Y1680328D01*
Y1697810D01*
Y1718154D01*
X1008906Y1726985D01*
X1029276D01*
X1029707Y1725715D01*
D02*
G37*
G36*
X1158032Y1590982D02*
X1157943Y1590768D01*
X1157685Y1588810D01*
X1157943Y1586852D01*
X1158699Y1585028D01*
X1159901Y1583461D01*
X1160662Y1582877D01*
Y1578216D01*
X1159392Y1577656D01*
X1158063Y1578544D01*
X1155999Y1578954D01*
X1153249D01*
Y1570811D01*
X1149249D01*
Y1578954D01*
X1146499D01*
X1144435Y1578544D01*
X1143089Y1577644D01*
X1141819Y1578189D01*
Y1604810D01*
X1141672Y1605545D01*
X1142843Y1606171D01*
X1158032Y1590982D01*
D02*
G37*
G36*
X943461Y1518068D02*
X938923Y1513529D01*
X936999Y1513912D01*
X931499D01*
X929451Y1513504D01*
X927714Y1512344D01*
X926554Y1510607D01*
X926146Y1508559D01*
Y1507378D01*
X923352D01*
Y1508559D01*
X922944Y1510607D01*
X921784Y1512344D01*
X920047Y1513504D01*
X917999Y1513912D01*
X912499D01*
X910451Y1513504D01*
X908714Y1512344D01*
X907554Y1510607D01*
X907146Y1508559D01*
Y1499059D01*
X907554Y1497011D01*
X908714Y1495274D01*
X910451Y1494114D01*
X912499Y1493706D01*
X917999D01*
X920047Y1494114D01*
X921784Y1495274D01*
X922944Y1497011D01*
X923352Y1499059D01*
Y1500240D01*
X926146D01*
Y1499059D01*
X926554Y1497011D01*
X927714Y1495274D01*
X929451Y1494114D01*
X931499Y1493706D01*
X936999D01*
X939047Y1494114D01*
X940784Y1495274D01*
X941944Y1497011D01*
X942352Y1499059D01*
Y1506865D01*
X945000Y1509514D01*
X946171Y1508888D01*
X946105Y1508559D01*
Y1505809D01*
X954249D01*
Y1503809D01*
X956249D01*
Y1493665D01*
X956999D01*
X959063Y1494076D01*
X960813Y1495245D01*
X961982Y1496995D01*
X962393Y1499059D01*
Y1501674D01*
X963663Y1502177D01*
X965293Y1501502D01*
X967250Y1501244D01*
X969208Y1501502D01*
X971033Y1502258D01*
X972599Y1503460D01*
X973802Y1505027D01*
X973890Y1505241D01*
X977279D01*
X978644Y1505512D01*
X979176Y1505867D01*
X1016681Y1468361D01*
Y1455153D01*
X1016953Y1453788D01*
X1017727Y1452630D01*
X1018805Y1451552D01*
X1018318Y1450379D01*
X972469D01*
X971907Y1451518D01*
X972657Y1452495D01*
X973719Y1455058D01*
X973818Y1455810D01*
X963450D01*
Y1457810D01*
X961450D01*
Y1468178D01*
X960698Y1468079D01*
X958135Y1467017D01*
X955933Y1465327D01*
X955597Y1464890D01*
X954036Y1464941D01*
X953773Y1465333D01*
X945773Y1473333D01*
X944616Y1474107D01*
X943250Y1474379D01*
X908250D01*
X906884Y1474107D01*
X905727Y1473333D01*
X900501Y1468107D01*
X899327Y1468593D01*
Y1493970D01*
X900047Y1494114D01*
X901784Y1495274D01*
X902944Y1497011D01*
X903352Y1499059D01*
Y1508559D01*
X902944Y1510607D01*
X901784Y1512344D01*
X900679Y1513082D01*
X900426Y1514625D01*
X905042Y1519241D01*
X942975D01*
X943461Y1518068D01*
D02*
G37*
G36*
X1141912Y1518101D02*
X1141421Y1516915D01*
X1141193Y1515185D01*
Y1512435D01*
X1141421Y1510706D01*
X1142088Y1509094D01*
X1143150Y1507710D01*
X1144534Y1506648D01*
X1146145Y1505981D01*
X1147875Y1505753D01*
X1154625D01*
X1156103Y1505947D01*
X1156581Y1505322D01*
X1156759Y1504807D01*
X1118748Y1466796D01*
X1117574Y1467282D01*
Y1474059D01*
X1117319Y1475341D01*
Y1475833D01*
X1125775Y1484288D01*
X1126549Y1485446D01*
X1126600Y1485706D01*
X1128002D01*
X1130050Y1486113D01*
X1131787Y1487274D01*
X1132947Y1489010D01*
X1133354Y1491059D01*
Y1496559D01*
X1132947Y1498607D01*
X1131787Y1500343D01*
X1130050Y1501504D01*
X1128002Y1501911D01*
X1118502D01*
X1116453Y1501504D01*
X1115589Y1500926D01*
X1114318Y1501605D01*
Y1505964D01*
X1115589Y1506643D01*
X1116436Y1506077D01*
X1118500Y1505666D01*
X1121250D01*
Y1513810D01*
X1123250D01*
Y1515810D01*
X1133394D01*
Y1516560D01*
X1132983Y1518624D01*
X1132651Y1519121D01*
X1133249Y1520241D01*
X1139772D01*
X1141912Y1518101D01*
D02*
G37*
G36*
X1033226Y1402759D02*
X1033137Y1402309D01*
X1033226Y1401859D01*
X1032420Y1400878D01*
X1024186D01*
X1024001Y1400914D01*
X1018502D01*
X1016453Y1400507D01*
X1014716Y1399347D01*
X1013556Y1397610D01*
X1013149Y1395562D01*
Y1386062D01*
X1013556Y1384013D01*
X1014716Y1382277D01*
X1016453Y1381116D01*
X1018502Y1380709D01*
X1024001D01*
X1026050Y1381116D01*
X1027786Y1382277D01*
X1028947Y1384013D01*
X1029354Y1386062D01*
Y1393741D01*
X1035720D01*
X1037001Y1393486D01*
X1046501D01*
X1047576Y1393699D01*
X1047977Y1393271D01*
X1048260Y1392587D01*
X1011756Y1356083D01*
X1010599Y1356159D01*
X1009032Y1357361D01*
X1007208Y1358117D01*
X1005250Y1358375D01*
X1003292Y1358117D01*
X1002089Y1357618D01*
X1000819Y1358371D01*
Y1360467D01*
X1000547Y1361832D01*
X999773Y1362990D01*
X993819Y1368945D01*
Y1381433D01*
X995089Y1381977D01*
X996436Y1381077D01*
X998500Y1380666D01*
X999250D01*
Y1390810D01*
X1001250D01*
Y1392810D01*
X1009394D01*
Y1395560D01*
X1008983Y1397624D01*
X1007814Y1399374D01*
X1006064Y1400543D01*
X1004000Y1400954D01*
X1000236D01*
X999710Y1402224D01*
X1001227Y1403741D01*
X1032420D01*
X1033226Y1402759D01*
D02*
G37*
G36*
X1054927Y1464559D02*
X1055218Y1463096D01*
X1056047Y1461856D01*
X1057288Y1461027D01*
X1058751Y1460736D01*
X1060214Y1461027D01*
X1061251Y1461720D01*
X1062114Y1461143D01*
X1062215Y1461016D01*
X1062348Y1460701D01*
X1062535Y1459683D01*
X1061699Y1458592D01*
X1060943Y1456768D01*
X1060685Y1454810D01*
X1060943Y1452852D01*
X1061699Y1451028D01*
X1062901Y1449461D01*
X1064468Y1448259D01*
X1066292Y1447503D01*
X1068250Y1447245D01*
X1070208Y1447503D01*
X1072032Y1448259D01*
X1073599Y1449461D01*
X1074801Y1451028D01*
X1075557Y1452852D01*
X1075590Y1453103D01*
X1076274Y1453787D01*
X1077048Y1454945D01*
X1077319Y1456311D01*
Y1459979D01*
X1078301Y1460784D01*
X1078751Y1460695D01*
X1079201Y1460784D01*
X1080182Y1459979D01*
Y1451309D01*
X1080454Y1449943D01*
X1081227Y1448785D01*
X1086032Y1443981D01*
X1085943Y1443767D01*
X1085685Y1441809D01*
X1085943Y1439852D01*
X1086699Y1438027D01*
X1087901Y1436460D01*
X1089468Y1435258D01*
X1091292Y1434502D01*
X1093250Y1434245D01*
X1095208Y1434502D01*
X1097032Y1435258D01*
X1098599Y1436460D01*
X1099801Y1438027D01*
X1100557Y1439852D01*
X1100815Y1441809D01*
X1100557Y1443767D01*
X1099801Y1445592D01*
X1098599Y1447158D01*
X1097032Y1448361D01*
X1095208Y1449116D01*
X1093250Y1449374D01*
X1091292Y1449116D01*
X1091078Y1449028D01*
X1087319Y1452787D01*
Y1460020D01*
X1088301Y1460825D01*
X1088751Y1460736D01*
X1090214Y1461027D01*
X1091251Y1461720D01*
X1092288Y1461027D01*
X1093751Y1460736D01*
X1095214Y1461027D01*
X1096251Y1461720D01*
X1097288Y1461027D01*
X1098751Y1460736D01*
X1100214Y1461027D01*
X1101251Y1461720D01*
X1102288Y1461027D01*
X1103751Y1460736D01*
X1105214Y1461027D01*
X1106251Y1461720D01*
X1107114Y1461143D01*
X1107215Y1461016D01*
X1107348Y1460701D01*
X1107535Y1459683D01*
X1106699Y1458592D01*
X1105943Y1456768D01*
X1105685Y1454810D01*
X1105943Y1452852D01*
X1106699Y1451028D01*
X1107901Y1449461D01*
X1109468Y1448259D01*
X1111292Y1447503D01*
X1113250Y1447245D01*
X1115208Y1447503D01*
X1117032Y1448259D01*
X1117885Y1448913D01*
X1118751Y1448741D01*
X1121420D01*
X1122226Y1447759D01*
X1122137Y1447309D01*
X1122431Y1445830D01*
X1123137Y1444773D01*
X1122468Y1443772D01*
X1122177Y1442309D01*
X1122468Y1440846D01*
X1123161Y1439809D01*
X1122468Y1438772D01*
X1122177Y1437309D01*
X1122468Y1435846D01*
X1123161Y1434809D01*
X1122468Y1433772D01*
X1122177Y1432309D01*
X1122468Y1430846D01*
X1123161Y1429809D01*
X1122468Y1428772D01*
X1122177Y1427309D01*
X1122468Y1425846D01*
X1123161Y1424809D01*
X1122468Y1423772D01*
X1122177Y1422309D01*
X1122468Y1420846D01*
X1123161Y1419809D01*
X1122468Y1418772D01*
X1122177Y1417309D01*
X1122468Y1415846D01*
X1123161Y1414809D01*
X1122468Y1413772D01*
X1122177Y1412309D01*
X1122468Y1410846D01*
X1123161Y1409809D01*
X1122468Y1408772D01*
X1122177Y1407309D01*
X1122468Y1405846D01*
X1123161Y1404809D01*
X1122468Y1403772D01*
X1122177Y1402309D01*
X1122468Y1400846D01*
X1123161Y1399809D01*
X1122468Y1398772D01*
X1122177Y1397309D01*
X1122468Y1395846D01*
X1123297Y1394606D01*
X1124538Y1393777D01*
X1126001Y1393486D01*
X1135501D01*
X1136782Y1393741D01*
X1140106D01*
X1140420Y1392566D01*
X1140400Y1392471D01*
X1138714Y1391343D01*
X1137553Y1389607D01*
X1137146Y1387558D01*
Y1386377D01*
X1129730D01*
X1120468Y1395638D01*
X1120557Y1395852D01*
X1120815Y1397810D01*
X1120557Y1399768D01*
X1119801Y1401592D01*
X1118599Y1403159D01*
X1117032Y1404361D01*
X1115208Y1405117D01*
X1113250Y1405375D01*
X1111292Y1405117D01*
X1109468Y1404361D01*
X1107901Y1403159D01*
X1106699Y1401592D01*
X1105943Y1399768D01*
X1105685Y1397810D01*
X1105943Y1395852D01*
X1106699Y1394028D01*
X1107901Y1392461D01*
X1109468Y1391259D01*
X1110182Y1390963D01*
Y1389640D01*
X1109201Y1388834D01*
X1108751Y1388923D01*
X1107272Y1388629D01*
X1106215Y1387923D01*
X1105214Y1388591D01*
X1103751Y1388883D01*
X1102288Y1388591D01*
X1101251Y1387899D01*
X1100214Y1388591D01*
X1098751Y1388883D01*
X1097288Y1388591D01*
X1096251Y1387899D01*
X1095214Y1388591D01*
X1093751Y1388883D01*
X1092288Y1388591D01*
X1091251Y1387899D01*
X1090214Y1388591D01*
X1088751Y1388883D01*
X1087288Y1388591D01*
X1086251Y1387899D01*
X1085214Y1388591D01*
X1083751Y1388883D01*
X1082288Y1388591D01*
X1081251Y1387899D01*
X1080214Y1388591D01*
X1078751Y1388883D01*
X1077288Y1388591D01*
X1076251Y1387899D01*
X1075214Y1388591D01*
X1073751Y1388883D01*
X1072288Y1388591D01*
X1071251Y1387899D01*
X1070214Y1388591D01*
X1068751Y1388883D01*
X1067288Y1388591D01*
X1066251Y1387899D01*
X1065214Y1388591D01*
X1063751Y1388883D01*
X1062288Y1388591D01*
X1061878Y1388318D01*
X1061367Y1388608D01*
X1061454Y1390018D01*
X1062032Y1390258D01*
X1063599Y1391460D01*
X1064801Y1393027D01*
X1065557Y1394852D01*
X1065815Y1396809D01*
X1065557Y1398767D01*
X1064801Y1400592D01*
X1063599Y1402158D01*
X1062032Y1403361D01*
X1060208Y1404116D01*
X1058250Y1404374D01*
X1056292Y1404116D01*
X1054468Y1403361D01*
X1052901Y1402158D01*
X1052197Y1401241D01*
X1051266Y1401230D01*
X1050365Y1402309D01*
X1050071Y1403788D01*
X1049364Y1404845D01*
X1050033Y1405846D01*
X1050324Y1407309D01*
X1050033Y1408772D01*
X1049340Y1409809D01*
X1050033Y1410846D01*
X1050324Y1412309D01*
X1050033Y1413772D01*
X1049340Y1414809D01*
X1050033Y1415846D01*
X1050324Y1417309D01*
X1050033Y1418772D01*
X1049340Y1419809D01*
X1050033Y1420846D01*
X1050324Y1422309D01*
X1050033Y1423772D01*
X1049340Y1424809D01*
X1050033Y1425846D01*
X1050324Y1427309D01*
X1050033Y1428772D01*
X1049340Y1429809D01*
X1050033Y1430846D01*
X1050324Y1432309D01*
X1050033Y1433772D01*
X1049340Y1434809D01*
X1050033Y1435846D01*
X1050324Y1437309D01*
X1050033Y1438772D01*
X1049340Y1439809D01*
X1050033Y1440846D01*
X1050324Y1442309D01*
X1050033Y1443772D01*
X1049340Y1444809D01*
X1050033Y1445846D01*
X1050324Y1447309D01*
X1050033Y1448772D01*
X1049340Y1449809D01*
X1050033Y1450846D01*
X1050324Y1452309D01*
X1050033Y1453772D01*
X1049204Y1455013D01*
X1047964Y1455842D01*
X1046501Y1456133D01*
X1037001D01*
X1036144Y1455962D01*
X1031819Y1460288D01*
Y1472241D01*
X1054927D01*
Y1464559D01*
D02*
G37*
G36*
X1385750Y1373154D02*
Y1363804D01*
X1384436Y1363543D01*
X1382686Y1362374D01*
X1381517Y1360624D01*
X1381106Y1358560D01*
Y1357810D01*
X1391250D01*
Y1353810D01*
X1381106D01*
Y1353060D01*
X1381244Y1352367D01*
X1380146Y1351379D01*
X1378564D01*
X1378564Y1351379D01*
X1372989D01*
X1366534Y1357833D01*
X1366378Y1358616D01*
X1366532Y1358847D01*
X1366823Y1360310D01*
X1366734Y1360760D01*
X1367540Y1361741D01*
X1371064D01*
X1372429Y1362013D01*
X1373587Y1362787D01*
X1384480Y1373680D01*
X1385750Y1373154D01*
D02*
G37*
G36*
X1071381Y1361265D02*
Y1338796D01*
X1071653Y1337431D01*
X1072427Y1336273D01*
X1084913Y1323787D01*
X1086071Y1323013D01*
X1087436Y1322742D01*
X1150772D01*
X1177227Y1296287D01*
X1178384Y1295513D01*
X1179750Y1295241D01*
X1204772D01*
X1229727Y1270287D01*
X1230884Y1269513D01*
X1232250Y1269241D01*
X1266250D01*
X1267616Y1269513D01*
X1268773Y1270287D01*
X1269336Y1270850D01*
X1270562Y1270500D01*
X1270928Y1269396D01*
X1270450Y1268502D01*
X1268713Y1267342D01*
X1267553Y1265605D01*
X1267145Y1263557D01*
Y1258057D01*
X1267553Y1256008D01*
X1268713Y1254272D01*
X1270450Y1253111D01*
X1272498Y1252704D01*
X1281998D01*
X1283911Y1253084D01*
X1284286Y1253001D01*
X1285181Y1252523D01*
Y1249136D01*
X1284367Y1248700D01*
X1283911Y1248569D01*
X1282000Y1248949D01*
X1279250D01*
Y1240805D01*
Y1232662D01*
X1282000D01*
X1283911Y1233042D01*
X1284367Y1232910D01*
X1285181Y1232475D01*
Y1228653D01*
X1285453Y1227288D01*
X1286227Y1226130D01*
X1290921Y1221436D01*
X1290327Y1220233D01*
X1289250Y1220375D01*
X1287292Y1220117D01*
X1285468Y1219361D01*
X1283901Y1218159D01*
X1282699Y1216592D01*
X1282610Y1216379D01*
X1280728D01*
X1205773Y1291333D01*
X1204616Y1292107D01*
X1203250Y1292379D01*
X1159250D01*
X1157884Y1292107D01*
X1156727Y1291333D01*
X1143727Y1278333D01*
X1142953Y1277176D01*
X1142681Y1275810D01*
Y1245288D01*
X1125423Y1228030D01*
X1124250Y1228516D01*
Y1243810D01*
X1106297D01*
X1105773Y1244333D01*
X1104616Y1245107D01*
X1103250Y1245379D01*
X1100355D01*
Y1247911D01*
X1101250Y1248810D01*
X1101625Y1248810D01*
X1124250D01*
Y1266810D01*
X1101664D01*
X1101250Y1266810D01*
X1100394Y1267725D01*
Y1270560D01*
X1100333Y1270863D01*
X1101247Y1271606D01*
X1101644Y1271770D01*
X1101644Y1271770D01*
X1110750D01*
Y1278810D01*
X1101210D01*
Y1273186D01*
X1100034Y1272672D01*
X1099940Y1272689D01*
X1098814Y1274374D01*
X1097064Y1275543D01*
X1095000Y1275954D01*
X1092250D01*
Y1267810D01*
Y1259666D01*
X1095000D01*
X1097064Y1260077D01*
X1098814Y1261246D01*
X1099983Y1262996D01*
X1101250Y1262856D01*
Y1252566D01*
X1099980Y1252441D01*
X1099947Y1252607D01*
X1098787Y1254343D01*
X1097050Y1255504D01*
X1095002Y1255911D01*
X1085502D01*
X1083453Y1255504D01*
X1081717Y1254343D01*
X1080556Y1252607D01*
X1080312Y1251379D01*
X1049620D01*
X1049188Y1252649D01*
X1049767Y1253093D01*
X1051457Y1255294D01*
X1052519Y1257859D01*
X1052618Y1258610D01*
X1042250D01*
X1031882D01*
X1031981Y1257859D01*
X1033043Y1255294D01*
X1034733Y1253093D01*
X1035312Y1252649D01*
X1034881Y1251379D01*
X1027890D01*
X1027801Y1251592D01*
X1026599Y1253159D01*
X1025032Y1254361D01*
X1023208Y1255117D01*
X1021250Y1255375D01*
X1019292Y1255117D01*
X1018089Y1254618D01*
X1016818Y1255371D01*
Y1326361D01*
X1031096Y1340639D01*
X1032173Y1339920D01*
X1032020Y1339551D01*
X1031659Y1336810D01*
X1032020Y1334069D01*
X1033078Y1331515D01*
X1034761Y1329321D01*
X1036955Y1327638D01*
X1039509Y1326580D01*
X1042250Y1326219D01*
X1044991Y1326580D01*
X1047545Y1327638D01*
X1049739Y1329321D01*
X1051422Y1331515D01*
X1052480Y1334069D01*
X1052841Y1336810D01*
X1052480Y1339551D01*
X1051422Y1342105D01*
X1049739Y1344299D01*
X1047545Y1345982D01*
X1044991Y1347040D01*
X1042250Y1347401D01*
X1039509Y1347040D01*
X1039140Y1346887D01*
X1038421Y1347964D01*
X1043699Y1353241D01*
X1060220D01*
X1061586Y1353513D01*
X1062744Y1354287D01*
X1070208Y1361751D01*
X1071381Y1361265D01*
D02*
G37*
G36*
X1434699Y1321028D02*
X1435901Y1319461D01*
X1437468Y1318259D01*
X1437681Y1318170D01*
Y1282697D01*
X1435955Y1281982D01*
X1433761Y1280299D01*
X1432078Y1278105D01*
X1431020Y1275551D01*
X1430659Y1272810D01*
X1431020Y1270069D01*
X1432078Y1267515D01*
X1433761Y1265321D01*
X1434638Y1264649D01*
X1434207Y1263379D01*
X1413728D01*
X1404819Y1272287D01*
Y1284563D01*
X1405939Y1285162D01*
X1406438Y1284829D01*
X1408502Y1284418D01*
X1409252D01*
Y1294562D01*
X1413252D01*
Y1284418D01*
X1414002D01*
X1416066Y1284829D01*
X1416252Y1284954D01*
X1417468Y1284585D01*
X1417699Y1284028D01*
X1418901Y1282461D01*
X1420468Y1281259D01*
X1422292Y1280503D01*
X1424250Y1280245D01*
X1426208Y1280503D01*
X1428032Y1281259D01*
X1429599Y1282461D01*
X1430801Y1284028D01*
X1431557Y1285852D01*
X1431815Y1287810D01*
X1431557Y1289768D01*
X1430801Y1291592D01*
X1429599Y1293159D01*
X1428032Y1294361D01*
X1427819Y1294450D01*
Y1317191D01*
X1427547Y1318556D01*
X1426773Y1319714D01*
X1426419Y1320068D01*
X1426905Y1321241D01*
X1434610D01*
X1434699Y1321028D01*
D02*
G37*
G36*
X1001681Y1284535D02*
Y1269288D01*
X990883Y1258490D01*
X990639Y1258610D01*
X979250D01*
X968882D01*
X968981Y1257859D01*
X970043Y1255294D01*
X971733Y1253093D01*
X972312Y1252649D01*
X971881Y1251379D01*
X928850D01*
X927485Y1251107D01*
X926327Y1250333D01*
X920718Y1244724D01*
X918991Y1245440D01*
X916250Y1245800D01*
X913509Y1245440D01*
X910955Y1244382D01*
X908761Y1242699D01*
X907078Y1240505D01*
X906020Y1237951D01*
X905659Y1235210D01*
X906020Y1232469D01*
X907078Y1229915D01*
X908761Y1227721D01*
X910955Y1226038D01*
X913509Y1224980D01*
X916250Y1224619D01*
X918991Y1224980D01*
X920718Y1225695D01*
X926127Y1220287D01*
X927284Y1219513D01*
X928650Y1219241D01*
X981556D01*
X982259Y1217971D01*
X981887Y1217378D01*
X883304D01*
X882801Y1218592D01*
X881599Y1220159D01*
X880032Y1221361D01*
X878208Y1222117D01*
X876250Y1222375D01*
X874292Y1222117D01*
X872468Y1221361D01*
X870901Y1220159D01*
X869699Y1218592D01*
X868943Y1216768D01*
X868685Y1214810D01*
X868943Y1212852D01*
X869699Y1211028D01*
X870901Y1209461D01*
X872468Y1208259D01*
X874292Y1207503D01*
X876250Y1207245D01*
X878208Y1207503D01*
X880032Y1208259D01*
X881599Y1209461D01*
X882198Y1210241D01*
X902689D01*
X903442Y1208971D01*
X902943Y1207768D01*
X902686Y1205810D01*
X902943Y1203852D01*
X903699Y1202027D01*
X903990Y1201649D01*
X903364Y1200379D01*
X870385D01*
X856819Y1213945D01*
Y1225323D01*
X858545Y1226038D01*
X860739Y1227721D01*
X862422Y1229915D01*
X863480Y1232469D01*
X863841Y1235210D01*
X863480Y1237951D01*
X862765Y1239678D01*
X893328Y1270241D01*
X909402D01*
X909833Y1268971D01*
X908733Y1268127D01*
X907043Y1265925D01*
X905981Y1263361D01*
X905882Y1262610D01*
X916250D01*
X926618D01*
X926519Y1263361D01*
X925457Y1265925D01*
X923767Y1268127D01*
X922667Y1268971D01*
X923098Y1270241D01*
X972402D01*
X972833Y1268971D01*
X971733Y1268127D01*
X970043Y1265925D01*
X968981Y1263361D01*
X968882Y1262610D01*
X979250D01*
X989618D01*
X989519Y1263361D01*
X988457Y1265925D01*
X986767Y1268127D01*
X985401Y1269175D01*
X985613Y1270498D01*
X985684Y1270559D01*
X986773Y1271287D01*
X1000508Y1285021D01*
X1001681Y1284535D01*
D02*
G37*
G36*
X1276727Y1210287D02*
X1277884Y1209513D01*
X1279250Y1209241D01*
X1282610D01*
X1282699Y1209028D01*
X1283901Y1207461D01*
X1285468Y1206259D01*
X1287292Y1205503D01*
X1289250Y1205245D01*
X1291208Y1205503D01*
X1293032Y1206259D01*
X1294599Y1207461D01*
X1295801Y1209028D01*
X1296557Y1210852D01*
X1296815Y1212810D01*
X1296673Y1213887D01*
X1297876Y1214481D01*
X1323508Y1188848D01*
X1322982Y1187578D01*
X1306400D01*
Y1160654D01*
X1301000D01*
Y1187578D01*
X1281000D01*
Y1160654D01*
X1275600D01*
Y1187578D01*
X1255600D01*
Y1160654D01*
X1250200D01*
Y1187578D01*
X1230200D01*
Y1160654D01*
X1224840D01*
Y1171828D01*
X1214800D01*
X1204760D01*
Y1160654D01*
X1199400D01*
Y1187578D01*
X1192969D01*
Y1196154D01*
X1195193Y1197075D01*
X1197282Y1198678D01*
X1198885Y1200767D01*
X1199893Y1203199D01*
X1200236Y1205810D01*
X1199893Y1208420D01*
X1198885Y1210853D01*
X1197282Y1212942D01*
X1195193Y1214545D01*
X1192760Y1215553D01*
X1190150Y1215896D01*
X1187540Y1215553D01*
X1185107Y1214545D01*
X1183018Y1212942D01*
X1181415Y1210853D01*
X1180407Y1208420D01*
X1180064Y1205810D01*
X1180407Y1203199D01*
X1181415Y1200767D01*
X1183018Y1198678D01*
X1185107Y1197075D01*
X1185831Y1196775D01*
Y1187578D01*
X1179400D01*
Y1160654D01*
X1174000D01*
Y1187578D01*
X1154000D01*
Y1160654D01*
X1148600D01*
Y1184613D01*
X1160665Y1196678D01*
X1162140Y1196067D01*
X1164750Y1195724D01*
X1167361Y1196067D01*
X1169793Y1197075D01*
X1171882Y1198678D01*
X1173485Y1200767D01*
X1174493Y1203199D01*
X1174836Y1205810D01*
X1174493Y1208420D01*
X1173485Y1210853D01*
X1171882Y1212942D01*
X1169793Y1214545D01*
X1167361Y1215553D01*
X1164750Y1215896D01*
X1162140Y1215553D01*
X1159707Y1214545D01*
X1157618Y1212942D01*
X1156015Y1210853D01*
X1155007Y1208420D01*
X1154664Y1205810D01*
X1155007Y1203199D01*
X1155618Y1201725D01*
X1141471Y1187578D01*
X1128600D01*
Y1160654D01*
X1123200D01*
Y1187578D01*
X1103200D01*
Y1160654D01*
X1097800D01*
Y1187578D01*
X1082529D01*
X1075773Y1194333D01*
X1074616Y1195107D01*
X1073250Y1195379D01*
X1067416D01*
X1067164Y1196649D01*
X1068193Y1197075D01*
X1070282Y1198678D01*
X1071885Y1200767D01*
X1072893Y1203199D01*
X1073236Y1205810D01*
X1072893Y1208420D01*
X1072282Y1209895D01*
X1076628Y1214241D01*
X1081136D01*
X1081544Y1213039D01*
X1081418Y1212942D01*
X1079815Y1210853D01*
X1078807Y1208420D01*
X1078464Y1205810D01*
X1078807Y1203199D01*
X1079815Y1200767D01*
X1081418Y1198678D01*
X1083507Y1197075D01*
X1085939Y1196067D01*
X1088550Y1195724D01*
X1091161Y1196067D01*
X1093593Y1197075D01*
X1095682Y1198678D01*
X1097285Y1200767D01*
X1098293Y1203199D01*
X1098636Y1205810D01*
X1098293Y1208420D01*
X1097285Y1210853D01*
X1095682Y1212942D01*
X1095556Y1213039D01*
X1095964Y1214241D01*
X1106536D01*
X1106944Y1213039D01*
X1106818Y1212942D01*
X1105215Y1210853D01*
X1104207Y1208420D01*
X1103864Y1205810D01*
X1104207Y1203199D01*
X1105215Y1200767D01*
X1106818Y1198678D01*
X1108907Y1197075D01*
X1111339Y1196067D01*
X1113950Y1195724D01*
X1116561Y1196067D01*
X1118993Y1197075D01*
X1121082Y1198678D01*
X1122685Y1200767D01*
X1123693Y1203199D01*
X1124036Y1205810D01*
X1123693Y1208420D01*
X1122685Y1210853D01*
X1121082Y1212942D01*
X1120956Y1213039D01*
X1121364Y1214241D01*
X1131936D01*
X1132344Y1213039D01*
X1132218Y1212942D01*
X1130615Y1210853D01*
X1129607Y1208420D01*
X1129264Y1205810D01*
X1129607Y1203199D01*
X1130615Y1200767D01*
X1132218Y1198678D01*
X1134307Y1197075D01*
X1136740Y1196067D01*
X1139350Y1195724D01*
X1141961Y1196067D01*
X1144393Y1197075D01*
X1146482Y1198678D01*
X1148085Y1200767D01*
X1149093Y1203199D01*
X1149436Y1205810D01*
X1149093Y1208420D01*
X1148085Y1210853D01*
X1146482Y1212942D01*
X1146382Y1213019D01*
X1146746Y1214340D01*
X1147616Y1214513D01*
X1148773Y1215287D01*
X1169547Y1236060D01*
X1182750D01*
Y1241931D01*
X1184020Y1242316D01*
X1184717Y1241273D01*
X1186453Y1240113D01*
X1188502Y1239706D01*
X1198002D01*
X1200050Y1240113D01*
X1201787Y1241273D01*
X1202947Y1243010D01*
X1203354Y1245059D01*
Y1250558D01*
X1202947Y1252607D01*
X1201787Y1254343D01*
X1200050Y1255504D01*
X1198002Y1255911D01*
X1188502D01*
X1186453Y1255504D01*
X1184717Y1254343D01*
X1184020Y1253301D01*
X1182750Y1253686D01*
Y1261858D01*
X1184020Y1262243D01*
X1184686Y1261246D01*
X1186436Y1260077D01*
X1188500Y1259666D01*
X1191250D01*
Y1267810D01*
Y1275954D01*
X1188500D01*
X1186436Y1275543D01*
X1184686Y1274374D01*
X1184020Y1273377D01*
X1182750Y1273762D01*
Y1279560D01*
X1164750D01*
Y1241357D01*
X1144772Y1221379D01*
X1130525D01*
X1130039Y1222552D01*
X1148773Y1241287D01*
X1149547Y1242444D01*
X1149819Y1243810D01*
Y1274332D01*
X1160728Y1285241D01*
X1201772D01*
X1276727Y1210287D01*
D02*
G37*
G36*
X1337352Y1258661D02*
X1337000Y1257810D01*
X1337000D01*
Y1245379D01*
X1334250D01*
X1332884Y1245107D01*
X1331727Y1244333D01*
X1311772Y1224379D01*
X1303728D01*
X1297319Y1230788D01*
Y1235074D01*
X1297525Y1235218D01*
X1299250Y1234894D01*
X1299686Y1234241D01*
X1301436Y1233072D01*
X1303500Y1232662D01*
X1306250D01*
Y1240805D01*
Y1248949D01*
X1303500D01*
X1301436Y1248538D01*
X1299686Y1247369D01*
X1299250Y1246717D01*
X1297525Y1246393D01*
X1297319Y1246536D01*
Y1255608D01*
X1298493Y1255974D01*
X1298589Y1255955D01*
X1299713Y1254272D01*
X1301450Y1253111D01*
X1303498Y1252704D01*
X1312998D01*
X1315047Y1253111D01*
X1316783Y1254272D01*
X1317944Y1256008D01*
X1318351Y1258057D01*
Y1263557D01*
X1317944Y1265605D01*
X1317031Y1266971D01*
X1317549Y1268241D01*
X1327772D01*
X1337352Y1258661D01*
D02*
G37*
G36*
X1019681Y1214332D02*
Y1190810D01*
X1019953Y1189444D01*
X1020325Y1188888D01*
X1019646Y1187618D01*
X1013600D01*
Y1173828D01*
X1011600D01*
Y1171828D01*
X1001560D01*
Y1160654D01*
X996200D01*
Y1187578D01*
X989769D01*
Y1190860D01*
X989497Y1192226D01*
X988723Y1193383D01*
X981039Y1201068D01*
X981525Y1202241D01*
X997250D01*
X998615Y1202513D01*
X999773Y1203286D01*
X1003078Y1206592D01*
X1003292Y1206503D01*
X1005250Y1206245D01*
X1007208Y1206503D01*
X1009032Y1207259D01*
X1010599Y1208461D01*
X1011801Y1210028D01*
X1012557Y1211852D01*
X1012815Y1213810D01*
X1012557Y1215768D01*
X1011801Y1217592D01*
X1011510Y1217971D01*
X1012137Y1219241D01*
X1014772D01*
X1019681Y1214332D01*
D02*
G37*
G36*
X972564Y1198241D02*
X973772D01*
X982631Y1189382D01*
Y1187578D01*
X976200D01*
Y1160654D01*
X970800D01*
Y1187578D01*
X964369D01*
Y1189260D01*
X964097Y1190626D01*
X963323Y1191783D01*
X962709Y1192398D01*
X962954Y1193949D01*
X963460Y1194287D01*
X967414Y1198241D01*
X972563D01*
X972564Y1198241D01*
D02*
G37*
%LPC*%
G36*
X908250Y1786417D02*
Y1779310D01*
X915357D01*
X915301Y1779735D01*
X914365Y1781995D01*
X912876Y1783936D01*
X910935Y1785425D01*
X908675Y1786361D01*
X908250Y1786417D01*
D02*
G37*
G36*
X904250D02*
X903825Y1786361D01*
X901565Y1785425D01*
X899624Y1783936D01*
X898135Y1781995D01*
X897199Y1779735D01*
X897143Y1779310D01*
X904250D01*
Y1786417D01*
D02*
G37*
G36*
X915357Y1775310D02*
X908250D01*
Y1768203D01*
X908675Y1768259D01*
X910935Y1769195D01*
X912876Y1770684D01*
X914365Y1772625D01*
X915301Y1774885D01*
X915357Y1775310D01*
D02*
G37*
G36*
X904250D02*
X897143D01*
X897199Y1774885D01*
X898135Y1772625D01*
X899624Y1770684D01*
X901565Y1769195D01*
X903825Y1768259D01*
X904250Y1768203D01*
Y1775310D01*
D02*
G37*
G36*
X1232000Y1773954D02*
X1229250D01*
Y1767810D01*
X1237394D01*
Y1768560D01*
X1236983Y1770624D01*
X1235814Y1772374D01*
X1234064Y1773543D01*
X1232000Y1773954D01*
D02*
G37*
G36*
X1225250D02*
X1222500D01*
X1220436Y1773543D01*
X1218686Y1772374D01*
X1217517Y1770624D01*
X1217106Y1768560D01*
Y1767810D01*
X1225250D01*
Y1773954D01*
D02*
G37*
G36*
X1237394Y1763810D02*
X1229250D01*
Y1757666D01*
X1232000D01*
X1234064Y1758077D01*
X1235814Y1759246D01*
X1236983Y1760996D01*
X1237394Y1763060D01*
Y1763810D01*
D02*
G37*
G36*
X1225250D02*
X1217106D01*
Y1763060D01*
X1217517Y1760996D01*
X1218686Y1759246D01*
X1220436Y1758077D01*
X1222500Y1757666D01*
X1225250D01*
Y1763810D01*
D02*
G37*
G36*
X1261850Y1756773D02*
Y1748910D01*
X1269713D01*
X1269632Y1749531D01*
X1268620Y1751973D01*
X1267011Y1754071D01*
X1264913Y1755680D01*
X1262471Y1756692D01*
X1261850Y1756773D01*
D02*
G37*
G36*
X1257850Y1756773D02*
X1257229Y1756692D01*
X1254787Y1755680D01*
X1252689Y1754071D01*
X1251080Y1751973D01*
X1250068Y1749531D01*
X1249987Y1748910D01*
X1257850D01*
Y1756773D01*
D02*
G37*
G36*
Y1744910D02*
X1249987D01*
X1250068Y1744289D01*
X1251080Y1741847D01*
X1252689Y1739749D01*
X1254787Y1738140D01*
X1257229Y1737128D01*
X1257850Y1737047D01*
Y1744910D01*
D02*
G37*
G36*
X1269713D02*
X1261850D01*
Y1737047D01*
X1262471Y1737128D01*
X1264913Y1738140D01*
X1267011Y1739749D01*
X1268620Y1741847D01*
X1269632Y1744289D01*
X1269713Y1744910D01*
D02*
G37*
G36*
X1261850Y1731373D02*
Y1723510D01*
X1269713D01*
X1269632Y1724131D01*
X1268620Y1726573D01*
X1267011Y1728671D01*
X1264913Y1730280D01*
X1262471Y1731292D01*
X1261850Y1731373D01*
D02*
G37*
G36*
X1257850Y1731373D02*
X1257229Y1731292D01*
X1254787Y1730280D01*
X1252689Y1728671D01*
X1251080Y1726573D01*
X1250068Y1724131D01*
X1249987Y1723510D01*
X1257850D01*
Y1731373D01*
D02*
G37*
G36*
X1177290Y1728850D02*
X1167750D01*
Y1721810D01*
X1177290D01*
Y1728850D01*
D02*
G37*
G36*
X1163750D02*
X1154210D01*
Y1721810D01*
X1163750D01*
Y1728850D01*
D02*
G37*
G36*
X1257850Y1719510D02*
X1249987D01*
X1250068Y1718889D01*
X1251080Y1716447D01*
X1252689Y1714349D01*
X1254787Y1712740D01*
X1257229Y1711729D01*
X1257850Y1711647D01*
Y1719510D01*
D02*
G37*
G36*
X1269713D02*
X1261850D01*
Y1711647D01*
X1262471Y1711729D01*
X1264913Y1712740D01*
X1267011Y1714349D01*
X1268620Y1716447D01*
X1269632Y1718889D01*
X1269713Y1719510D01*
D02*
G37*
G36*
X1177290Y1717810D02*
X1167750D01*
Y1710770D01*
X1177290D01*
Y1717810D01*
D02*
G37*
G36*
X1163750D02*
X1154210D01*
Y1710770D01*
X1163750D01*
Y1717810D01*
D02*
G37*
G36*
X800290Y1704250D02*
X791250D01*
Y1700710D01*
X800290D01*
Y1704250D01*
D02*
G37*
G36*
X823395Y1705808D02*
X815252D01*
Y1699665D01*
X818002D01*
X820066Y1700075D01*
X821816Y1701245D01*
X822985Y1702995D01*
X823395Y1705058D01*
Y1705808D01*
D02*
G37*
G36*
X811252D02*
X803108D01*
Y1705058D01*
X803519Y1702995D01*
X804688Y1701245D01*
X806438Y1700075D01*
X808502Y1699665D01*
X811252D01*
Y1705808D01*
D02*
G37*
G36*
X1261850Y1705973D02*
Y1698110D01*
X1269713D01*
X1269632Y1698731D01*
X1268620Y1701173D01*
X1267011Y1703271D01*
X1264913Y1704880D01*
X1262471Y1705892D01*
X1261850Y1705973D01*
D02*
G37*
G36*
X1257850Y1705973D02*
X1257229Y1705892D01*
X1254787Y1704880D01*
X1252689Y1703271D01*
X1251080Y1701173D01*
X1250068Y1698731D01*
X1249987Y1698110D01*
X1257850D01*
Y1705973D01*
D02*
G37*
G36*
X800290Y1696710D02*
X791250D01*
Y1693170D01*
X800290D01*
Y1696710D01*
D02*
G37*
G36*
X1177250Y1705810D02*
X1154250D01*
Y1687810D01*
X1177250D01*
Y1705810D01*
D02*
G37*
G36*
X1257850Y1694110D02*
X1249987D01*
X1250068Y1693489D01*
X1251080Y1691047D01*
X1252689Y1688949D01*
X1254787Y1687340D01*
X1257229Y1686328D01*
X1257850Y1686247D01*
Y1694110D01*
D02*
G37*
G36*
X1269713D02*
X1261850D01*
Y1686247D01*
X1262471Y1686328D01*
X1264913Y1687340D01*
X1267011Y1688949D01*
X1268620Y1691047D01*
X1269632Y1693489D01*
X1269713Y1694110D01*
D02*
G37*
G36*
X1312331Y1826326D02*
X1250331D01*
Y1766326D01*
X1279642D01*
Y1755212D01*
X1278118Y1754042D01*
X1276515Y1751953D01*
X1275507Y1749521D01*
X1275164Y1746910D01*
X1275507Y1744299D01*
X1276515Y1741867D01*
X1278118Y1739778D01*
X1279642Y1738608D01*
Y1729812D01*
X1278118Y1728642D01*
X1276515Y1726553D01*
X1275507Y1724120D01*
X1275164Y1721510D01*
X1275507Y1718899D01*
X1276515Y1716467D01*
X1278118Y1714378D01*
X1279642Y1713208D01*
Y1704412D01*
X1278118Y1703242D01*
X1276515Y1701153D01*
X1275507Y1698721D01*
X1275164Y1696110D01*
X1275507Y1693499D01*
X1276515Y1691067D01*
X1278118Y1688978D01*
X1280207Y1687375D01*
X1282639Y1686367D01*
X1285250Y1686024D01*
X1287861Y1686367D01*
X1290293Y1687375D01*
X1292382Y1688978D01*
X1293985Y1691067D01*
X1294993Y1693499D01*
X1295336Y1696110D01*
X1294993Y1698721D01*
X1293985Y1701153D01*
X1292382Y1703242D01*
X1290858Y1704412D01*
Y1713208D01*
X1292382Y1714378D01*
X1293985Y1716467D01*
X1294993Y1718899D01*
X1295336Y1721510D01*
X1294993Y1724120D01*
X1293985Y1726553D01*
X1292382Y1728642D01*
X1290858Y1729812D01*
Y1738608D01*
X1292382Y1739778D01*
X1293985Y1741867D01*
X1294993Y1744299D01*
X1295336Y1746910D01*
X1294993Y1749521D01*
X1293985Y1751953D01*
X1292382Y1754042D01*
X1290858Y1755212D01*
Y1766326D01*
X1312331D01*
Y1826326D01*
D02*
G37*
G36*
X874250Y1683954D02*
X871500D01*
X869436Y1683543D01*
X868310Y1682791D01*
X867040Y1683355D01*
Y1683355D01*
X861750D01*
Y1676315D01*
Y1669275D01*
X867040D01*
X867040Y1669275D01*
X868166Y1668926D01*
X869436Y1668077D01*
X871500Y1667666D01*
X874250D01*
Y1675810D01*
Y1683954D01*
D02*
G37*
G36*
X813000Y1689954D02*
X812250D01*
Y1681810D01*
X818394D01*
Y1684560D01*
X817983Y1686624D01*
X816814Y1688374D01*
X815064Y1689543D01*
X813000Y1689954D01*
D02*
G37*
G36*
X808250D02*
X807500D01*
X805436Y1689543D01*
X803686Y1688374D01*
X802517Y1686624D01*
X802106Y1684560D01*
Y1681810D01*
X808250D01*
Y1689954D01*
D02*
G37*
G36*
X857750Y1683355D02*
X852460D01*
Y1678315D01*
X857750D01*
Y1683355D01*
D02*
G37*
G36*
X881000Y1683954D02*
X878250D01*
Y1677810D01*
X886394D01*
Y1678560D01*
X885983Y1680624D01*
X884814Y1682374D01*
X883064Y1683543D01*
X881000Y1683954D01*
D02*
G37*
G36*
X1111250Y1683417D02*
Y1676310D01*
X1118357D01*
X1118301Y1676735D01*
X1117365Y1678995D01*
X1115876Y1680936D01*
X1113935Y1682425D01*
X1111675Y1683361D01*
X1111250Y1683417D01*
D02*
G37*
G36*
X1107250Y1683417D02*
X1106825Y1683361D01*
X1104565Y1682425D01*
X1102624Y1680936D01*
X1101135Y1678995D01*
X1100199Y1676735D01*
X1100143Y1676310D01*
X1107250D01*
Y1683417D01*
D02*
G37*
G36*
X1269890Y1680750D02*
X1261850D01*
Y1672710D01*
X1269890D01*
Y1680750D01*
D02*
G37*
G36*
X1257850D02*
X1249810D01*
Y1672710D01*
X1257850D01*
Y1680750D01*
D02*
G37*
G36*
X1040250Y1681415D02*
X1037250D01*
Y1670810D01*
X1047855D01*
Y1673810D01*
X1047596Y1675778D01*
X1046836Y1677613D01*
X1045628Y1679188D01*
X1044053Y1680396D01*
X1042218Y1681156D01*
X1040250Y1681415D01*
D02*
G37*
G36*
X1033250D02*
X1030250D01*
X1028282Y1681156D01*
X1026448Y1680396D01*
X1024872Y1679188D01*
X1023664Y1677613D01*
X1022904Y1675778D01*
X1022645Y1673810D01*
Y1670810D01*
X1033250D01*
Y1681415D01*
D02*
G37*
G36*
X818394Y1677810D02*
X812250D01*
Y1669666D01*
X813000D01*
X815064Y1670077D01*
X816814Y1671246D01*
X817983Y1672996D01*
X818394Y1675060D01*
Y1677810D01*
D02*
G37*
G36*
X808250D02*
X802106D01*
Y1675060D01*
X802517Y1672996D01*
X803686Y1671246D01*
X805436Y1670077D01*
X807500Y1669666D01*
X808250D01*
Y1677810D01*
D02*
G37*
G36*
X857750Y1674315D02*
X852460D01*
Y1669275D01*
X857750D01*
Y1674315D01*
D02*
G37*
G36*
X1107250Y1672310D02*
X1100143D01*
X1100199Y1671885D01*
X1101135Y1669625D01*
X1102624Y1667684D01*
X1104565Y1666195D01*
X1106825Y1665259D01*
X1107250Y1665203D01*
Y1672310D01*
D02*
G37*
G36*
X1118357D02*
X1111250D01*
Y1665203D01*
X1111675Y1665259D01*
X1113935Y1666195D01*
X1115876Y1667684D01*
X1117365Y1669625D01*
X1118301Y1671885D01*
X1118357Y1672310D01*
D02*
G37*
G36*
X1407450Y1675744D02*
Y1658810D01*
X1424384D01*
X1424213Y1660542D01*
X1423125Y1664131D01*
X1421357Y1667439D01*
X1418978Y1670338D01*
X1416078Y1672717D01*
X1412771Y1674485D01*
X1409182Y1675574D01*
X1407450Y1675744D01*
D02*
G37*
G36*
X1403450Y1675744D02*
X1401717Y1675574D01*
X1398128Y1674485D01*
X1394821Y1672717D01*
X1391922Y1670338D01*
X1389543Y1667439D01*
X1387775Y1664131D01*
X1386686Y1660542D01*
X1386515Y1658810D01*
X1403450D01*
Y1675744D01*
D02*
G37*
G36*
X1047855Y1666810D02*
X1037250D01*
Y1656205D01*
X1040250D01*
X1042218Y1656464D01*
X1044053Y1657224D01*
X1045628Y1658432D01*
X1046836Y1660007D01*
X1047596Y1661842D01*
X1047855Y1663810D01*
Y1666810D01*
D02*
G37*
G36*
X1209000Y1659954D02*
X1208250D01*
Y1651810D01*
X1214394D01*
Y1654560D01*
X1213983Y1656624D01*
X1212814Y1658374D01*
X1211064Y1659543D01*
X1209000Y1659954D01*
D02*
G37*
G36*
X1204250D02*
X1203500D01*
X1201436Y1659543D01*
X1199686Y1658374D01*
X1198517Y1656624D01*
X1198106Y1654560D01*
Y1651810D01*
X1204250D01*
Y1659954D01*
D02*
G37*
G36*
X1190000D02*
X1189250D01*
Y1651810D01*
X1195394D01*
Y1654560D01*
X1194983Y1656624D01*
X1193814Y1658374D01*
X1192064Y1659543D01*
X1190000Y1659954D01*
D02*
G37*
G36*
X1185250D02*
X1184500D01*
X1182436Y1659543D01*
X1180686Y1658374D01*
X1179517Y1656624D01*
X1179106Y1654560D01*
Y1651810D01*
X1185250D01*
Y1659954D01*
D02*
G37*
G36*
X1060000Y1659954D02*
X1059250D01*
Y1651810D01*
X1065394D01*
Y1654560D01*
X1064983Y1656624D01*
X1063814Y1658374D01*
X1062064Y1659543D01*
X1060000Y1659954D01*
D02*
G37*
G36*
X1055250D02*
X1054500D01*
X1052436Y1659543D01*
X1050686Y1658374D01*
X1049517Y1656624D01*
X1049106Y1654560D01*
Y1651810D01*
X1055250D01*
Y1659954D01*
D02*
G37*
G36*
X758000Y1686913D02*
X752500D01*
X750452Y1686505D01*
X748715Y1685345D01*
X747555Y1683608D01*
X747147Y1681560D01*
Y1672060D01*
X747555Y1670012D01*
X748715Y1668275D01*
X750452Y1667115D01*
X752500Y1666707D01*
X758000D01*
X759923Y1667090D01*
X777327Y1649687D01*
X778484Y1648913D01*
X779850Y1648641D01*
X782100D01*
Y1641210D01*
X800100D01*
Y1648641D01*
X820145D01*
X821511Y1648913D01*
X822669Y1649687D01*
X832797Y1659815D01*
X842000D01*
Y1673815D01*
X827500D01*
Y1664612D01*
X818667Y1655779D01*
X800100D01*
Y1663210D01*
X782100D01*
Y1656803D01*
X780830Y1656277D01*
X763353Y1673754D01*
Y1681560D01*
X762945Y1683608D01*
X761785Y1685345D01*
X760048Y1686505D01*
X758000Y1686913D01*
D02*
G37*
G36*
X1204250Y1647810D02*
X1198106D01*
Y1645060D01*
X1198517Y1642996D01*
X1199686Y1641246D01*
X1201436Y1640077D01*
X1203500Y1639666D01*
X1204250D01*
Y1647810D01*
D02*
G37*
G36*
X1195394Y1647810D02*
X1189250D01*
Y1639666D01*
X1190000D01*
X1192064Y1640077D01*
X1193814Y1641246D01*
X1194983Y1642996D01*
X1195394Y1645060D01*
Y1647810D01*
D02*
G37*
G36*
X1185250D02*
X1179106D01*
Y1645060D01*
X1179517Y1642996D01*
X1180686Y1641246D01*
X1182436Y1640077D01*
X1184500Y1639666D01*
X1185250D01*
Y1647810D01*
D02*
G37*
G36*
X1424384Y1654810D02*
X1407450D01*
Y1637876D01*
X1409182Y1638046D01*
X1412771Y1639135D01*
X1416078Y1640903D01*
X1418978Y1643282D01*
X1421357Y1646181D01*
X1423125Y1649489D01*
X1424213Y1653078D01*
X1424384Y1654810D01*
D02*
G37*
G36*
X1403450D02*
X1386515D01*
X1386686Y1653078D01*
X1387775Y1649489D01*
X1389543Y1646181D01*
X1391922Y1643282D01*
X1394821Y1640903D01*
X1398128Y1639135D01*
X1401717Y1638046D01*
X1403450Y1637876D01*
Y1654810D01*
D02*
G37*
G36*
X1064790Y1632310D02*
X1059750D01*
Y1627020D01*
X1064790D01*
Y1632310D01*
D02*
G37*
G36*
X1354752Y1628379D02*
X1287250D01*
X1285884Y1628107D01*
X1284727Y1627333D01*
X1279923Y1622530D01*
X1278000Y1622913D01*
X1272500D01*
X1270452Y1622505D01*
X1268715Y1621345D01*
X1267555Y1619608D01*
X1267147Y1617560D01*
Y1608060D01*
X1267555Y1606012D01*
X1268715Y1604275D01*
X1270452Y1603115D01*
X1272500Y1602707D01*
X1278000D01*
X1280048Y1603115D01*
X1281785Y1604275D01*
X1282945Y1606012D01*
X1283353Y1608060D01*
Y1615866D01*
X1288728Y1621241D01*
X1353274D01*
X1355251Y1619264D01*
Y1603811D01*
X1372481D01*
X1376308Y1599984D01*
X1375822Y1598811D01*
X1355251D01*
Y1580811D01*
X1377837D01*
X1378251Y1580811D01*
X1379107Y1579896D01*
Y1577061D01*
X1379167Y1576758D01*
X1378254Y1576015D01*
X1377857Y1575851D01*
X1377857Y1575851D01*
X1368751D01*
Y1568811D01*
X1378291D01*
Y1574436D01*
X1379467Y1574949D01*
X1379561Y1574933D01*
X1380687Y1573247D01*
X1382437Y1572078D01*
X1384501Y1571667D01*
X1387251D01*
Y1579811D01*
Y1587955D01*
X1384501D01*
X1382437Y1587544D01*
X1380687Y1586375D01*
X1379518Y1584625D01*
X1378251Y1584765D01*
Y1595055D01*
X1379521Y1595180D01*
X1379554Y1595014D01*
X1380714Y1593278D01*
X1382451Y1592117D01*
X1384499Y1591710D01*
X1393999D01*
X1396047Y1592117D01*
X1397784Y1593278D01*
X1398944Y1595014D01*
X1399352Y1597063D01*
Y1600144D01*
X1415939Y1616732D01*
X1424699D01*
X1425185Y1615558D01*
X1423474Y1613847D01*
Y1611309D01*
X1432549D01*
X1441624D01*
Y1612029D01*
X1442894Y1612634D01*
X1443514Y1612157D01*
Y1604792D01*
X1448031Y1600274D01*
X1457066D01*
X1461584Y1604792D01*
Y1613827D01*
X1457066Y1618344D01*
X1449281D01*
X1443932Y1623694D01*
X1442609Y1624578D01*
X1441048Y1624888D01*
X1441048Y1624888D01*
X1414250D01*
X1414250Y1624888D01*
X1412689Y1624578D01*
X1411366Y1623694D01*
X1411366Y1623694D01*
X1395324Y1607652D01*
X1393999Y1607915D01*
X1384499D01*
X1382451Y1607508D01*
X1381173Y1606655D01*
X1378251Y1609577D01*
Y1621811D01*
X1362797D01*
X1357275Y1627333D01*
X1356118Y1628107D01*
X1354752Y1628379D01*
D02*
G37*
G36*
X882000Y1631084D02*
X879020Y1630790D01*
X876155Y1629921D01*
X873514Y1628510D01*
X871200Y1626610D01*
X869301Y1624296D01*
X867889Y1621655D01*
X867020Y1618790D01*
X866726Y1615810D01*
X867020Y1612830D01*
X867889Y1609965D01*
X869301Y1607325D01*
X871200Y1605010D01*
X873514Y1603111D01*
X876155Y1601699D01*
X879020Y1600830D01*
X882000Y1600536D01*
X884980Y1600830D01*
X887845Y1601699D01*
X890486Y1603111D01*
X892800Y1605010D01*
X894699Y1607325D01*
X896111Y1609965D01*
X896980Y1612830D01*
X897273Y1615810D01*
X896980Y1618790D01*
X896111Y1621655D01*
X894699Y1624296D01*
X892800Y1626610D01*
X890486Y1628510D01*
X887845Y1629921D01*
X884980Y1630790D01*
X882000Y1631084D01*
D02*
G37*
G36*
X1441624Y1607309D02*
X1434549D01*
Y1600234D01*
X1437086D01*
X1441624Y1604772D01*
Y1607309D01*
D02*
G37*
G36*
X1430549D02*
X1423474D01*
Y1604772D01*
X1428011Y1600234D01*
X1430549D01*
Y1607309D01*
D02*
G37*
G36*
X1394001Y1587955D02*
X1391251D01*
Y1581811D01*
X1399394D01*
Y1582561D01*
X1398984Y1584625D01*
X1397815Y1586375D01*
X1396065Y1587544D01*
X1394001Y1587955D01*
D02*
G37*
G36*
X1399394Y1577811D02*
X1391251D01*
Y1571667D01*
X1394001D01*
X1396065Y1572078D01*
X1397815Y1573247D01*
X1398984Y1574997D01*
X1399394Y1577061D01*
Y1577811D01*
D02*
G37*
G36*
X1364751Y1575851D02*
X1355211D01*
Y1568811D01*
X1364751D01*
Y1575851D01*
D02*
G37*
G36*
X1314751Y1611561D02*
X1296751D01*
Y1568061D01*
X1296751D01*
X1297039Y1567366D01*
X1290323Y1560650D01*
X1289001Y1560913D01*
X1283501D01*
X1281452Y1560506D01*
X1279716Y1559346D01*
X1278555Y1557609D01*
X1278148Y1555561D01*
Y1546061D01*
X1278555Y1544012D01*
X1279716Y1542276D01*
X1281452Y1541115D01*
X1282172Y1540972D01*
Y1539649D01*
X1281452Y1539506D01*
X1279716Y1538346D01*
X1278555Y1536609D01*
X1278148Y1534561D01*
Y1525061D01*
X1278555Y1523012D01*
X1279716Y1521276D01*
X1281452Y1520115D01*
X1282172Y1519972D01*
Y1495500D01*
X1272838Y1486166D01*
X1271250Y1486375D01*
X1269292Y1486117D01*
X1267468Y1485361D01*
X1265901Y1484159D01*
X1264699Y1482592D01*
X1263943Y1480768D01*
X1263685Y1478810D01*
X1263943Y1476852D01*
X1264699Y1475028D01*
X1265901Y1473461D01*
X1267468Y1472259D01*
X1269292Y1471503D01*
X1271250Y1471245D01*
X1273208Y1471503D01*
X1275032Y1472259D01*
X1276599Y1473461D01*
X1277801Y1475028D01*
X1278557Y1476852D01*
X1278815Y1478810D01*
X1278606Y1480398D01*
X1289135Y1490927D01*
X1290019Y1492250D01*
X1290329Y1493811D01*
X1290329Y1493811D01*
Y1519972D01*
X1291049Y1520115D01*
X1292786Y1521276D01*
X1293946Y1523012D01*
X1294354Y1525061D01*
Y1534561D01*
X1293946Y1536609D01*
X1292786Y1538346D01*
X1291049Y1539506D01*
X1290329Y1539649D01*
Y1540972D01*
X1291049Y1541115D01*
X1292786Y1542276D01*
X1293946Y1544012D01*
X1294354Y1546061D01*
Y1553146D01*
X1308634Y1567427D01*
X1308634Y1567427D01*
X1309059Y1568061D01*
X1314751D01*
Y1611561D01*
D02*
G37*
G36*
X882000Y1589084D02*
X879020Y1588790D01*
X876155Y1587921D01*
X873514Y1586510D01*
X871200Y1584610D01*
X869301Y1582296D01*
X867889Y1579655D01*
X867020Y1576790D01*
X866726Y1573810D01*
X867020Y1570830D01*
X867889Y1567965D01*
X869301Y1565325D01*
X871200Y1563010D01*
X873514Y1561111D01*
X876155Y1559699D01*
X879020Y1558830D01*
X882000Y1558536D01*
X884980Y1558830D01*
X887845Y1559699D01*
X890486Y1561111D01*
X892800Y1563010D01*
X894699Y1565325D01*
X896111Y1567965D01*
X896980Y1570830D01*
X897273Y1573810D01*
X896980Y1576790D01*
X896111Y1579655D01*
X894699Y1582296D01*
X892800Y1584610D01*
X890486Y1586510D01*
X887845Y1587921D01*
X884980Y1588790D01*
X882000Y1589084D01*
D02*
G37*
G36*
X798250Y1618810D02*
X738250D01*
Y1556810D01*
X798250D01*
Y1561202D01*
X818403D01*
X818514Y1561111D01*
X821155Y1559699D01*
X824020Y1558830D01*
X827000Y1558536D01*
X829980Y1558830D01*
X832845Y1559699D01*
X835486Y1561111D01*
X837800Y1563010D01*
X839699Y1565325D01*
X841111Y1567965D01*
X841980Y1570830D01*
X842273Y1573810D01*
X841980Y1576790D01*
X841111Y1579655D01*
X839699Y1582296D01*
X837800Y1584610D01*
X835486Y1586510D01*
X832845Y1587921D01*
X829980Y1588790D01*
X827000Y1589084D01*
X824020Y1588790D01*
X821155Y1587921D01*
X818514Y1586510D01*
X818403Y1586418D01*
X798250D01*
Y1618810D01*
D02*
G37*
G36*
X1378291Y1564811D02*
X1368751D01*
Y1557771D01*
X1378291D01*
Y1564811D01*
D02*
G37*
G36*
X1364751D02*
X1355211D01*
Y1557771D01*
X1364751D01*
Y1564811D01*
D02*
G37*
G36*
X904250Y1665375D02*
X902292Y1665117D01*
X900468Y1664361D01*
X898901Y1663159D01*
X897699Y1661592D01*
X896943Y1659768D01*
X896685Y1657810D01*
X896943Y1655852D01*
X897699Y1654028D01*
X898901Y1652461D01*
X900468Y1651259D01*
X902172Y1650553D01*
Y1558499D01*
X896838Y1553166D01*
X895250Y1553375D01*
X893292Y1553117D01*
X891468Y1552361D01*
X889901Y1551159D01*
X888699Y1549592D01*
X887943Y1547768D01*
X887685Y1545810D01*
X887943Y1543852D01*
X888699Y1542028D01*
X889901Y1540461D01*
X891468Y1539259D01*
X893292Y1538503D01*
X895250Y1538245D01*
X897208Y1538503D01*
X899032Y1539259D01*
X900599Y1540461D01*
X901801Y1542028D01*
X902557Y1543852D01*
X902815Y1545810D01*
X902606Y1547398D01*
X909134Y1553926D01*
X910018Y1555249D01*
X910328Y1556810D01*
X910328Y1556810D01*
Y1653411D01*
X910801Y1654028D01*
X911557Y1655852D01*
X911815Y1657810D01*
X911557Y1659768D01*
X910801Y1661592D01*
X909599Y1663159D01*
X908032Y1664361D01*
X906208Y1665117D01*
X904250Y1665375D01*
D02*
G37*
G36*
X1268999Y1560952D02*
X1268249D01*
Y1552809D01*
X1274393D01*
Y1555559D01*
X1273982Y1557623D01*
X1272813Y1559373D01*
X1271063Y1560542D01*
X1268999Y1560952D01*
D02*
G37*
G36*
X1264249D02*
X1263499D01*
X1261435Y1560542D01*
X1259685Y1559373D01*
X1258516Y1557623D01*
X1258106Y1555559D01*
Y1552809D01*
X1264249D01*
Y1560952D01*
D02*
G37*
G36*
X1274393Y1548809D02*
X1266249D01*
X1258106D01*
Y1546059D01*
X1258516Y1543995D01*
X1259685Y1542245D01*
X1261435Y1541076D01*
X1262036Y1540956D01*
Y1539662D01*
X1261435Y1539542D01*
X1259685Y1538373D01*
X1258516Y1536623D01*
X1258106Y1534559D01*
Y1531809D01*
X1266249D01*
X1274393D01*
Y1534559D01*
X1273982Y1536623D01*
X1272813Y1538373D01*
X1271063Y1539542D01*
X1270462Y1539662D01*
Y1540956D01*
X1271063Y1541076D01*
X1272813Y1542245D01*
X1273982Y1543995D01*
X1274393Y1546059D01*
Y1548809D01*
D02*
G37*
G36*
Y1527809D02*
X1268249D01*
Y1519665D01*
X1268999D01*
X1271063Y1520076D01*
X1272813Y1521245D01*
X1273982Y1522995D01*
X1274393Y1525059D01*
Y1527809D01*
D02*
G37*
G36*
X1264249D02*
X1258106D01*
Y1525059D01*
X1258516Y1522995D01*
X1259685Y1521245D01*
X1261435Y1520076D01*
X1263499Y1519665D01*
X1264249D01*
Y1527809D01*
D02*
G37*
G36*
X784499Y1834060D02*
X715999D01*
Y1765560D01*
X737641D01*
Y1743419D01*
X723251D01*
X719988Y1742990D01*
X716947Y1741730D01*
X714336Y1739726D01*
X714336Y1739726D01*
X714335Y1739725D01*
X712331Y1737114D01*
X711072Y1734073D01*
X710642Y1730810D01*
X711072Y1727547D01*
X712331Y1724506D01*
X714335Y1721895D01*
X716946Y1719891D01*
X719750Y1718730D01*
Y1718610D01*
X720152D01*
X723250Y1718202D01*
X723259Y1718203D01*
X726126D01*
X726727Y1716933D01*
X726707Y1716910D01*
X719750D01*
Y1709711D01*
X719072Y1708073D01*
X718642Y1704810D01*
Y1643282D01*
X710335Y1634975D01*
X708331Y1632364D01*
X707072Y1629323D01*
X706642Y1626060D01*
Y1531810D01*
X707072Y1528547D01*
X708331Y1525506D01*
X710335Y1522895D01*
X712946Y1520891D01*
X715987Y1519632D01*
X717427Y1519442D01*
X717922Y1518096D01*
X717754Y1517910D01*
X717754Y1517910D01*
X716823Y1517092D01*
X715946Y1516729D01*
X713335Y1514725D01*
X711331Y1512114D01*
X710072Y1509073D01*
X709642Y1505810D01*
X710072Y1502547D01*
X711331Y1499506D01*
X713335Y1496895D01*
X715946Y1494891D01*
X718987Y1493632D01*
X722250Y1493202D01*
X727242D01*
Y1462310D01*
X726950D01*
Y1417310D01*
X752750D01*
Y1426241D01*
X755310D01*
X755555Y1425012D01*
X756715Y1423275D01*
X758452Y1422115D01*
X760500Y1421707D01*
X770000D01*
X772048Y1422115D01*
X773785Y1423275D01*
X774945Y1425012D01*
X775353Y1427060D01*
Y1432560D01*
X774945Y1434608D01*
X773785Y1436345D01*
X772048Y1437505D01*
X770000Y1437913D01*
X760500D01*
X758452Y1437505D01*
X756715Y1436345D01*
X755555Y1434608D01*
X755310Y1433379D01*
X752750D01*
Y1462310D01*
X752458D01*
Y1505210D01*
X752028Y1508473D01*
X750769Y1511514D01*
X748765Y1514125D01*
X748165Y1514725D01*
X745554Y1516729D01*
X742513Y1517988D01*
X739775Y1518349D01*
X739754Y1519610D01*
X739754Y1519633D01*
Y1520146D01*
X741554Y1520891D01*
X744165Y1522895D01*
X746169Y1525506D01*
X747428Y1528547D01*
X747858Y1531810D01*
X747428Y1535073D01*
X746169Y1538114D01*
X744165Y1540725D01*
X741554Y1542729D01*
X738513Y1543988D01*
X735250Y1544418D01*
X731858D01*
Y1620838D01*
X740165Y1629145D01*
X740165Y1629145D01*
X742169Y1631756D01*
X743428Y1634797D01*
X743858Y1638060D01*
Y1641210D01*
X754400D01*
Y1663210D01*
X743858D01*
Y1692202D01*
X750250D01*
X753513Y1692632D01*
X756554Y1693891D01*
X759165Y1695895D01*
X761169Y1698506D01*
X762428Y1701547D01*
X762858Y1704810D01*
X762428Y1708073D01*
X761169Y1711114D01*
X759165Y1713725D01*
X756554Y1715729D01*
X753513Y1716988D01*
X752131Y1717170D01*
Y1718451D01*
X753512Y1718633D01*
X756553Y1719892D01*
X759164Y1721896D01*
X761168Y1724507D01*
X762427Y1727548D01*
X762857Y1730811D01*
Y1765560D01*
X784499D01*
Y1834060D01*
D02*
G37*
G36*
X1424384Y1534810D02*
X1405450D01*
X1386515D01*
X1386686Y1533078D01*
X1387775Y1529489D01*
X1389543Y1526181D01*
X1391922Y1523282D01*
X1394821Y1520903D01*
X1397612Y1519411D01*
X1397777Y1517993D01*
X1395833Y1516049D01*
X1401591Y1510291D01*
X1407349Y1504532D01*
X1409294Y1506477D01*
X1410463Y1508226D01*
X1410874Y1510291D01*
X1410463Y1512354D01*
X1409294Y1514104D01*
X1406745Y1516653D01*
X1407173Y1517849D01*
X1409182Y1518046D01*
X1412771Y1519135D01*
X1416078Y1520903D01*
X1418978Y1523282D01*
X1421357Y1526181D01*
X1423125Y1529489D01*
X1424213Y1533078D01*
X1424384Y1534810D01*
D02*
G37*
G36*
X1393004Y1513221D02*
X1391060Y1511276D01*
X1389890Y1509526D01*
X1389480Y1507462D01*
X1389890Y1505398D01*
X1391060Y1503648D01*
X1391590Y1503118D01*
X1397348Y1508876D01*
X1393004Y1513221D01*
D02*
G37*
G36*
X798294Y1505250D02*
X789254D01*
Y1501710D01*
X798294D01*
Y1505250D01*
D02*
G37*
G36*
X821395Y1507809D02*
X813252D01*
Y1501665D01*
X816002D01*
X818066Y1502076D01*
X819816Y1503245D01*
X820985Y1504995D01*
X821395Y1507059D01*
Y1507809D01*
D02*
G37*
G36*
X809252D02*
X801108D01*
Y1507059D01*
X801519Y1504995D01*
X802688Y1503245D01*
X804438Y1502076D01*
X806502Y1501665D01*
X809252D01*
Y1507809D01*
D02*
G37*
G36*
X1400177Y1506048D02*
X1394418Y1500289D01*
X1394949Y1499759D01*
X1396698Y1498590D01*
X1398763Y1498179D01*
X1400827Y1498590D01*
X1402576Y1499759D01*
X1404521Y1501704D01*
X1400177Y1506048D01*
D02*
G37*
G36*
X798294Y1497710D02*
X789254D01*
Y1494170D01*
X798294D01*
Y1497710D01*
D02*
G37*
G36*
X811000Y1490954D02*
X810250D01*
Y1482810D01*
X816394D01*
Y1485560D01*
X815983Y1487624D01*
X814814Y1489374D01*
X813064Y1490543D01*
X811000Y1490954D01*
D02*
G37*
G36*
X806250D02*
X805500D01*
X803436Y1490543D01*
X801686Y1489374D01*
X800517Y1487624D01*
X800106Y1485560D01*
Y1482810D01*
X806250D01*
Y1490954D01*
D02*
G37*
G36*
X1441736Y1479430D02*
X1439672Y1479019D01*
X1437922Y1477850D01*
X1435978Y1475906D01*
X1440322Y1471561D01*
X1446080Y1477320D01*
X1445550Y1477850D01*
X1443800Y1479019D01*
X1441736Y1479430D01*
D02*
G37*
G36*
X816394Y1478810D02*
X810250D01*
Y1470666D01*
X811000D01*
X813064Y1471077D01*
X814814Y1472246D01*
X815983Y1473996D01*
X816394Y1476060D01*
Y1478810D01*
D02*
G37*
G36*
X806250D02*
X800106D01*
Y1476060D01*
X800517Y1473996D01*
X801686Y1472246D01*
X803436Y1471077D01*
X805500Y1470666D01*
X806250D01*
Y1478810D01*
D02*
G37*
G36*
X1448909Y1474491D02*
X1443151Y1468733D01*
X1447495Y1464389D01*
X1449439Y1466333D01*
X1450609Y1468083D01*
X1451019Y1470147D01*
X1450609Y1472211D01*
X1449439Y1473961D01*
X1448909Y1474491D01*
D02*
G37*
G36*
X1433150Y1473077D02*
X1431205Y1471133D01*
X1430036Y1469383D01*
X1429625Y1467319D01*
X1430036Y1465255D01*
X1431205Y1463505D01*
X1431735Y1462975D01*
X1437494Y1468733D01*
X1433150Y1473077D01*
D02*
G37*
G36*
X1166250Y1468954D02*
X1165500D01*
X1163436Y1468543D01*
X1161686Y1467374D01*
X1160517Y1465624D01*
X1160106Y1463560D01*
Y1460810D01*
X1166250D01*
Y1468954D01*
D02*
G37*
G36*
X816000Y1467954D02*
X815250D01*
Y1459810D01*
X821394D01*
Y1462560D01*
X820983Y1464624D01*
X819814Y1466374D01*
X818064Y1467543D01*
X816000Y1467954D01*
D02*
G37*
G36*
X811250D02*
X810500D01*
X808436Y1467543D01*
X806686Y1466374D01*
X805517Y1464624D01*
X805106Y1462560D01*
Y1459810D01*
X811250D01*
Y1467954D01*
D02*
G37*
G36*
X1440322Y1465905D02*
X1434564Y1460146D01*
X1435094Y1459616D01*
X1436844Y1458447D01*
X1438908Y1458036D01*
X1440972Y1458447D01*
X1442722Y1459616D01*
X1444666Y1461560D01*
X1440322Y1465905D01*
D02*
G37*
G36*
X1333250Y1457954D02*
X1330500D01*
X1328436Y1457543D01*
X1326686Y1456374D01*
X1326385Y1455923D01*
X1325115D01*
X1324814Y1456374D01*
X1323064Y1457543D01*
X1321000Y1457954D01*
X1318250D01*
Y1449810D01*
Y1441666D01*
X1321000D01*
X1323064Y1442077D01*
X1324814Y1443246D01*
X1325115Y1443697D01*
X1326385D01*
X1326686Y1443246D01*
X1328436Y1442077D01*
X1330500Y1441666D01*
X1333250D01*
Y1449810D01*
Y1457954D01*
D02*
G37*
G36*
X803550Y1462310D02*
X777750D01*
Y1453379D01*
X775190D01*
X774945Y1454608D01*
X773785Y1456345D01*
X772048Y1457505D01*
X770000Y1457913D01*
X760500D01*
X758452Y1457505D01*
X756715Y1456345D01*
X755555Y1454608D01*
X755147Y1452560D01*
Y1447060D01*
X755555Y1445012D01*
X756715Y1443275D01*
X758452Y1442115D01*
X760500Y1441707D01*
X770000D01*
X772048Y1442115D01*
X773785Y1443275D01*
X774945Y1445012D01*
X775190Y1446241D01*
X777750D01*
Y1417310D01*
X798703D01*
X803227Y1412787D01*
X804384Y1412013D01*
X805750Y1411741D01*
X816250D01*
Y1408060D01*
X830250D01*
Y1422560D01*
X816250D01*
Y1418879D01*
X807228D01*
X803550Y1422557D01*
Y1462310D01*
D02*
G37*
G36*
X1340000Y1457954D02*
X1337250D01*
Y1451810D01*
X1345394D01*
Y1452560D01*
X1344983Y1454624D01*
X1343814Y1456374D01*
X1342064Y1457543D01*
X1340000Y1457954D01*
D02*
G37*
G36*
X821394Y1455810D02*
X813250D01*
X805106D01*
Y1453060D01*
X805517Y1450996D01*
X806686Y1449246D01*
X807249Y1448870D01*
X806864Y1447600D01*
X806710D01*
Y1442310D01*
X813750D01*
X820790D01*
Y1447600D01*
X819636D01*
X819251Y1448870D01*
X819814Y1449246D01*
X820983Y1450996D01*
X821394Y1453060D01*
Y1455810D01*
D02*
G37*
G36*
X1345394Y1447810D02*
X1337250D01*
Y1441666D01*
X1340000D01*
X1342064Y1442077D01*
X1343814Y1443246D01*
X1344983Y1444996D01*
X1345394Y1447060D01*
Y1447810D01*
D02*
G37*
G36*
X836000Y1467913D02*
X830500D01*
X828452Y1467505D01*
X826715Y1466345D01*
X825555Y1464608D01*
X825147Y1462560D01*
Y1453060D01*
X825555Y1451012D01*
X826715Y1449275D01*
X827381Y1448830D01*
X826996Y1447560D01*
X825750D01*
Y1433060D01*
X839750D01*
Y1436741D01*
X841750D01*
X843116Y1437013D01*
X844018Y1437616D01*
X844292Y1437503D01*
X846250Y1437245D01*
X848208Y1437503D01*
X850032Y1438259D01*
X851599Y1439461D01*
X852801Y1441028D01*
X853557Y1442852D01*
X853815Y1444810D01*
X853557Y1446768D01*
X852801Y1448592D01*
X851599Y1450159D01*
X850032Y1451361D01*
X848208Y1452117D01*
X846250Y1452375D01*
X844292Y1452117D01*
X842468Y1451361D01*
X842281Y1451218D01*
X841129Y1451935D01*
X841353Y1453060D01*
Y1462560D01*
X840945Y1464608D01*
X839785Y1466345D01*
X838048Y1467505D01*
X836000Y1467913D01*
D02*
G37*
G36*
X820790Y1438310D02*
X815750D01*
Y1433020D01*
X820790D01*
Y1438310D01*
D02*
G37*
G36*
X811750D02*
X806710D01*
Y1433020D01*
X811750D01*
Y1438310D01*
D02*
G37*
G36*
X1364250Y1421954D02*
X1361500D01*
X1359436Y1421543D01*
X1357686Y1420374D01*
X1356517Y1418624D01*
X1356106Y1416560D01*
Y1415810D01*
X1364250D01*
Y1421954D01*
D02*
G37*
G36*
X1376394Y1411810D02*
X1368250D01*
Y1405666D01*
X1371000D01*
X1373064Y1406077D01*
X1374814Y1407246D01*
X1375983Y1408996D01*
X1376394Y1411060D01*
Y1411810D01*
D02*
G37*
G36*
X1364250D02*
X1356106D01*
Y1411060D01*
X1356517Y1408996D01*
X1357686Y1407246D01*
X1359436Y1406077D01*
X1361500Y1405666D01*
X1364250D01*
Y1411810D01*
D02*
G37*
G36*
X1466290Y1399650D02*
X1457250D01*
Y1396110D01*
X1466290D01*
Y1399650D01*
D02*
G37*
G36*
Y1392110D02*
X1457250D01*
Y1388570D01*
X1466290D01*
Y1392110D01*
D02*
G37*
G36*
X1342614Y1396060D02*
X1340750D01*
Y1388338D01*
X1341482Y1388828D01*
X1342320Y1390081D01*
X1342614Y1391560D01*
Y1396060D01*
D02*
G37*
G36*
X1223000Y1391954D02*
X1220250D01*
Y1385810D01*
X1228394D01*
Y1386560D01*
X1227983Y1388624D01*
X1226814Y1390374D01*
X1225064Y1391543D01*
X1223000Y1391954D01*
D02*
G37*
G36*
X1216250D02*
X1213500D01*
X1211436Y1391543D01*
X1209686Y1390374D01*
X1208517Y1388624D01*
X1208106Y1386560D01*
Y1385810D01*
X1216250D01*
Y1391954D01*
D02*
G37*
G36*
X1168000Y1392954D02*
X1167250D01*
Y1384810D01*
X1173394D01*
Y1387560D01*
X1172983Y1389624D01*
X1171814Y1391374D01*
X1170064Y1392543D01*
X1168000Y1392954D01*
D02*
G37*
G36*
X966650Y1387178D02*
Y1378810D01*
X975018D01*
X974919Y1379561D01*
X973857Y1382126D01*
X972167Y1384327D01*
X969965Y1386017D01*
X967402Y1387079D01*
X966650Y1387178D01*
D02*
G37*
G36*
X912650D02*
Y1378810D01*
X921018D01*
X920919Y1379561D01*
X919857Y1382126D01*
X918167Y1384327D01*
X915965Y1386017D01*
X913401Y1387079D01*
X912650Y1387178D01*
D02*
G37*
G36*
X962650Y1387178D02*
X961898Y1387079D01*
X959334Y1386017D01*
X957133Y1384327D01*
X955443Y1382126D01*
X954381Y1379561D01*
X954282Y1378810D01*
X962650D01*
Y1387178D01*
D02*
G37*
G36*
X908650D02*
X907898Y1387079D01*
X905334Y1386017D01*
X903133Y1384327D01*
X901443Y1382126D01*
X900381Y1379561D01*
X900282Y1378810D01*
X908650D01*
Y1387178D01*
D02*
G37*
G36*
X1228394Y1381810D02*
X1220250D01*
Y1375666D01*
X1223000D01*
X1225064Y1376077D01*
X1226814Y1377246D01*
X1227983Y1378996D01*
X1228394Y1381060D01*
Y1381810D01*
D02*
G37*
G36*
X1216250D02*
X1208106D01*
Y1381060D01*
X1208517Y1378996D01*
X1209686Y1377246D01*
X1211436Y1376077D01*
X1213500Y1375666D01*
X1216250D01*
Y1381810D01*
D02*
G37*
G36*
X1173394Y1380810D02*
X1167250D01*
Y1372666D01*
X1168000D01*
X1170064Y1373077D01*
X1171814Y1374246D01*
X1172983Y1375996D01*
X1173394Y1378060D01*
Y1380810D01*
D02*
G37*
G36*
X857250Y1374954D02*
X854500D01*
X852436Y1374543D01*
X850686Y1373374D01*
X849990Y1372331D01*
X848462D01*
X847784Y1373346D01*
X846047Y1374507D01*
X843999Y1374914D01*
X834499D01*
X832451Y1374507D01*
X830714Y1373346D01*
X829554Y1371610D01*
X829146Y1369561D01*
Y1364061D01*
X829554Y1362013D01*
X829836Y1361590D01*
X829681Y1360812D01*
Y1292288D01*
X822772Y1285379D01*
X780750D01*
X779384Y1285107D01*
X778227Y1284333D01*
X763727Y1269833D01*
X762953Y1268676D01*
X762681Y1267310D01*
Y1225538D01*
X752193Y1215050D01*
X750095Y1216171D01*
X747230Y1217040D01*
X744250Y1217334D01*
X741270Y1217040D01*
X738405Y1216171D01*
X735764Y1214760D01*
X733450Y1212860D01*
X731550Y1210546D01*
X730139Y1207905D01*
X729270Y1205040D01*
X728976Y1202060D01*
X729270Y1199080D01*
X730139Y1196215D01*
X731550Y1193575D01*
X731642Y1193463D01*
Y1153033D01*
X729629Y1150580D01*
X728004Y1147539D01*
X727003Y1144241D01*
X726665Y1140810D01*
X727003Y1137379D01*
X728004Y1134081D01*
X729629Y1131040D01*
X731816Y1128376D01*
X734481Y1126189D01*
X737521Y1124564D01*
X740819Y1123563D01*
X744250Y1123225D01*
X747681Y1123563D01*
X750979Y1124564D01*
X754019Y1126189D01*
X756684Y1128376D01*
X758871Y1131040D01*
X760496Y1134081D01*
X761497Y1137379D01*
X761835Y1140810D01*
X761497Y1144241D01*
X760496Y1147539D01*
X758871Y1150580D01*
X756858Y1153033D01*
Y1193463D01*
X756949Y1193575D01*
X758361Y1196215D01*
X759230Y1199080D01*
X759523Y1202060D01*
X759230Y1205040D01*
X758361Y1207905D01*
X757240Y1210003D01*
X768773Y1221537D01*
X769547Y1222694D01*
X769819Y1224060D01*
Y1265832D01*
X782228Y1278241D01*
X824250D01*
X825616Y1278513D01*
X826773Y1279287D01*
X835773Y1288287D01*
X836547Y1289444D01*
X836819Y1290810D01*
Y1358708D01*
X843999D01*
X846047Y1359116D01*
X847784Y1360276D01*
X848461Y1361290D01*
X849989D01*
X850686Y1360246D01*
X852436Y1359077D01*
X854500Y1358666D01*
X857250D01*
Y1366810D01*
Y1374954D01*
D02*
G37*
G36*
X1466290Y1374250D02*
X1457250D01*
Y1370710D01*
X1466290D01*
Y1374250D01*
D02*
G37*
G36*
X864000Y1374954D02*
X861250D01*
Y1368810D01*
X869394D01*
Y1369560D01*
X868983Y1371624D01*
X867814Y1373374D01*
X866064Y1374543D01*
X864000Y1374954D01*
D02*
G37*
G36*
X962650Y1374810D02*
X954282D01*
X954381Y1374059D01*
X955443Y1371494D01*
X957133Y1369293D01*
X959334Y1367603D01*
X961898Y1366541D01*
X962650Y1366442D01*
Y1374810D01*
D02*
G37*
G36*
X908650D02*
X900282D01*
X900381Y1374059D01*
X901443Y1371494D01*
X903133Y1369293D01*
X905334Y1367603D01*
X907898Y1366541D01*
X908650Y1366442D01*
Y1374810D01*
D02*
G37*
G36*
X975018D02*
X966650D01*
Y1366442D01*
X967402Y1366541D01*
X969965Y1367603D01*
X972167Y1369293D01*
X973857Y1371494D01*
X974919Y1374059D01*
X975018Y1374810D01*
D02*
G37*
G36*
X921018D02*
X912650D01*
Y1366442D01*
X913401Y1366541D01*
X915965Y1367603D01*
X918167Y1369293D01*
X919857Y1371494D01*
X920919Y1374059D01*
X921018Y1374810D01*
D02*
G37*
G36*
X892000Y1431913D02*
X886500D01*
X884452Y1431505D01*
X882715Y1430345D01*
X881555Y1428608D01*
X881147Y1426560D01*
Y1417060D01*
X881555Y1415012D01*
X881681Y1414822D01*
Y1386697D01*
X879955Y1385982D01*
X877761Y1384299D01*
X876078Y1382105D01*
X875020Y1379551D01*
X874659Y1376810D01*
X875020Y1374069D01*
X876078Y1371515D01*
X877761Y1369321D01*
X879955Y1367638D01*
X882509Y1366580D01*
X885250Y1366219D01*
X887991Y1366580D01*
X890545Y1367638D01*
X892739Y1369321D01*
X894422Y1371515D01*
X895480Y1374069D01*
X895841Y1376810D01*
X895480Y1379551D01*
X894422Y1382105D01*
X892739Y1384299D01*
X890545Y1385982D01*
X888819Y1386697D01*
Y1411707D01*
X892000D01*
X894048Y1412115D01*
X895785Y1413275D01*
X896945Y1415012D01*
X897353Y1417060D01*
Y1426560D01*
X896945Y1428608D01*
X895785Y1430345D01*
X894048Y1431505D01*
X892000Y1431913D01*
D02*
G37*
G36*
X1466290Y1366710D02*
X1457250D01*
Y1363170D01*
X1466290D01*
Y1366710D01*
D02*
G37*
G36*
X869394Y1364810D02*
X861250D01*
Y1358666D01*
X864000D01*
X866064Y1359077D01*
X867814Y1360246D01*
X868983Y1361996D01*
X869394Y1364060D01*
Y1364810D01*
D02*
G37*
G36*
X1197050Y1362673D02*
Y1354810D01*
X1204913D01*
X1204832Y1355431D01*
X1203820Y1357873D01*
X1202211Y1359971D01*
X1200113Y1361580D01*
X1197671Y1362592D01*
X1197050Y1362673D01*
D02*
G37*
G36*
X1193050D02*
X1192429Y1362592D01*
X1189987Y1361580D01*
X1187889Y1359971D01*
X1186280Y1357873D01*
X1185268Y1355431D01*
X1185187Y1354810D01*
X1193050D01*
Y1362673D01*
D02*
G37*
G36*
X1204913Y1350810D02*
X1197050D01*
Y1342947D01*
X1197671Y1343028D01*
X1200113Y1344040D01*
X1202211Y1345649D01*
X1203820Y1347747D01*
X1204832Y1350189D01*
X1204913Y1350810D01*
D02*
G37*
G36*
X1193050D02*
X1185187D01*
X1185268Y1350189D01*
X1186280Y1347747D01*
X1187889Y1345649D01*
X1189987Y1344040D01*
X1192429Y1343028D01*
X1193050Y1342947D01*
Y1350810D01*
D02*
G37*
G36*
X1169650Y1362896D02*
X1167039Y1362553D01*
X1164607Y1361545D01*
X1162518Y1359942D01*
X1160915Y1357853D01*
X1159907Y1355421D01*
X1159564Y1352810D01*
X1159907Y1350199D01*
X1160915Y1347767D01*
X1162518Y1345678D01*
X1164607Y1344075D01*
X1167039Y1343067D01*
X1169650Y1342724D01*
X1172261Y1343067D01*
X1174693Y1344075D01*
X1176782Y1345678D01*
X1178385Y1347767D01*
X1179393Y1350199D01*
X1179736Y1352810D01*
X1179393Y1355421D01*
X1178385Y1357853D01*
X1176782Y1359942D01*
X1174693Y1361545D01*
X1172261Y1362553D01*
X1169650Y1362896D01*
D02*
G37*
G36*
X1461000Y1338954D02*
X1458250D01*
Y1332810D01*
X1466394D01*
Y1333560D01*
X1465983Y1335624D01*
X1464814Y1337374D01*
X1463064Y1338543D01*
X1461000Y1338954D01*
D02*
G37*
G36*
X916250Y1347401D02*
X913509Y1347040D01*
X910955Y1345982D01*
X908761Y1344299D01*
X907078Y1342105D01*
X906020Y1339551D01*
X905659Y1336810D01*
X906020Y1334069D01*
X907078Y1331515D01*
X908761Y1329321D01*
X910955Y1327638D01*
X913509Y1326580D01*
X916250Y1326219D01*
X918991Y1326580D01*
X921545Y1327638D01*
X923739Y1329321D01*
X925422Y1331515D01*
X926480Y1334069D01*
X926841Y1336810D01*
X926480Y1339551D01*
X925422Y1342105D01*
X923739Y1344299D01*
X921545Y1345982D01*
X918991Y1347040D01*
X916250Y1347401D01*
D02*
G37*
G36*
X853250D02*
X850509Y1347040D01*
X847955Y1345982D01*
X845761Y1344299D01*
X844078Y1342105D01*
X843020Y1339551D01*
X842660Y1336810D01*
X843020Y1334069D01*
X844078Y1331515D01*
X845761Y1329321D01*
X847955Y1327638D01*
X850509Y1326580D01*
X853250Y1326219D01*
X855991Y1326580D01*
X858545Y1327638D01*
X860739Y1329321D01*
X862422Y1331515D01*
X863480Y1334069D01*
X863841Y1336810D01*
X863480Y1339551D01*
X862422Y1342105D01*
X860739Y1344299D01*
X858545Y1345982D01*
X855991Y1347040D01*
X853250Y1347401D01*
D02*
G37*
G36*
X1466394Y1328810D02*
X1458250D01*
Y1322666D01*
X1461000D01*
X1463064Y1323077D01*
X1464814Y1324246D01*
X1465983Y1325996D01*
X1466394Y1328060D01*
Y1328810D01*
D02*
G37*
G36*
X1203000Y1320954D02*
X1202250D01*
Y1312810D01*
X1208394D01*
Y1315560D01*
X1207983Y1317624D01*
X1206814Y1319374D01*
X1205064Y1320543D01*
X1203000Y1320954D01*
D02*
G37*
G36*
X1198250D02*
X1197500D01*
X1195436Y1320543D01*
X1193686Y1319374D01*
X1192517Y1317624D01*
X1192106Y1315560D01*
Y1312810D01*
X1198250D01*
Y1320954D01*
D02*
G37*
G36*
X916250Y1322000D02*
X913509Y1321640D01*
X910955Y1320582D01*
X908761Y1318899D01*
X907078Y1316705D01*
X906020Y1314151D01*
X905659Y1311410D01*
X906020Y1308669D01*
X907078Y1306115D01*
X908761Y1303921D01*
X910955Y1302238D01*
X913509Y1301180D01*
X916250Y1300819D01*
X918991Y1301180D01*
X921545Y1302238D01*
X923739Y1303921D01*
X925422Y1306115D01*
X926480Y1308669D01*
X926841Y1311410D01*
X926480Y1314151D01*
X925422Y1316705D01*
X923739Y1318899D01*
X921545Y1320582D01*
X918991Y1321640D01*
X916250Y1322000D01*
D02*
G37*
G36*
X863618Y1258610D02*
X855250D01*
Y1250242D01*
X856002Y1250341D01*
X858566Y1251403D01*
X860767Y1253093D01*
X862457Y1255294D01*
X863519Y1257859D01*
X863618Y1258610D01*
D02*
G37*
G36*
X1400540Y1230350D02*
X1397250D01*
Y1224810D01*
X1400540D01*
Y1230350D01*
D02*
G37*
G36*
Y1220810D02*
X1397250D01*
Y1215270D01*
X1400540D01*
Y1220810D01*
D02*
G37*
G36*
X1443250Y1206978D02*
Y1198610D01*
X1451618D01*
X1451519Y1199361D01*
X1450457Y1201926D01*
X1448767Y1204127D01*
X1446566Y1205817D01*
X1444001Y1206879D01*
X1443250Y1206978D01*
D02*
G37*
G36*
X1439250Y1206978D02*
X1438499Y1206879D01*
X1435934Y1205817D01*
X1433733Y1204127D01*
X1432043Y1201926D01*
X1430981Y1199361D01*
X1430882Y1198610D01*
X1439250D01*
Y1206978D01*
D02*
G37*
G36*
X1451618Y1194610D02*
X1443250D01*
Y1186242D01*
X1444001Y1186341D01*
X1446566Y1187403D01*
X1448767Y1189093D01*
X1450457Y1191294D01*
X1451519Y1193858D01*
X1451618Y1194610D01*
D02*
G37*
G36*
X1439250D02*
X1430882D01*
X1430981Y1193858D01*
X1432043Y1191294D01*
X1433733Y1189093D01*
X1435934Y1187403D01*
X1438499Y1186341D01*
X1439250Y1186242D01*
Y1194610D01*
D02*
G37*
G36*
X1402640Y1187618D02*
X1394600D01*
Y1175828D01*
X1402640D01*
Y1187618D01*
D02*
G37*
G36*
X1390600D02*
X1382560D01*
Y1175828D01*
X1390600D01*
Y1187618D01*
D02*
G37*
G36*
X855250Y1175978D02*
Y1167610D01*
X863618D01*
X863519Y1168362D01*
X862457Y1170926D01*
X860767Y1173127D01*
X858566Y1174817D01*
X856002Y1175879D01*
X855250Y1175978D01*
D02*
G37*
G36*
X851250D02*
X850499Y1175879D01*
X847934Y1174817D01*
X845733Y1173127D01*
X844043Y1170926D01*
X842981Y1168362D01*
X842882Y1167610D01*
X851250D01*
Y1175978D01*
D02*
G37*
G36*
X863618Y1163610D02*
X855250D01*
Y1155242D01*
X856002Y1155341D01*
X858566Y1156403D01*
X860767Y1158093D01*
X862457Y1160294D01*
X863519Y1162859D01*
X863618Y1163610D01*
D02*
G37*
G36*
X851250D02*
X842882D01*
X842981Y1162859D01*
X844043Y1160294D01*
X845733Y1158093D01*
X847934Y1156403D01*
X850499Y1155341D01*
X851250Y1155242D01*
Y1163610D01*
D02*
G37*
G36*
X788250Y1158238D02*
Y1142810D01*
X803678D01*
X803536Y1144248D01*
X802533Y1147555D01*
X800904Y1150602D01*
X798713Y1153273D01*
X796042Y1155464D01*
X792995Y1157093D01*
X789688Y1158096D01*
X788250Y1158238D01*
D02*
G37*
G36*
X784250D02*
X782812Y1158096D01*
X779505Y1157093D01*
X776458Y1155464D01*
X773787Y1153273D01*
X771596Y1150602D01*
X769967Y1147555D01*
X768964Y1144248D01*
X768822Y1142810D01*
X784250D01*
Y1158238D01*
D02*
G37*
G36*
X853250Y1150801D02*
X850509Y1150440D01*
X847955Y1149382D01*
X845761Y1147699D01*
X844078Y1145505D01*
X843020Y1142951D01*
X842659Y1140210D01*
X843020Y1137469D01*
X844078Y1134915D01*
X845761Y1132721D01*
X847955Y1131038D01*
X850509Y1129980D01*
X853250Y1129619D01*
X855991Y1129980D01*
X858545Y1131038D01*
X860739Y1132721D01*
X862422Y1134915D01*
X863480Y1137469D01*
X863841Y1140210D01*
X863480Y1142951D01*
X862422Y1145505D01*
X860739Y1147699D01*
X858545Y1149382D01*
X855991Y1150440D01*
X853250Y1150801D01*
D02*
G37*
G36*
X803678Y1138810D02*
X788250D01*
Y1123382D01*
X789688Y1123524D01*
X792995Y1124527D01*
X796042Y1126155D01*
X798713Y1128347D01*
X800904Y1131018D01*
X802533Y1134065D01*
X803536Y1137372D01*
X803678Y1138810D01*
D02*
G37*
G36*
X784250D02*
X768822D01*
X768964Y1137372D01*
X769967Y1134065D01*
X771596Y1131018D01*
X773787Y1128347D01*
X776458Y1126155D01*
X779505Y1124527D01*
X782812Y1123524D01*
X784250Y1123382D01*
Y1138810D01*
D02*
G37*
G36*
X1015394Y1619810D02*
X1009250D01*
Y1611666D01*
X1010000D01*
X1012064Y1612077D01*
X1013814Y1613246D01*
X1014983Y1614996D01*
X1015394Y1617060D01*
Y1619810D01*
D02*
G37*
G36*
X1005250D02*
X999106D01*
Y1617060D01*
X999517Y1614996D01*
X1000686Y1613246D01*
X1002436Y1612077D01*
X1004500Y1611666D01*
X1005250D01*
Y1619810D01*
D02*
G37*
G36*
X981850Y1597178D02*
Y1588810D01*
X990218D01*
X990119Y1589561D01*
X989057Y1592125D01*
X987367Y1594327D01*
X985165Y1596017D01*
X982601Y1597079D01*
X981850Y1597178D01*
D02*
G37*
G36*
X977850D02*
X977098Y1597079D01*
X974535Y1596017D01*
X972333Y1594327D01*
X970643Y1592125D01*
X969581Y1589561D01*
X969482Y1588810D01*
X977850D01*
Y1597178D01*
D02*
G37*
G36*
X1059000Y1591954D02*
X1058250D01*
Y1583810D01*
X1064394D01*
Y1586560D01*
X1063983Y1588624D01*
X1062814Y1590374D01*
X1061064Y1591543D01*
X1059000Y1591954D01*
D02*
G37*
G36*
X1054250D02*
X1053500D01*
X1051436Y1591543D01*
X1049686Y1590374D01*
X1048517Y1588624D01*
X1048106Y1586560D01*
Y1583810D01*
X1054250D01*
Y1591954D01*
D02*
G37*
G36*
X1110250Y1579810D02*
X1104106D01*
Y1577060D01*
X1104517Y1574996D01*
X1105686Y1573246D01*
X1107436Y1572077D01*
X1109500Y1571666D01*
X1110250D01*
Y1579810D01*
D02*
G37*
G36*
X1064394D02*
X1058250D01*
Y1571666D01*
X1059000D01*
X1061064Y1572077D01*
X1062814Y1573246D01*
X1063983Y1574996D01*
X1064394Y1577060D01*
Y1579810D01*
D02*
G37*
G36*
X1054250D02*
X1048106D01*
Y1577060D01*
X1048517Y1574996D01*
X1049686Y1573246D01*
X1051436Y1572077D01*
X1053500Y1571666D01*
X1054250D01*
Y1579810D01*
D02*
G37*
G36*
X1082248Y1521955D02*
X1079498D01*
X1077434Y1521545D01*
X1075685Y1520375D01*
X1074515Y1518625D01*
X1074105Y1516561D01*
Y1515812D01*
X1082248D01*
Y1521955D01*
D02*
G37*
G36*
X1066999Y1521954D02*
X1064249D01*
Y1515811D01*
X1072393D01*
Y1516561D01*
X1071982Y1518625D01*
X1070813Y1520374D01*
X1069063Y1521544D01*
X1066999Y1521954D01*
D02*
G37*
G36*
X1060249D02*
X1057499D01*
X1055435Y1521544D01*
X1053685Y1520374D01*
X1052516Y1518625D01*
X1052105Y1516561D01*
Y1515811D01*
X1060249D01*
Y1521954D01*
D02*
G37*
G36*
X1082248Y1511812D02*
X1074105D01*
Y1511062D01*
X1074515Y1508997D01*
X1075685Y1507248D01*
X1077434Y1506078D01*
X1079498Y1505668D01*
X1082248D01*
Y1511812D01*
D02*
G37*
G36*
X1072393Y1511811D02*
X1064249D01*
Y1505667D01*
X1066999D01*
X1069063Y1506078D01*
X1070813Y1507247D01*
X1071982Y1508997D01*
X1072393Y1511061D01*
Y1511811D01*
D02*
G37*
G36*
X1060249D02*
X1052105D01*
Y1511061D01*
X1052516Y1508997D01*
X1053685Y1507247D01*
X1055435Y1506078D01*
X1057499Y1505667D01*
X1060249D01*
Y1511811D01*
D02*
G37*
G36*
X952249Y1501809D02*
X946105D01*
Y1499059D01*
X946516Y1496995D01*
X947685Y1495245D01*
X949435Y1494076D01*
X951499Y1493665D01*
X952249D01*
Y1501809D01*
D02*
G37*
G36*
X965450Y1468178D02*
Y1459810D01*
X973818D01*
X973719Y1460562D01*
X972657Y1463125D01*
X970967Y1465327D01*
X968765Y1467017D01*
X966201Y1468079D01*
X965450Y1468178D01*
D02*
G37*
G36*
X1133394Y1511810D02*
X1125250D01*
Y1505666D01*
X1128000D01*
X1130064Y1506077D01*
X1131814Y1507246D01*
X1132983Y1508996D01*
X1133394Y1511060D01*
Y1511810D01*
D02*
G37*
G36*
X1009394Y1388810D02*
X1003250D01*
Y1380666D01*
X1004000D01*
X1006064Y1381077D01*
X1007814Y1382246D01*
X1008983Y1383996D01*
X1009394Y1386060D01*
Y1388810D01*
D02*
G37*
G36*
X1042250Y1322000D02*
X1039509Y1321640D01*
X1036955Y1320582D01*
X1034761Y1318899D01*
X1033078Y1316705D01*
X1032020Y1314151D01*
X1031659Y1311410D01*
X1032020Y1308669D01*
X1033078Y1306115D01*
X1034761Y1303921D01*
X1036955Y1302238D01*
X1039509Y1301180D01*
X1042250Y1300819D01*
X1044991Y1301180D01*
X1047545Y1302238D01*
X1049739Y1303921D01*
X1051422Y1306115D01*
X1052480Y1308669D01*
X1052841Y1311410D01*
X1052480Y1314151D01*
X1051422Y1316705D01*
X1049739Y1318899D01*
X1047545Y1320582D01*
X1044991Y1321640D01*
X1042250Y1322000D01*
D02*
G37*
G36*
X1124290Y1289850D02*
X1114750D01*
Y1282810D01*
X1124290D01*
Y1289850D01*
D02*
G37*
G36*
X1110750D02*
X1101210D01*
Y1282810D01*
X1110750D01*
Y1289850D01*
D02*
G37*
G36*
X1042250Y1296600D02*
X1039509Y1296240D01*
X1036955Y1295182D01*
X1034761Y1293499D01*
X1033078Y1291305D01*
X1032020Y1288751D01*
X1031659Y1286010D01*
X1032020Y1283269D01*
X1033078Y1280715D01*
X1034761Y1278521D01*
X1036955Y1276838D01*
X1039509Y1275780D01*
X1042250Y1275419D01*
X1044991Y1275780D01*
X1047545Y1276838D01*
X1049739Y1278521D01*
X1051422Y1280715D01*
X1052480Y1283269D01*
X1052841Y1286010D01*
X1052480Y1288751D01*
X1051422Y1291305D01*
X1049739Y1293499D01*
X1047545Y1295182D01*
X1044991Y1296240D01*
X1042250Y1296600D01*
D02*
G37*
G36*
X1124290Y1278810D02*
X1114750D01*
Y1271770D01*
X1124290D01*
Y1278810D01*
D02*
G37*
G36*
X1088250Y1275954D02*
X1085500D01*
X1083436Y1275543D01*
X1081686Y1274374D01*
X1080517Y1272624D01*
X1080106Y1270560D01*
Y1269810D01*
X1088250D01*
Y1275954D01*
D02*
G37*
G36*
X1044250Y1270978D02*
Y1262610D01*
X1052618D01*
X1052519Y1263361D01*
X1051457Y1265925D01*
X1049767Y1268127D01*
X1047566Y1269817D01*
X1045002Y1270879D01*
X1044250Y1270978D01*
D02*
G37*
G36*
X1040250D02*
X1039499Y1270879D01*
X1036935Y1269817D01*
X1034733Y1268127D01*
X1033043Y1265925D01*
X1031981Y1263361D01*
X1031882Y1262610D01*
X1040250D01*
Y1270978D01*
D02*
G37*
G36*
X1088250Y1265810D02*
X1080106D01*
Y1265060D01*
X1080517Y1262996D01*
X1081686Y1261246D01*
X1083436Y1260077D01*
X1085500Y1259666D01*
X1088250D01*
Y1265810D01*
D02*
G37*
G36*
X1275250Y1248949D02*
X1272500D01*
X1270436Y1248538D01*
X1268686Y1247369D01*
X1267517Y1245619D01*
X1267106Y1243555D01*
Y1242805D01*
X1275250D01*
Y1248949D01*
D02*
G37*
G36*
Y1238805D02*
X1267106D01*
Y1238055D01*
X1267517Y1235991D01*
X1268686Y1234241D01*
X1270436Y1233072D01*
X1272500Y1232662D01*
X1275250D01*
Y1238805D01*
D02*
G37*
G36*
X914250Y1258610D02*
X905882D01*
X905981Y1257859D01*
X907043Y1255294D01*
X908733Y1253093D01*
X910935Y1251403D01*
X913499Y1250341D01*
X914250Y1250242D01*
Y1258610D01*
D02*
G37*
G36*
X926618D02*
X918250D01*
Y1250242D01*
X919001Y1250341D01*
X921565Y1251403D01*
X923767Y1253093D01*
X925457Y1255294D01*
X926519Y1257859D01*
X926618Y1258610D01*
D02*
G37*
G36*
X1198000Y1275954D02*
X1195250D01*
Y1269810D01*
X1203394D01*
Y1270560D01*
X1202983Y1272624D01*
X1201814Y1274374D01*
X1200064Y1275543D01*
X1198000Y1275954D01*
D02*
G37*
G36*
X1203394Y1265810D02*
X1195250D01*
Y1259666D01*
X1198000D01*
X1200064Y1260077D01*
X1201814Y1261246D01*
X1202983Y1262996D01*
X1203394Y1265060D01*
Y1265810D01*
D02*
G37*
G36*
X1217550Y1215673D02*
Y1207810D01*
X1225413D01*
X1225332Y1208431D01*
X1224320Y1210873D01*
X1222711Y1212971D01*
X1220613Y1214580D01*
X1218171Y1215592D01*
X1217550Y1215673D01*
D02*
G37*
G36*
X1213550D02*
X1212929Y1215592D01*
X1210487Y1214580D01*
X1208389Y1212971D01*
X1206780Y1210873D01*
X1205768Y1208431D01*
X1205687Y1207810D01*
X1213550D01*
Y1215673D01*
D02*
G37*
G36*
X1225413Y1203810D02*
X1217550D01*
Y1195947D01*
X1218171Y1196028D01*
X1220613Y1197040D01*
X1222711Y1198649D01*
X1224320Y1200747D01*
X1225332Y1203189D01*
X1225413Y1203810D01*
D02*
G37*
G36*
X1213550D02*
X1205687D01*
X1205768Y1203189D01*
X1206780Y1200747D01*
X1208389Y1198649D01*
X1210487Y1197040D01*
X1212929Y1196028D01*
X1213550Y1195947D01*
Y1203810D01*
D02*
G37*
G36*
X1224840Y1187618D02*
X1216800D01*
Y1175828D01*
X1224840D01*
Y1187618D01*
D02*
G37*
G36*
X1212800D02*
X1204760D01*
Y1175828D01*
X1212800D01*
Y1187618D01*
D02*
G37*
G36*
X1313000Y1248949D02*
X1310250D01*
Y1242805D01*
X1318394D01*
Y1243555D01*
X1317983Y1245619D01*
X1316814Y1247369D01*
X1315064Y1248538D01*
X1313000Y1248949D01*
D02*
G37*
G36*
X1318394Y1238805D02*
X1310250D01*
Y1232662D01*
X1313000D01*
X1315064Y1233072D01*
X1316814Y1234241D01*
X1317983Y1235991D01*
X1318394Y1238055D01*
Y1238805D01*
D02*
G37*
G36*
X1009600Y1187618D02*
X1001560D01*
Y1175828D01*
X1009600D01*
Y1187618D01*
D02*
G37*
%LPD*%
D10*
X1391250Y1355810D02*
D03*
X1391252Y1335809D02*
D03*
X1123252Y1493808D02*
D03*
X1123250Y1513810D02*
D03*
X1062251Y1493809D02*
D03*
X1062249Y1513811D02*
D03*
X1084248Y1513811D02*
D03*
X1084250Y1493810D02*
D03*
X811252Y1509809D02*
D03*
X811250Y1529810D02*
D03*
X1090252Y1247809D02*
D03*
X1090250Y1267810D02*
D03*
X1193252Y1247809D02*
D03*
X1193250Y1267810D02*
D03*
X1227252Y1745809D02*
D03*
X1227250Y1765810D02*
D03*
X1456248Y1350811D02*
D03*
X1456250Y1330810D02*
D03*
X813252Y1707809D02*
D03*
X813250Y1727810D02*
D03*
X1335252Y1429809D02*
D03*
X1335250Y1449810D02*
D03*
X1290252Y1429809D02*
D03*
X1290250Y1449810D02*
D03*
X1366252Y1393808D02*
D03*
X1366250Y1413810D02*
D03*
X1277248Y1260807D02*
D03*
X1277250Y1240805D02*
D03*
X1270252Y1429809D02*
D03*
X1270250Y1449810D02*
D03*
X1218252Y1363808D02*
D03*
X1218250Y1383810D02*
D03*
X1308248Y1260807D02*
D03*
X1308250Y1240805D02*
D03*
X1389249Y1599813D02*
D03*
X1389251Y1579811D02*
D03*
D11*
X909250Y1421810D02*
D03*
X889250D02*
D03*
X915249Y1503809D02*
D03*
X895249D02*
D03*
X934249D02*
D03*
X954249D02*
D03*
X962250Y1421810D02*
D03*
X942250D02*
D03*
X1156250Y1426810D02*
D03*
X1176250D02*
D03*
X1275250Y1612810D02*
D03*
X1255250D02*
D03*
X813250Y1457810D02*
D03*
X833250D02*
D03*
X735250Y1676810D02*
D03*
X755250D02*
D03*
X1057250Y1649810D02*
D03*
X1077250D02*
D03*
X987250Y1621810D02*
D03*
X1007250D02*
D03*
X1352250Y1206810D02*
D03*
X1332250D02*
D03*
X987250Y1641810D02*
D03*
X1007250D02*
D03*
D12*
X1092249Y1581808D02*
D03*
X1112250Y1581810D02*
D03*
X1076252Y1581812D02*
D03*
X1056250Y1581810D02*
D03*
X1148249Y1458808D02*
D03*
X1168250Y1458810D02*
D03*
X1021252Y1390812D02*
D03*
X1001250Y1390810D02*
D03*
X1145248Y1382808D02*
D03*
X1165250Y1382810D02*
D03*
X788249Y1480808D02*
D03*
X808250Y1480810D02*
D03*
X1167249Y1649808D02*
D03*
X1187250Y1649810D02*
D03*
X1226252Y1649812D02*
D03*
X1206250Y1649810D02*
D03*
X790248Y1679808D02*
D03*
X810250Y1679810D02*
D03*
X1391250Y1294560D02*
D03*
X1411252Y1294562D02*
D03*
X1220251Y1310812D02*
D03*
X1200250Y1310810D02*
D03*
X1391250Y1314556D02*
D03*
X1411252Y1314557D02*
D03*
X1286251Y1529811D02*
D03*
X1266249Y1529809D02*
D03*
X1286251Y1550811D02*
D03*
X1266249Y1550809D02*
D03*
D13*
X1151249Y1570811D02*
D03*
Y1550811D02*
D03*
X859250Y1386810D02*
D03*
Y1366810D02*
D03*
X765250Y1429810D02*
D03*
Y1449810D02*
D03*
X839249Y1386811D02*
D03*
Y1366811D02*
D03*
X968250Y1621810D02*
D03*
Y1641810D02*
D03*
X1250250Y1429810D02*
D03*
Y1449810D02*
D03*
X1367250Y1806326D02*
D03*
Y1786326D02*
D03*
X1316250Y1429810D02*
D03*
Y1449810D02*
D03*
X1100250Y1632810D02*
D03*
Y1612810D02*
D03*
X876250Y1675810D02*
D03*
Y1655810D02*
D03*
D14*
X1151250Y1513810D02*
D03*
D15*
X1151248Y1533811D02*
D03*
D16*
X1130751Y1452309D02*
D03*
Y1447309D02*
D03*
Y1442309D02*
D03*
Y1437309D02*
D03*
Y1432309D02*
D03*
Y1427309D02*
D03*
Y1422309D02*
D03*
Y1417309D02*
D03*
Y1412309D02*
D03*
Y1407309D02*
D03*
Y1402309D02*
D03*
Y1397309D02*
D03*
X1041751D02*
D03*
Y1402309D02*
D03*
Y1407309D02*
D03*
Y1412309D02*
D03*
Y1417309D02*
D03*
Y1422309D02*
D03*
Y1427309D02*
D03*
Y1432309D02*
D03*
Y1437309D02*
D03*
Y1442309D02*
D03*
Y1447309D02*
D03*
Y1452309D02*
D03*
D17*
X1113751Y1380309D02*
D03*
X1108751D02*
D03*
X1103751D02*
D03*
X1098751D02*
D03*
X1093751D02*
D03*
X1088751D02*
D03*
X1083751D02*
D03*
X1078751D02*
D03*
X1073751D02*
D03*
X1068751D02*
D03*
X1063751D02*
D03*
X1058751D02*
D03*
Y1469309D02*
D03*
X1063751D02*
D03*
X1068751D02*
D03*
X1073751D02*
D03*
X1078751D02*
D03*
X1083751D02*
D03*
X1088751D02*
D03*
X1093751D02*
D03*
X1098751D02*
D03*
X1103751D02*
D03*
X1108751D02*
D03*
X1113751D02*
D03*
D18*
X832750Y1440310D02*
D03*
X823250Y1415310D02*
D03*
X1042750Y1633310D02*
D03*
X1033250Y1608310D02*
D03*
X1076750Y1634310D02*
D03*
X1067250Y1609310D02*
D03*
D19*
X813750Y1440310D02*
D03*
X1023750Y1633310D02*
D03*
X1057750Y1634310D02*
D03*
D20*
X859750Y1657315D02*
D03*
X834750Y1666815D02*
D03*
D21*
X859750Y1676315D02*
D03*
D22*
X790650Y1439810D02*
D03*
X739850D02*
D03*
D23*
X765250Y1339810D02*
D03*
D24*
X787254Y1499710D02*
D03*
Y1537810D02*
D03*
Y1525110D02*
D03*
Y1512410D02*
D03*
X728754Y1499710D02*
D03*
Y1512410D02*
D03*
Y1525110D02*
D03*
Y1537810D02*
D03*
X1455250Y1368710D02*
D03*
Y1406810D02*
D03*
Y1394110D02*
D03*
Y1381410D02*
D03*
X1396750Y1368710D02*
D03*
Y1381410D02*
D03*
Y1394110D02*
D03*
Y1406810D02*
D03*
X789250Y1698710D02*
D03*
Y1736810D02*
D03*
Y1724110D02*
D03*
Y1711410D02*
D03*
X730750Y1698710D02*
D03*
Y1711410D02*
D03*
Y1724110D02*
D03*
Y1736810D02*
D03*
D25*
X1112750Y1234810D02*
D03*
Y1257810D02*
D03*
Y1280810D02*
D03*
X1366751Y1612811D02*
D03*
Y1589811D02*
D03*
Y1566811D02*
D03*
X1165750Y1673810D02*
D03*
Y1696810D02*
D03*
Y1719810D02*
D03*
D26*
X1173750Y1257810D02*
D03*
X1305751Y1589811D02*
D03*
X1226750Y1696810D02*
D03*
D27*
X1400177Y1508876D02*
D03*
X1414321Y1494734D02*
D03*
X1426178Y1482875D02*
D03*
X1440322Y1468733D02*
D03*
D28*
X1376321Y1431734D02*
D03*
X1362179Y1445876D02*
D03*
D29*
X1035250Y1668810D02*
D03*
X991250D02*
D03*
D30*
X1042250Y1697810D02*
D03*
X1025250D02*
D03*
X974250D02*
D03*
X991250D02*
D03*
X1008250D02*
D03*
D31*
Y1800810D02*
D03*
D32*
X1097250Y1797810D02*
D03*
X1197250D02*
D03*
D33*
X1376250Y1250310D02*
D03*
X1395250D02*
D03*
Y1222810D02*
D03*
X1385750D02*
D03*
X1342250Y1250310D02*
D03*
X1361250D02*
D03*
Y1222810D02*
D03*
X1351750D02*
D03*
D34*
X1376250Y1222810D02*
D03*
X1342250D02*
D03*
D35*
X1356500Y1380310D02*
D03*
Y1375310D02*
D03*
Y1370310D02*
D03*
Y1365310D02*
D03*
Y1360310D02*
D03*
Y1355310D02*
D03*
Y1350310D02*
D03*
Y1345310D02*
D03*
Y1340310D02*
D03*
Y1335310D02*
D03*
Y1330310D02*
D03*
Y1325310D02*
D03*
Y1320310D02*
D03*
Y1315310D02*
D03*
Y1310310D02*
D03*
Y1305310D02*
D03*
X1246000D02*
D03*
Y1310310D02*
D03*
Y1315310D02*
D03*
Y1320310D02*
D03*
Y1325310D02*
D03*
Y1330310D02*
D03*
Y1335310D02*
D03*
Y1340310D02*
D03*
Y1345310D02*
D03*
Y1350310D02*
D03*
Y1355310D02*
D03*
Y1360310D02*
D03*
Y1365310D02*
D03*
Y1370310D02*
D03*
Y1375310D02*
D03*
Y1380310D02*
D03*
D36*
X1338750Y1287560D02*
D03*
X1333750D02*
D03*
X1328750D02*
D03*
X1323750D02*
D03*
X1318750D02*
D03*
X1313750D02*
D03*
X1308750D02*
D03*
X1303750D02*
D03*
X1298750D02*
D03*
X1293750D02*
D03*
X1288750D02*
D03*
X1283750D02*
D03*
X1278750D02*
D03*
X1273750D02*
D03*
X1268750D02*
D03*
X1263750D02*
D03*
Y1398060D02*
D03*
X1268750D02*
D03*
X1273750D02*
D03*
X1278750D02*
D03*
X1283750D02*
D03*
X1288750D02*
D03*
X1293750D02*
D03*
X1298750D02*
D03*
X1303750D02*
D03*
X1308750D02*
D03*
X1313750D02*
D03*
X1318750D02*
D03*
X1323750D02*
D03*
X1328750D02*
D03*
X1333750D02*
D03*
X1338750D02*
D03*
D37*
X1345731Y1773476D02*
D03*
Y1819176D02*
D03*
D38*
X1281331Y1796326D02*
D03*
D39*
X791100Y1652210D02*
D03*
X745400D02*
D03*
D40*
X768250Y1587810D02*
D03*
D41*
X1410250Y1337810D02*
D03*
X1436250D02*
D03*
Y1355810D02*
D03*
X1410250D02*
D03*
D42*
X1419250Y1337810D02*
D03*
X1427250D02*
D03*
Y1355810D02*
D03*
X1419250D02*
D03*
D43*
X1392600Y1173828D02*
D03*
X1367200D02*
D03*
X1341800D02*
D03*
X1316400D02*
D03*
X1291000D02*
D03*
X1265600D02*
D03*
X1240200D02*
D03*
X1214800D02*
D03*
X1189400D02*
D03*
X1164000D02*
D03*
X1138600D02*
D03*
X1113200D02*
D03*
X1087800D02*
D03*
X1062400D02*
D03*
X1037000D02*
D03*
X1011600D02*
D03*
X986200D02*
D03*
X960800D02*
D03*
X935400D02*
D03*
X910000D02*
D03*
D44*
X962280Y1421839D02*
X1025279D01*
X1377250Y1296810D02*
X1379500Y1294560D01*
X1368750Y1305310D02*
X1377250Y1296810D01*
X1379500Y1294560D02*
X1391250D01*
X1042250Y1697810D02*
X1042250Y1697810D01*
X1059250D01*
X1035250Y1644810D02*
Y1645810D01*
X1023750Y1633310D02*
X1035250Y1644810D01*
X1052563Y1483810D02*
X1060667D01*
X980563Y1555810D02*
X1052563Y1483810D01*
X1354752Y1624810D02*
X1366751Y1612811D01*
X1287250Y1624810D02*
X1354752D01*
X1275250Y1612810D02*
X1287250Y1624810D01*
X1130751Y1402309D02*
X1184351D01*
X1240534Y1612810D02*
X1255250D01*
X1203250Y1575526D02*
X1240534Y1612810D01*
X1203250Y1421208D02*
Y1575526D01*
X1184351Y1402309D02*
X1203250Y1421208D01*
X1217250Y1557809D02*
X1221250Y1553809D01*
Y1420153D02*
Y1553809D01*
Y1420153D02*
X1234250Y1407153D01*
Y1383810D02*
Y1407153D01*
Y1383810D02*
X1237750Y1380310D01*
X1246000D01*
X1217250Y1569810D02*
X1225250Y1561810D01*
Y1421810D02*
Y1561810D01*
Y1421810D02*
X1237250Y1409810D01*
X1261250D01*
X1263750Y1407310D01*
Y1398060D02*
Y1407310D01*
X1103250Y1280810D02*
X1112750D01*
X1090250Y1267810D02*
X1103250Y1280810D01*
X1083050Y1260610D02*
X1090250Y1267810D01*
X1042250Y1260610D02*
X1083050D01*
X1185250Y1310810D02*
X1200250D01*
X1232250Y1272810D02*
X1266250D01*
X1206250Y1298810D02*
X1232250Y1272810D01*
X1179750Y1298810D02*
X1206250D01*
X1152250Y1326310D02*
X1179750Y1298810D01*
X1266250Y1272810D02*
X1268750Y1275310D01*
Y1287560D01*
X1443250Y1381810D02*
Y1404810D01*
X1445250Y1406810D02*
X1455250D01*
X1443250Y1404810D02*
X1445250Y1406810D01*
X1443250Y1363810D02*
Y1381810D01*
Y1363810D02*
X1456248Y1350811D01*
X1443250Y1326810D02*
Y1337813D01*
X1456248Y1350811D01*
X1436250Y1324810D02*
Y1337810D01*
X1364010Y1355310D02*
X1371510Y1347810D01*
X1378564D01*
X1356500Y1355310D02*
X1364010D01*
X1378564Y1347810D02*
X1380564D01*
X1378564Y1347810D02*
X1378564Y1347810D01*
X1371064Y1365310D02*
X1387164Y1381410D01*
X1356500Y1365310D02*
X1371064D01*
X1375250Y1356810D02*
X1376250Y1355810D01*
X1375250D02*
Y1356810D01*
X1380564Y1347810D02*
X1382564Y1345810D01*
X1398250D01*
X1378253Y1332810D02*
X1381252Y1335809D01*
X1378253Y1332810D02*
Y1338807D01*
X1376750Y1340310D02*
X1378253Y1338807D01*
X1381252Y1335809D02*
X1391252D01*
X1278250Y1270810D02*
X1283750Y1276310D01*
X1370407Y1370310D02*
X1381250Y1381153D01*
X1356500Y1370310D02*
X1370407D01*
X1277250Y1417810D02*
X1283750Y1411310D01*
X1280250Y1449810D02*
X1290250D01*
X1270250D02*
X1280250D01*
Y1464810D01*
X1431821Y1583582D02*
X1432549Y1584311D01*
X1431821Y1569239D02*
Y1583582D01*
X1422891Y1560309D02*
X1431821Y1569239D01*
X1395716Y1560309D02*
X1422891D01*
X1300752Y1465345D02*
X1395716Y1560309D01*
X1300752Y1416213D02*
Y1465345D01*
X1424547Y1556309D02*
X1452549Y1584311D01*
X1397373Y1556309D02*
X1424547D01*
X1304752Y1463688D02*
X1397373Y1556309D01*
X1304752Y1417870D02*
Y1463688D01*
X876250Y1214810D02*
X877250Y1213810D01*
X989250D01*
X974221Y1205810D02*
X997250D01*
X974221Y1205810D02*
X974221Y1205810D01*
X964279Y1205810D02*
X974221D01*
X964279Y1205810D02*
X964279Y1205810D01*
X910250Y1205810D02*
X964279D01*
X972564Y1201810D02*
X975250D01*
X972564Y1201810D02*
X972564Y1201810D01*
X965936Y1201810D02*
X972564D01*
X960936Y1196810D02*
X965936Y1201810D01*
X975250Y1201810D02*
X986200Y1190860D01*
X997250Y1205810D02*
X1005250Y1213810D01*
X1061250Y1221810D02*
X1061250Y1221810D01*
X1124250D01*
X1146250Y1243810D01*
Y1275810D01*
X1159250Y1288810D01*
X1203250D01*
X1279250Y1212810D01*
X1289250D01*
X1193250Y1280810D02*
X1193250Y1280810D01*
Y1267810D02*
Y1280810D01*
X1392250Y1194810D02*
X1392600Y1194460D01*
Y1173828D02*
Y1194460D01*
X1361250Y1216810D02*
X1366250Y1211810D01*
X1361250Y1216810D02*
Y1222810D01*
X1319250Y1212810D02*
X1325250Y1206810D01*
X1332250D01*
X1288750Y1228653D02*
X1326593Y1190810D01*
X1373907D01*
X1385750Y1202653D01*
Y1222810D01*
X1351750Y1207310D02*
Y1222810D01*
Y1207310D02*
X1352250Y1206810D01*
X1376250Y1198810D02*
Y1222810D01*
X1372250Y1194810D02*
X1376250Y1198810D01*
X1346250Y1194810D02*
X1372250D01*
X1342250Y1198810D02*
X1346250Y1194810D01*
X1342250Y1198810D02*
Y1222810D01*
X1395250Y1222810D02*
Y1225810D01*
X1387250Y1233810D02*
X1395250Y1225810D01*
X1369250Y1233810D02*
X1387250D01*
X1361250Y1225810D02*
X1369250Y1233810D01*
X1361250Y1222810D02*
Y1225810D01*
X1389250Y1237810D02*
X1394250Y1242810D01*
X1367250Y1237810D02*
X1389250D01*
X1362250Y1232810D02*
X1367250Y1237810D01*
X1356250Y1232810D02*
X1362250D01*
X1380250Y1241810D02*
X1385250Y1246810D01*
X1365250Y1241810D02*
X1380250D01*
X1361250Y1237810D02*
X1365250Y1241810D01*
X1351250Y1237810D02*
X1361250D01*
X1394250Y1249310D02*
X1395250Y1250310D01*
X1394250Y1242810D02*
Y1249310D01*
X1351750Y1228310D02*
X1356250Y1232810D01*
X1351750Y1222810D02*
Y1228310D01*
X1342250Y1222810D02*
Y1228810D01*
X1351250Y1237810D01*
X1385250Y1246810D02*
Y1255810D01*
X1378250Y1262810D02*
X1385250Y1255810D01*
X1343907Y1262810D02*
X1378250D01*
X1328750Y1277967D02*
X1343907Y1262810D01*
X1328750Y1277967D02*
Y1287560D01*
X1359250Y1241810D02*
X1361250Y1243810D01*
X1334250Y1241810D02*
X1359250D01*
X1313250Y1220810D02*
X1334250Y1241810D01*
X1361250Y1243810D02*
Y1250310D01*
X1302250Y1220810D02*
X1313250D01*
X1342250Y1250310D02*
X1342250Y1250310D01*
X1342250Y1250310D02*
Y1258810D01*
X1376250Y1250310D02*
Y1256810D01*
X1374250Y1258810D02*
X1376250Y1256810D01*
X1342250Y1258810D02*
X1374250D01*
X1329250Y1271810D02*
X1342250Y1258810D01*
X1308250Y1271810D02*
X1329250D01*
X1308248Y1260807D02*
X1308250Y1260808D01*
Y1271810D01*
X1288750Y1228653D02*
Y1287560D01*
X1293750Y1229310D02*
X1302250Y1220810D01*
X1293750Y1229310D02*
Y1287560D01*
X1277250Y1229810D02*
X1277250Y1229810D01*
Y1240805D01*
X1308250Y1228810D02*
X1308250Y1228810D01*
Y1240805D01*
X1411250Y1278810D02*
X1411252Y1278812D01*
Y1294562D01*
X1414631Y1326810D02*
X1424250Y1317191D01*
Y1287810D02*
Y1317191D01*
X1412250Y1259810D02*
X1444406D01*
X1401251Y1270809D02*
X1412250Y1259810D01*
X1418993Y1247410D02*
X1441250D01*
X1397251Y1269152D02*
X1418993Y1247410D01*
X1397251Y1269152D02*
Y1269809D01*
X1392250Y1274810D02*
X1397251Y1269809D01*
X1401251Y1270809D02*
Y1323809D01*
X1342250Y1274810D02*
X1392250D01*
X1356500Y1375310D02*
X1369750D01*
X1377250Y1382810D01*
X1356500Y1380310D02*
X1368750D01*
X1370250Y1381810D01*
Y1389810D01*
X1377250Y1382810D02*
Y1398810D01*
X1376250Y1355810D02*
X1391250D01*
X1376250D02*
X1376250D01*
X1375260Y1354820D02*
X1376250Y1355810D01*
X1375260Y1354820D02*
X1375260D01*
X1375260D02*
X1376250Y1355810D01*
X1441250Y1272810D02*
Y1324810D01*
X1443250Y1326810D01*
X1423250Y1324810D02*
X1436250D01*
X1427250Y1324810D02*
Y1337810D01*
X1419250Y1328810D02*
X1423250Y1324810D01*
X1419250Y1328810D02*
Y1337810D01*
X1420250Y1336810D01*
X1441250Y1171210D02*
X1457250Y1187210D01*
Y1259810D01*
X1444406D02*
X1452250Y1251966D01*
X1407250Y1326810D02*
X1414631D01*
X1403250Y1330810D02*
X1407250Y1326810D01*
X1403250Y1330810D02*
Y1340810D01*
X1398250Y1345810D02*
X1403250Y1340810D01*
X1338750Y1278310D02*
X1342250Y1274810D01*
X1338750Y1278310D02*
Y1287560D01*
X1441250Y1222010D02*
X1452250Y1233010D01*
Y1251966D01*
X1308250Y1271810D02*
X1308750Y1272310D01*
Y1287560D01*
X1277248Y1260807D02*
Y1270808D01*
X1278250Y1271810D01*
Y1270810D02*
Y1271810D01*
X1283750Y1276310D02*
Y1287560D01*
X1443650Y1381410D02*
X1455250D01*
X1443250Y1381810D02*
X1443650Y1381410D01*
X1356500Y1305310D02*
X1368750D01*
X1379996Y1314556D02*
X1391250D01*
X1377249Y1311810D02*
X1379996Y1314556D01*
X1377249Y1311810D02*
Y1311810D01*
X1375750Y1310310D02*
X1377249Y1311810D01*
X1356500Y1310310D02*
X1375750D01*
X1399250Y1325810D02*
X1401251Y1323809D01*
X1384504Y1325810D02*
X1399250D01*
X1379004Y1320310D02*
X1384504Y1325810D01*
X1356500Y1320310D02*
X1379004D01*
X1411252Y1294562D02*
X1411252Y1294562D01*
Y1314557D01*
X1356500Y1340310D02*
X1376750D01*
X1250250Y1449810D02*
X1260250Y1439810D01*
X1280250D01*
X1290252Y1429809D01*
X1410250Y1337810D02*
Y1341810D01*
X1419250Y1350810D01*
Y1355810D01*
X1396750Y1406810D02*
X1407250D01*
X1436250Y1377810D01*
Y1355810D02*
Y1377810D01*
X1427250Y1355810D02*
Y1374810D01*
X1407950Y1394110D02*
X1427250Y1374810D01*
X1396750Y1394110D02*
X1407950D01*
X1396750Y1381410D02*
X1406650D01*
X1419250Y1368810D01*
Y1355810D02*
Y1368810D01*
X1410250Y1355810D02*
Y1365810D01*
X1407350Y1368710D02*
X1410250Y1365810D01*
X1396750Y1368710D02*
X1407350D01*
X1377250Y1398810D02*
X1385250Y1406810D01*
X1396750D01*
X1386550Y1394110D02*
X1396750D01*
X1381250Y1388810D02*
X1386550Y1394110D01*
X1381250Y1381153D02*
Y1388810D01*
X1387164Y1381410D02*
X1396750D01*
X1366252Y1393808D02*
X1370250Y1389810D01*
X1352250Y1394810D02*
X1353251Y1393808D01*
X1366252D01*
X1346878Y1413810D02*
X1366250D01*
X1338750Y1405682D02*
X1346878Y1413810D01*
X1338750Y1398060D02*
Y1405682D01*
X1401716Y1482129D02*
X1414321Y1494734D01*
X1375926Y1482129D02*
X1401716D01*
X1410574Y1467272D02*
X1426178Y1482875D01*
X1410574Y1447481D02*
Y1467272D01*
X1362179Y1468383D02*
X1375926Y1482129D01*
X1362179Y1445876D02*
Y1468383D01*
X1394827Y1431734D02*
X1410574Y1447481D01*
X1376321Y1431734D02*
X1394827D01*
X1359145D02*
X1376321D01*
X1333750Y1406339D02*
X1359145Y1431734D01*
X1328750Y1406996D02*
X1362179Y1440425D01*
Y1445876D01*
X1333750Y1398060D02*
Y1406339D01*
X1328750Y1398060D02*
Y1406996D01*
X1336252Y1425811D02*
Y1428804D01*
X1328250Y1417809D02*
X1336252Y1425811D01*
X1323750Y1413310D02*
X1328250Y1417809D01*
X1323750Y1398060D02*
Y1413310D01*
X1313750Y1426305D02*
X1316250Y1428805D01*
X1313750Y1398060D02*
Y1426305D01*
X1304752Y1417870D02*
X1308750Y1413872D01*
Y1398060D02*
Y1413872D01*
X1300752Y1416213D02*
X1303750Y1413215D01*
Y1398060D02*
Y1413215D01*
X1250250Y1428805D02*
X1253941D01*
X1273750Y1408996D01*
Y1398060D02*
Y1408996D01*
X1277250Y1417810D02*
Y1421806D01*
Y1416810D02*
Y1417810D01*
X1270252Y1428804D02*
X1277250Y1421806D01*
X1283750Y1398060D02*
Y1411310D01*
X1290252Y1428804D02*
X1291250Y1427805D01*
Y1417810D02*
Y1427805D01*
Y1417810D02*
X1298750Y1410310D01*
Y1398060D02*
Y1410310D01*
X1218252Y1363808D02*
X1230248D01*
X1231250Y1364810D01*
X1231750Y1365310D01*
X1246000D01*
X1220251Y1310812D02*
X1220253Y1310810D01*
X1231250D01*
X1231750Y1310310D01*
X1246000D01*
X920250Y1562810D02*
Y1663496D01*
X911936Y1671810D02*
X920250Y1663496D01*
X892250Y1671810D02*
X911936D01*
X876250Y1655810D02*
X892250Y1671810D01*
X920250Y1562810D02*
X939250Y1543810D01*
X924250Y1564467D02*
X940907Y1547810D01*
X924250Y1564467D02*
Y1665153D01*
X928250Y1566124D02*
Y1666810D01*
Y1566124D02*
X942564Y1551810D01*
X932250Y1567780D02*
X944221Y1555810D01*
X932250Y1567780D02*
Y1616810D01*
X937250Y1621810D01*
X871593Y1717810D02*
X924250Y1665153D01*
X867250Y1727810D02*
X928250Y1666810D01*
X944221Y1555810D02*
X980563D01*
X942564Y1551810D02*
X973249D01*
X940907Y1547810D02*
X964936D01*
X939250Y1543810D02*
X958564D01*
X801250Y1717810D02*
X871593D01*
X948250Y1573809D02*
X953249Y1568810D01*
X1014907D01*
X957250Y1581810D02*
X966250Y1572810D01*
X1013250D01*
X1124935Y1600809D02*
X1125250Y1600494D01*
X1116249Y1596810D02*
X1125250Y1587809D01*
X1042907Y1596810D02*
X1116249D01*
X1134250Y1558169D02*
Y1603123D01*
X1100250Y1612810D02*
X1124563D01*
X1134250Y1603123D01*
X1125250Y1600494D02*
Y1600809D01*
X1125250Y1600494D02*
X1125250Y1600494D01*
X1124935Y1600809D02*
X1124936Y1600810D01*
X1102750Y1526669D02*
X1134250Y1558169D01*
X1138250Y1556512D02*
Y1604810D01*
X1106750Y1525013D02*
X1138250Y1556512D01*
X1119250Y1623810D02*
X1138250Y1604810D01*
X1013250Y1572810D02*
X1041250Y1600810D01*
X1124936D01*
X1014907Y1568810D02*
X1042907Y1596810D01*
X1104250Y1592810D02*
X1112250Y1584810D01*
X1063250Y1592810D02*
X1104250D01*
X1059078Y1588638D02*
X1063250Y1592810D01*
X1264877Y1642810D02*
X1325220D01*
X1199250Y1577183D02*
X1264877Y1642810D01*
X1199250Y1422865D02*
Y1577183D01*
X1263221Y1646810D02*
X1323564D01*
X1195250Y1578840D02*
X1263221Y1646810D01*
X1195250Y1424521D02*
Y1578840D01*
X1261564Y1650810D02*
X1321907D01*
X1191250Y1580496D02*
X1261564Y1650810D01*
X1191250Y1426178D02*
Y1580496D01*
X1259907Y1654810D02*
X1320250D01*
X1187250Y1582153D02*
X1259907Y1654810D01*
X1187250Y1456521D02*
Y1582153D01*
X1259150Y1659710D02*
X1299650D01*
X1183250Y1583810D02*
X1259150Y1659710D01*
X1183250Y1458178D02*
Y1583810D01*
X1310650Y1670710D02*
X1315734D01*
X1299650Y1659710D02*
X1310650Y1670710D01*
X937250Y1621810D02*
X968250D01*
X947250Y1530810D02*
X952250Y1535810D01*
X812250Y1530810D02*
X947250D01*
X964270Y1535809D02*
Y1538104D01*
X961936Y1526810D02*
X962937Y1525809D01*
X901907Y1526810D02*
X961936D01*
X960279Y1522810D02*
X961280Y1521809D01*
X903564Y1522810D02*
X960279D01*
X958622Y1518810D02*
X959623Y1517809D01*
X949250Y1518810D02*
X958622D01*
X962937Y1525809D02*
X969564D01*
X961280Y1521809D02*
X971221D01*
X959623Y1517809D02*
X972878D01*
X969564Y1525809D02*
X970565Y1526810D01*
X971221Y1521809D02*
X972222Y1522810D01*
X972878Y1517809D02*
X973879Y1518810D01*
X977279Y1508809D02*
X979279Y1510810D01*
X958564Y1543810D02*
X965564Y1536810D01*
X967250Y1508809D02*
X977279D01*
X972222Y1522810D02*
X978593D01*
X970565Y1526810D02*
X980250D01*
X973879Y1518810D02*
X976936D01*
X964936Y1547810D02*
X1032936Y1479810D01*
X973249Y1551810D02*
X989250Y1535809D01*
X1032936Y1479810D02*
X1059010D01*
X1087436Y1326310D02*
X1152250D01*
X1074950Y1338796D02*
X1087436Y1326310D01*
X1074950Y1338796D02*
Y1365883D01*
X1078751Y1369684D01*
X1078950Y1364226D02*
X1083751Y1369027D01*
X1078950Y1340453D02*
Y1364226D01*
Y1340453D02*
X1089093Y1330310D01*
X1246000D01*
X1082950Y1342110D02*
X1089750Y1335310D01*
X1246000D01*
X1082950Y1342110D02*
Y1362569D01*
X1144250Y1352810D02*
X1155248Y1363808D01*
X1103751Y1367909D02*
Y1380309D01*
Y1367909D02*
X1118850Y1352810D01*
X1082950Y1362569D02*
X1088751Y1368370D01*
Y1380309D01*
X1083751Y1369027D02*
Y1380309D01*
X1078751Y1369684D02*
Y1380309D01*
X1083751Y1451309D02*
X1093250Y1441809D01*
X1155248Y1363808D02*
Y1389812D01*
X1147751Y1397309D02*
X1155248Y1389812D01*
X1130751Y1397309D02*
X1147751D01*
X1113751Y1397309D02*
X1128252Y1382808D01*
X1113250Y1397810D02*
X1113751Y1397309D01*
X1128252Y1382808D02*
X1145248D01*
X1112250Y1565810D02*
Y1581810D01*
X1151249Y1582809D02*
X1151250Y1582810D01*
X1151249Y1570811D02*
Y1582809D01*
X895249Y1500810D02*
Y1503809D01*
X811250Y1529810D02*
X812250Y1530810D01*
X979279Y1510810D02*
X1020250Y1469839D01*
X894907Y1519810D02*
X901907Y1526810D01*
X896564Y1515810D02*
X903564Y1522810D01*
X978593D02*
X1028250Y1473153D01*
X934249Y1503809D02*
X949250Y1518810D01*
X976936D02*
X1024250Y1471496D01*
X1086250Y1623810D02*
X1119250D01*
X1112250Y1581810D02*
Y1584810D01*
X1059078Y1584638D02*
Y1588638D01*
X1092249Y1563311D02*
Y1581808D01*
Y1563311D02*
X1108749Y1546811D01*
X1076252Y1563313D02*
Y1581812D01*
X1059749Y1546811D02*
X1076252Y1563313D01*
X1026750Y1608310D02*
X1033250D01*
X1005250Y1586810D02*
X1026750Y1608310D01*
X1007250Y1614210D02*
Y1621810D01*
X979850Y1586810D02*
X1007250Y1614210D01*
X1078751Y1430311D02*
X1103751D01*
X1078751D02*
Y1469309D01*
X1083751Y1451309D02*
Y1469309D01*
X1068250Y1454810D02*
X1072250D01*
X1073751Y1456311D01*
X1121250Y1632810D02*
X1165250Y1588810D01*
X1100250Y1632810D02*
X1121250D01*
X1001250Y1332810D02*
X1037250Y1368810D01*
X1005250Y1331153D02*
X1038907Y1364810D01*
X1009250Y1329496D02*
X1040564Y1360810D01*
X1013250Y1327840D02*
X1042221Y1356810D01*
X1013250Y1244496D02*
Y1327840D01*
X1009250Y1265210D02*
Y1329496D01*
X1005250Y1267810D02*
Y1331153D01*
X1042221Y1356810D02*
X1060220D01*
X1040564Y1360810D02*
X1058564D01*
X1038907Y1364810D02*
X1056907D01*
X1037250Y1368810D02*
X1055250D01*
X1001250Y1290810D02*
Y1332810D01*
Y1374810D02*
Y1390810D01*
X1113751Y1455311D02*
Y1469309D01*
X1113250Y1454810D02*
X1116250D01*
X1118751Y1452309D01*
X1113751Y1380309D02*
Y1397309D01*
X1073751Y1456311D02*
Y1469309D01*
X1120749Y1447309D02*
X1130751D01*
X1103751Y1430311D02*
X1120749Y1447309D01*
X1118751Y1452309D02*
X1130751D01*
X1108751Y1380309D02*
Y1386309D01*
X1078751Y1430311D02*
X1103250Y1405812D01*
Y1391810D02*
Y1405812D01*
Y1391810D02*
X1108751Y1386309D01*
X1041751Y1397309D02*
X1057750D01*
X1050749Y1402309D02*
X1078751Y1430311D01*
X1041751Y1402309D02*
X1050749D01*
X1338250Y1661496D02*
Y1719310D01*
X1310650Y1746910D02*
X1338250Y1719310D01*
X1334250Y1663153D02*
Y1697910D01*
X1310650Y1721510D02*
X1334250Y1697910D01*
X1329250Y1663810D02*
Y1677510D01*
X1310650Y1696110D02*
X1329250Y1677510D01*
X1342250Y1769995D02*
X1345731Y1773476D01*
X1342250Y1659839D02*
Y1769995D01*
X1325220Y1642810D02*
X1342250Y1659839D01*
X1184695Y1408310D02*
X1199250Y1422865D01*
X1147682Y1408310D02*
X1184695D01*
X1138683Y1417309D02*
X1147682Y1408310D01*
X1130751Y1417309D02*
X1138683D01*
X1358581Y1786326D02*
X1367250D01*
X1345731Y1773476D02*
X1358581Y1786326D01*
Y1806326D02*
X1367250D01*
X1345731Y1819176D02*
X1358581Y1806326D01*
X1022536Y1235210D02*
X1042250D01*
X1013250Y1244496D02*
X1022536Y1235210D01*
X916250D02*
X928650Y1222810D01*
X1016250D01*
X1023250Y1215810D01*
X1019250Y1226810D02*
X1027250Y1218810D01*
X987650Y1226810D02*
X1019250D01*
X979250Y1235210D02*
X987650Y1226810D01*
X1110250Y1234810D02*
X1112750D01*
X1103250Y1241810D02*
X1110250Y1234810D01*
X1096250Y1241810D02*
X1103250D01*
X1090252Y1247809D02*
X1096250Y1241810D01*
X1090250Y1247810D02*
X1090252Y1247809D01*
X1021250Y1247810D02*
X1090250D01*
X1027250Y1192467D02*
Y1218810D01*
X1023250Y1190810D02*
X1037000Y1177060D01*
X1023250Y1190810D02*
Y1215810D01*
X1027250Y1192467D02*
X1031639Y1188078D01*
X1176248Y1247809D02*
X1193252D01*
X1146250Y1217810D02*
X1176248Y1247809D01*
X1075150Y1217810D02*
X1146250D01*
X1063150Y1205810D02*
X1075150Y1217810D01*
X868907Y1196810D02*
X960936D01*
X853250Y1212467D02*
X868907Y1196810D01*
X957250Y1192810D02*
X960800Y1189260D01*
X867250Y1192810D02*
X957250D01*
X842250Y1217810D02*
X867250Y1192810D01*
X924250Y1188810D02*
X935400Y1177660D01*
X865593Y1188810D02*
X924250D01*
X838250Y1216153D02*
X865593Y1188810D01*
X935400Y1173828D02*
Y1177660D01*
X1167381Y1442309D02*
X1183250Y1458178D01*
X1169038Y1438309D02*
X1187250Y1456521D01*
X1181382Y1416310D02*
X1191250Y1426178D01*
X1183039Y1412310D02*
X1195250Y1424521D01*
X1323564Y1646810D02*
X1338250Y1661496D01*
X1149461Y1412310D02*
X1183039D01*
X1151118Y1416310D02*
X1181382D01*
X1321907Y1650810D02*
X1334250Y1663153D01*
X1320250Y1654810D02*
X1329250Y1663810D01*
X1130751Y1427309D02*
X1140119D01*
X1139462Y1422309D02*
X1149461Y1412310D01*
X1130751Y1422309D02*
X1139462D01*
X1140119Y1427309D02*
X1151118Y1416310D01*
X1150751Y1432309D02*
X1156250Y1426810D01*
X1130751Y1432309D02*
X1150751D01*
X1183250Y1433810D02*
Y1439810D01*
X1176250Y1426810D02*
X1183250Y1433810D01*
X1140250Y1438309D02*
X1169038D01*
X1139250Y1437309D02*
X1140250Y1438309D01*
X1130751Y1437309D02*
X1139250D01*
X1130751Y1442309D02*
X1167381D01*
X1130751Y1447309D02*
X1158749D01*
X1168250Y1456810D02*
Y1458810D01*
X1158749Y1447309D02*
X1168250Y1456810D01*
X1141749Y1452309D02*
X1148249Y1458808D01*
X1130751Y1452309D02*
X1141749D01*
X1123252Y1486812D02*
Y1493808D01*
X1113751Y1477311D02*
X1123252Y1486812D01*
X1113751Y1469309D02*
Y1477311D01*
X1115250Y1523810D02*
X1141250D01*
X1110750Y1519310D02*
X1115250Y1523810D01*
X1110750Y1482051D02*
Y1519310D01*
X1151248Y1550810D02*
X1151249Y1550811D01*
X1151248Y1533811D02*
Y1550810D01*
X1141250Y1523810D02*
X1151250Y1513810D01*
X1108751Y1480052D02*
X1110750Y1482051D01*
X1108751Y1469309D02*
Y1480052D01*
X1103751Y1469309D02*
Y1480709D01*
X1106750Y1483708D01*
Y1525013D01*
X1102750Y1485365D02*
Y1526669D01*
X1098751Y1481365D02*
X1102750Y1485365D01*
X1098751Y1469309D02*
Y1481365D01*
X1076750Y1633310D02*
X1086250Y1623810D01*
X1076750Y1633310D02*
X1077250Y1633810D01*
Y1649810D01*
X1094748Y1501127D02*
Y1537312D01*
X1085249Y1546811D02*
X1094748Y1537312D01*
X1059749Y1546811D02*
X1085249D01*
X1098750Y1536812D02*
X1108749Y1546811D01*
X1098750Y1487021D02*
Y1536812D01*
X1093751Y1482022D02*
X1098750Y1487021D01*
X1093751Y1469309D02*
Y1482022D01*
X1094748Y1501127D02*
X1094750Y1501126D01*
Y1488678D02*
Y1501126D01*
X1088751Y1482679D02*
X1094750Y1488678D01*
X1088751Y1469309D02*
Y1482679D01*
X1083751Y1493311D02*
X1084250Y1493810D01*
X1083751Y1469309D02*
Y1493311D01*
X1073249Y1513811D02*
X1084248D01*
X1062250D02*
X1073249D01*
X1073250Y1513811D01*
Y1488467D02*
Y1513811D01*
X1062249Y1513811D02*
X1062250Y1513811D01*
X1073250Y1488467D02*
X1078751Y1482966D01*
Y1469309D02*
Y1482966D01*
X1062251Y1493809D02*
X1073751Y1482309D01*
Y1469309D02*
Y1482309D01*
X1214800Y1205060D02*
X1215550Y1205810D01*
X1214800Y1173828D02*
Y1205060D01*
X1138600Y1179660D02*
X1164750Y1205810D01*
X1138600Y1173828D02*
Y1179660D01*
X1189400Y1205060D02*
X1190150Y1205810D01*
X1189400Y1173828D02*
Y1205060D01*
X1056550Y1191810D02*
X1073250D01*
X1050250Y1198110D02*
X1056550Y1191810D01*
X1050250Y1198110D02*
Y1227210D01*
X1073250Y1191810D02*
X1087800Y1177260D01*
X1042250Y1235210D02*
X1050250Y1227210D01*
X1031639Y1188078D02*
X1051982D01*
X1087800Y1173828D02*
Y1177260D01*
X1051982Y1188078D02*
X1062400Y1177660D01*
Y1173828D02*
Y1177660D01*
X1037000Y1173828D02*
Y1177060D01*
X998250Y1193810D02*
X1011600Y1180460D01*
Y1173828D02*
Y1180460D01*
X986200Y1173828D02*
Y1190860D01*
X853250Y1212467D02*
Y1235210D01*
X838250Y1216153D02*
Y1269467D01*
X839422Y1270639D01*
Y1272181D01*
X853250Y1286010D01*
Y1311410D02*
X864250Y1300410D01*
Y1280810D02*
Y1300410D01*
X858250Y1274810D02*
X864250Y1280810D01*
X849250Y1274810D02*
X858250D01*
X842250Y1267810D02*
X849250Y1274810D01*
X842250Y1217810D02*
Y1267810D01*
X960800Y1173828D02*
Y1189260D01*
X1060220Y1356810D02*
X1073751Y1370340D01*
Y1380309D01*
X979250Y1235210D02*
X1009250Y1265210D01*
X1058564Y1360810D02*
X1068751Y1370997D01*
Y1380309D01*
X916250Y1235210D02*
X928850Y1247810D01*
X985250D01*
X1005250Y1267810D01*
X1056907Y1364810D02*
X1063751Y1371654D01*
Y1380309D01*
X853250Y1235210D02*
X891850Y1273810D01*
X984250D01*
X1001250Y1290810D01*
X1055250Y1368810D02*
X1058751Y1372311D01*
Y1380309D01*
X979250Y1286010D02*
X997250Y1304010D01*
Y1360467D01*
X990250Y1367467D02*
X997250Y1360467D01*
X979250Y1311410D02*
X993250Y1325410D01*
Y1358810D01*
X986250Y1365810D02*
X993250Y1358810D01*
X986250Y1365810D02*
Y1399467D01*
X999092Y1412309D01*
X1041751D01*
X990250Y1367467D02*
Y1397810D01*
X999749Y1407309D01*
X1041751D01*
X1001250Y1390810D02*
X1012749Y1402309D01*
X1041751D01*
X885250Y1376810D02*
Y1417810D01*
X889250Y1421810D01*
X939250Y1376810D02*
Y1418810D01*
X942250Y1421810D01*
X962250D02*
X962280Y1421839D01*
X1025279D02*
X1029810Y1417309D01*
X1041751D01*
X909250Y1421810D02*
X922250Y1434810D01*
X1017966D01*
X1030467Y1422309D01*
X1041751D01*
X912650Y1457810D02*
X931650Y1438810D01*
X1019623D01*
X1031124Y1427309D01*
X1041751D01*
X938050Y1457810D02*
X953050Y1442810D01*
X1021280D01*
X1031780Y1432309D01*
X1041751D01*
X877250Y1444810D02*
X891250D01*
X900250Y1453810D01*
Y1462810D01*
X908250Y1470810D01*
X943250D01*
X951250Y1462810D01*
Y1451810D02*
Y1462810D01*
Y1451810D02*
X956250Y1446810D01*
X1022936D01*
X1032437Y1437309D01*
X1041751D01*
X841750Y1440310D02*
X846250Y1444810D01*
X832750Y1440310D02*
X841750D01*
X954249Y1467011D02*
X963450Y1457810D01*
X954249Y1467011D02*
Y1503809D01*
X915249D02*
X934249D01*
X877250Y1515810D02*
X896564D01*
X1021252Y1394812D02*
X1023749Y1397309D01*
X1041751D01*
X1020250Y1455153D02*
Y1469839D01*
Y1455153D02*
X1033094Y1442309D01*
X1041751D01*
X980250Y1526810D02*
X1016750Y1490310D01*
X1024250Y1456810D02*
Y1471496D01*
Y1456810D02*
X1033751Y1447309D01*
X1028250Y1458810D02*
Y1473153D01*
Y1458810D02*
X1034751Y1452309D01*
X1031250Y1475810D02*
X1057250D01*
X1016750Y1490310D02*
X1031250Y1475810D01*
X805750Y1415310D02*
X823250D01*
X790650Y1430410D02*
X805750Y1415310D01*
X790650Y1430410D02*
Y1439810D01*
X780650Y1449810D02*
X790650Y1439810D01*
X765250Y1449810D02*
X780650D01*
X813250Y1457810D02*
X813750Y1457310D01*
Y1440310D02*
Y1457310D01*
X1033751Y1447309D02*
X1041751D01*
X1034751Y1452309D02*
X1041751D01*
X864250Y1502810D02*
X877250Y1515810D01*
X864250Y1391810D02*
Y1502810D01*
X859250Y1386810D02*
X864250Y1391810D01*
X859249Y1386811D02*
X859250Y1386810D01*
X839249Y1386811D02*
X859249D01*
X1060667Y1483810D02*
X1068751Y1475726D01*
Y1469309D02*
Y1475726D01*
X1059010Y1479810D02*
X1063751Y1475069D01*
Y1469309D02*
Y1475069D01*
X1057250Y1475810D02*
X1058751Y1474309D01*
Y1469309D02*
Y1474309D01*
X968250Y1621810D02*
X987250D01*
X813250Y1727810D02*
X867250D01*
X833250Y1360812D02*
X839249Y1366811D01*
X833250Y1290810D02*
Y1360812D01*
X824250Y1281810D02*
X833250Y1290810D01*
X780750Y1281810D02*
X824250D01*
X766250Y1267310D02*
X780750Y1281810D01*
X766250Y1224060D02*
Y1267310D01*
X744250Y1202060D02*
X766250Y1224060D01*
X832750Y1457310D02*
X833250Y1457810D01*
X832750Y1440310D02*
Y1457310D01*
X781850Y1512410D02*
X787254D01*
X773250Y1503810D02*
X781850Y1512410D01*
X773250Y1495807D02*
Y1503810D01*
Y1495807D02*
X788249Y1480808D01*
X801250Y1519810D02*
X894907D01*
X795950Y1525110D02*
X801250Y1519810D01*
X787254Y1525110D02*
X795950D01*
X803249Y1509809D02*
X811252D01*
X793150Y1499710D02*
X803249Y1509809D01*
X787254Y1499710D02*
X793150D01*
X801250Y1529810D02*
X811250D01*
X793250Y1537810D02*
X801250Y1529810D01*
X787254Y1537810D02*
X793250D01*
X874745Y1657315D02*
X876250Y1655810D01*
X859750Y1657315D02*
X874745D01*
X814250Y1675810D02*
X876250D01*
X794350Y1698710D02*
X795150D01*
X810250Y1679810D02*
Y1682810D01*
X794350Y1698710D02*
X810250Y1682810D01*
X789250Y1698710D02*
X794350D01*
X804249Y1707809D02*
X813252D01*
X795150Y1698710D02*
X804249Y1707809D01*
X803250Y1727810D02*
X813250D01*
X794250Y1736810D02*
X803250Y1727810D01*
X789250Y1736810D02*
X794250D01*
X794950Y1724110D02*
X801250Y1717810D01*
X789250Y1724110D02*
X794950D01*
X777250Y1692807D02*
X790248Y1679808D01*
X777250Y1692807D02*
Y1704810D01*
X783850Y1711410D01*
X789250D01*
X820145Y1652210D02*
X834750Y1666815D01*
X791100Y1652210D02*
X820145D01*
X779850D02*
X791100D01*
X755250Y1676810D02*
X779850Y1652210D01*
X968250Y1641810D02*
Y1648810D01*
X974250Y1654810D01*
X987250Y1641810D01*
X974250Y1654810D02*
Y1697810D01*
X1093250Y1619810D02*
X1100250Y1612810D01*
X1053247Y1619810D02*
X1093250D01*
X1042750Y1630307D02*
X1053247Y1619810D01*
X1042750Y1630307D02*
Y1633310D01*
X1048750Y1608310D02*
X1067250D01*
X1023750Y1633310D02*
X1048750Y1608310D01*
X1015250Y1641810D02*
X1023750Y1633310D01*
X1007250Y1641810D02*
X1015250D01*
X1057750Y1633310D02*
Y1649310D01*
X1057250Y1649810D02*
X1057750Y1649310D01*
X1038250Y1668810D02*
X1057250Y1649810D01*
X1035250Y1668810D02*
X1038250D01*
X749850Y1429810D02*
X765250D01*
D45*
X1226750Y1745307D02*
X1227252Y1745809D01*
X1226750Y1696810D02*
Y1745307D01*
X1109250Y1709310D02*
X1144750Y1673810D01*
X1165750D01*
X1167249Y1672312D01*
Y1649808D02*
Y1672312D01*
X1113751Y1455311D02*
X1165250Y1506810D01*
X1113250Y1454810D02*
X1113751Y1455311D01*
X1165250Y1506810D02*
Y1588810D01*
X1226252Y1649812D01*
X1226750Y1650310D01*
Y1696810D01*
D46*
X989250Y1535809D02*
X1036250Y1488809D01*
X1271250Y1478810D02*
X1286251Y1493811D01*
Y1529811D01*
Y1550811D01*
X1305751Y1570311D01*
Y1589811D01*
X1366751Y1612811D02*
X1369249D01*
X1382247Y1599813D01*
X1389249D01*
X1393253D01*
X1414250Y1620810D01*
X1441048D01*
X1452549Y1609309D01*
X904250Y1657810D02*
X906250Y1655810D01*
Y1556810D02*
Y1655810D01*
X895250Y1545810D02*
X906250Y1556810D01*
X1015250Y1658810D02*
Y1680810D01*
X1025250Y1690810D01*
Y1697810D01*
X887250Y1457810D02*
X895249Y1465809D01*
Y1500810D01*
X1057750Y1396310D02*
Y1397309D01*
X1005250Y1350810D02*
X1012250D01*
X1057750Y1396310D01*
D47*
X1285250Y1746910D02*
Y1792407D01*
Y1721510D02*
Y1746910D01*
Y1696110D02*
Y1721510D01*
X1281331Y1796326D02*
X1285250Y1792407D01*
D48*
X1323097Y1841810D02*
X1345731Y1819176D01*
X1241250Y1841810D02*
X1323097D01*
X1197250Y1797810D02*
X1241250Y1841810D01*
X1142250Y1749810D02*
X1164250D01*
X1111250Y1718810D02*
X1142250Y1749810D01*
X1164250D02*
X1197250Y1782810D01*
X1035083Y1718810D02*
X1111250D01*
X1197250Y1782810D02*
Y1797810D01*
X1025250Y1708977D02*
X1035083Y1718810D01*
X1077250Y1735810D02*
X1097250Y1755810D01*
X1005250Y1735810D02*
X1077250D01*
X991250Y1721810D02*
X1005250Y1735810D01*
X1025250Y1697810D02*
Y1708977D01*
X1097250Y1755810D02*
Y1797810D01*
X991250Y1697810D02*
Y1721810D01*
Y1668810D02*
Y1697810D01*
D49*
X786250Y1202060D02*
Y1257060D01*
X786250Y1140810D02*
Y1165810D01*
Y1202060D01*
Y1165810D02*
X786450Y1165610D01*
X853250D01*
X731250Y1104810D02*
X843250D01*
X853250Y1114810D01*
X786250Y1202060D02*
X786250Y1202060D01*
X744250Y1140810D02*
Y1202060D01*
X744250Y1202060D02*
X744250Y1202060D01*
X782250Y1573810D02*
X827000D01*
X768250Y1587810D02*
X782250Y1573810D01*
X969250Y1694810D02*
Y1702810D01*
X929750Y1742310D02*
X969250Y1702810D01*
X906250Y1742310D02*
X929750D01*
X731250Y1638060D02*
Y1704810D01*
X719250Y1531810D02*
Y1626060D01*
X731250Y1638060D01*
Y1704810D02*
X750250D01*
X750249Y1730811D02*
Y1799810D01*
X723251Y1730811D02*
X750249D01*
X723250Y1730810D02*
X723251Y1730811D01*
X719250Y1531810D02*
X735250D01*
X739250Y1505810D02*
X739850Y1505210D01*
Y1439810D02*
Y1505210D01*
X722250Y1505810D02*
X739250D01*
X744250Y1257060D02*
Y1318810D01*
X710250Y1223060D02*
X744250Y1257060D01*
X710250Y1125810D02*
Y1223060D01*
Y1125810D02*
X731250Y1104810D01*
D50*
X1452549Y1609309D02*
D03*
Y1584311D02*
D03*
X1432549D02*
D03*
Y1609309D02*
D03*
D51*
X1405450Y1536810D02*
D03*
Y1656810D02*
D03*
D52*
X1108749Y1546811D02*
D03*
X1059749D02*
D03*
X1375926Y1482129D02*
D03*
X1410574Y1447481D02*
D03*
D53*
X1195050Y1352810D02*
D03*
X1169650D02*
D03*
X1144250D02*
D03*
X1118850D02*
D03*
X1190150Y1205810D02*
D03*
X1215550D02*
D03*
X1164750D02*
D03*
X1063150D02*
D03*
X1088550D02*
D03*
X1113950D02*
D03*
X1139350D02*
D03*
X1259850Y1746910D02*
D03*
Y1721510D02*
D03*
Y1696110D02*
D03*
X1285250Y1746910D02*
D03*
Y1721510D02*
D03*
Y1696110D02*
D03*
X1310650Y1746910D02*
D03*
Y1721510D02*
D03*
Y1696110D02*
D03*
X1009250Y1804810D02*
D03*
X964250Y1845810D02*
D03*
X1053250D02*
D03*
X964250Y1757810D02*
D03*
X1051250D02*
D03*
X1008250Y1715810D02*
D03*
X750250Y1704810D02*
D03*
D54*
X1093450Y1352810D02*
D03*
X1037750Y1205810D02*
D03*
D55*
X1005250Y1586810D02*
D03*
X979850D02*
D03*
X963450Y1457810D02*
D03*
X938050D02*
D03*
X887250D02*
D03*
X912650D02*
D03*
X853250Y1165610D02*
D03*
Y1114810D02*
D03*
Y1140210D02*
D03*
X916250Y1235210D02*
D03*
Y1311410D02*
D03*
Y1336810D02*
D03*
Y1286010D02*
D03*
Y1260610D02*
D03*
X979250Y1235210D02*
D03*
Y1311410D02*
D03*
Y1336810D02*
D03*
Y1286010D02*
D03*
Y1260610D02*
D03*
X1042250Y1235210D02*
D03*
Y1311410D02*
D03*
Y1336810D02*
D03*
Y1286010D02*
D03*
Y1260610D02*
D03*
X853250Y1235210D02*
D03*
Y1311410D02*
D03*
Y1336810D02*
D03*
Y1286010D02*
D03*
Y1260610D02*
D03*
X885250Y1376810D02*
D03*
X910650D02*
D03*
X939250D02*
D03*
X964650D02*
D03*
X1441250Y1171210D02*
D03*
Y1247410D02*
D03*
Y1272810D02*
D03*
Y1222010D02*
D03*
Y1196610D02*
D03*
D56*
X1109250Y1709310D02*
D03*
X906250Y1742310D02*
D03*
D57*
X1109250Y1674310D02*
D03*
X906250Y1777310D02*
D03*
D58*
X820251Y1799810D02*
D03*
D59*
X750249D02*
D03*
D60*
X1259850Y1670710D02*
D03*
X1285250Y1670710D02*
D03*
X1310650Y1670710D02*
D03*
D61*
X882000Y1573810D02*
D03*
Y1615810D02*
D03*
X827000D02*
D03*
Y1573810D02*
D03*
X744250Y1202060D02*
D03*
X786250D02*
D03*
Y1257060D02*
D03*
X744250D02*
D03*
D62*
X786250Y1140810D02*
D03*
X744250D02*
D03*
D63*
X1377250Y1296810D02*
D03*
X1059250Y1697810D02*
D03*
X1035250Y1645810D02*
D03*
X1036250Y1488809D02*
D03*
X1185250Y1310810D02*
D03*
X1375250Y1355810D02*
D03*
X1378253Y1332810D02*
D03*
X1271250Y1478810D02*
D03*
X1280250Y1464810D02*
D03*
X876250Y1214810D02*
D03*
X989250Y1213810D02*
D03*
X1061250Y1221810D02*
D03*
X1289250Y1212810D02*
D03*
X1005250Y1213810D02*
D03*
X1193250Y1280810D02*
D03*
X1392250Y1194810D02*
D03*
X1366250Y1211810D02*
D03*
X1319250Y1212810D02*
D03*
X1277250Y1229810D02*
D03*
X1308250Y1228810D02*
D03*
X1411250Y1278810D02*
D03*
X1424250Y1287810D02*
D03*
X1441250Y1324810D02*
D03*
X1457250Y1259810D02*
D03*
X1308250Y1271810D02*
D03*
X1278250D02*
D03*
X1377249Y1311810D02*
D03*
X1352250Y1394810D02*
D03*
X1328250Y1417809D02*
D03*
X1277250Y1416810D02*
D03*
X1291250Y1417810D02*
D03*
X1231250Y1364810D02*
D03*
Y1310810D02*
D03*
X895250Y1545810D02*
D03*
X904250Y1657810D02*
D03*
X1015250Y1658810D02*
D03*
X948250Y1573809D02*
D03*
X957250Y1581810D02*
D03*
X1217250Y1557809D02*
D03*
X1217250Y1569810D02*
D03*
X1125250Y1600809D02*
D03*
Y1587809D02*
D03*
X964270Y1535809D02*
D03*
X967250Y1508809D02*
D03*
X952250Y1535810D02*
D03*
X989250Y1535809D02*
D03*
X1093250Y1441809D02*
D03*
X1112250Y1565810D02*
D03*
X1151250Y1582810D02*
D03*
X1165250Y1588810D02*
D03*
X1068250Y1454810D02*
D03*
X1005250Y1350810D02*
D03*
X1001250Y1374810D02*
D03*
X1113250Y1454810D02*
D03*
Y1397810D02*
D03*
X1058250Y1396809D02*
D03*
X1021250Y1247810D02*
D03*
X910250Y1205810D02*
D03*
X1183250Y1439810D02*
D03*
X969250Y1193810D02*
D03*
X998250D02*
D03*
X846250Y1444810D02*
D03*
X877250D02*
D03*
D64*
X1264250Y1585810D02*
D03*
X1335250Y1593810D02*
D03*
X714250Y1268810D02*
D03*
X883250Y1352810D02*
D03*
X765250Y1403810D02*
D03*
X715250Y1483810D02*
D03*
X761250Y1522810D02*
D03*
X838250Y1489810D02*
D03*
X766250Y1633810D02*
D03*
X838250Y1692810D02*
D03*
X906250Y1829810D02*
D03*
X1198250Y1696810D02*
D03*
X1147250Y1797810D02*
D03*
X1337250Y1469810D02*
D03*
X1427250Y1407810D02*
D03*
X1460250Y1298810D02*
D03*
X1335250Y1309810D02*
D03*
X1268250Y1308810D02*
D03*
X1267250Y1377810D02*
D03*
X1332250Y1374810D02*
D03*
X1302250Y1343810D02*
D03*
X1078751Y1430311D02*
D03*
X1062250Y1336810D02*
D03*
X1134250Y1257810D02*
D03*
X1157250Y1258810D02*
D03*
X1245250Y1206810D02*
D03*
X1445250Y1113810D02*
D03*
X1164250Y1608810D02*
D03*
X1042250Y1580810D02*
D03*
X995250Y1557810D02*
D03*
X1073250Y1526810D02*
D03*
X1137250Y1504810D02*
D03*
M02*
